<svg xmlns="http://www.w3.org/2000/svg" viewBox="0 0 571.83 667.69"><defs><style>.cls-1,.cls-10{fill:#ff5cd8;}.cls-1,.cls-9{stroke:#333;stroke-width:4px;}.cls-1,.cls-2,.cls-9{stroke-miterlimit:10;}.cls-2,.cls-5{fill:#333;}.cls-2{stroke:#fff;stroke-width:2px;}.cls-3{fill:#fefefe;}.cls-4{fill:#bebebe;}.cls-6{fill:#f8f8f8;}.cls-7{fill:#f3f3f3;}.cls-8,.cls-9{fill:#fff;}</style></defs><title>ezcloud2</title><g id="Ebene_2" data-name="Ebene 2"><g id="Ebene_1-2" data-name="Ebene 1"><path class="cls-1" d="M408.65,461.78a236.35,236.35,0,0,0,84.43-138l-9.76,3.66c-77.75,29.34-154.76,60.59-231.76,91.84Q199,440.65,146.4,461.78Z"/><text/><path class="cls-1" d="M431.86,60.5A235.49,235.49,0,0,0,276.19,2C147.14,2,42.26,105.38,39.8,233.83,55.26,226.29,404,71.13,431.86,60.5Z"/><path class="cls-1" d="M409.89,82.18C328.55,113.66,51.54,239.87,21.27,253.9a4.32,4.32,0,0,0-2.52,3.91v0a235.47,235.47,0,0,0,22.3,100.34,4.39,4.39,0,0,0,5.53,2.25Q69.07,351.78,91.49,343c83.71-32.69,166.89-66.72,250-100.94q67.47-27.8,134.94-55.58a4.38,4.38,0,0,0,2.46-5.48,236.74,236.74,0,0,0-64.49-98A4.34,4.34,0,0,0,409.89,82.18Z"/><path class="cls-1" d="M141,450.93c9.4-3.73,18.78-7.52,28.16-11.28,77.07-30.88,153.81-62.56,231-93.17q55.22-21.9,110.82-42.83a237.78,237.78,0,0,0-6.65-116.09q-16.12,6.62-32.22,13.24c-84.21,34.65-168.31,69.58-252.76,103.63Q155.63,330.11,91.61,355q-12.21,4.72-24.46,9.35A237.47,237.47,0,0,0,141,450.93Z"/><polygon class="cls-2" points="358.25 80.76 170.78 80.76 77.04 243.12 170.78 405.47 358.25 405.47 451.99 243.12 358.25 80.76"/><path class="cls-3" d="M170.38,289.94c-5.88-19.58-2.24-34.7,12-47.51,9.18-8.27,18.82-15.9,28.16-24a62.6,62.6,0,0,0,7-7.36c7.74-9.3,7.35-13.16-1.82-19.94-3.69-2.91-7.06-6.69-11.12-8.56-17.2-7.89-34.42-6.34-51.48,1.09a94.12,94.12,0,0,1-13,5c-2.05.55-5.29.18-6.49-1.32s-.62-5,0-7.28a25.16,25.16,0,0,1,3.83-7.62c5.13-7.16,10.48-14.12,15.74-21.16,14.48-13.32,31-12.55,47.88-8.64,20.9,4.84,40.43,13.9,59.08,25.4,3.57,2.2,6.2,2.23,9.79,0,20.64-12.64,42.22-22.45,65.58-26.72,15-2.74,29.07-1.24,41.41,9.9,2.63,3.35,5.46,6.54,7.84,10.11,4.18,6.27,8.63,12.45,11.94,19.3,2.77,5.74,0,9.4-5.67,8.14a57.13,57.13,0,0,1-12-4.14c-10.68-5.12-21.75-8-33.31-7.11-12.53,1-24.53,4.14-33.67,15.06-6.18,5.59-7,9.11-1.54,15.49,6.32,7.41,13.48,14,20.56,20.5,5.39,5,11.43,9.06,16.84,14C362.54,256,366,272.7,358.66,292.7c-1.44,2.4-2.79,4.88-4.34,7.19-5.75,8.62-10.75,18.13-17.51,25.59-22.48,24.83-49.93,33.9-81.1,31.32-34.64-2.87-60.09-21.86-78.53-54.21C174.82,298.44,172.64,294.16,170.38,289.94Zm136.51,7.9c1.77-8.47.49-12.42-6.05-17a37.83,37.83,0,0,0-8.63-4.57c-18.2-6.62-36.5-6.7-54.64.17a35.74,35.74,0,0,0-11.38,7.15c-3.84,3.55-5.67,8.51-3,14.23-.35,8.18,3.39,14.3,8.4,19.33,15.51,15.59,44.41,18,61.64,4.66C300.51,316.19,306.86,309.11,306.89,297.84Z"/><path class="cls-4" d="M170.38,289.94c2.26,4.22,4.44,8.5,6.8,12.65,18.44,32.35,43.89,51.34,78.53,54.21,31.17,2.58,58.62-6.49,81.1-31.32,6.76-7.46,11.76-17,17.51-25.59,1.55-2.31,2.9-4.79,4.34-7.19-1.67,4.55-2.86,9.43-5.09,13.6-16.35,30.62-39.16,52.77-68.75,65.78-12.6,5.54-25.34,6.05-38.09.58-31.55-13.52-55.64-36.86-72-70.19C172.8,298.59,171.8,294.13,170.38,289.94Z"/><path class="cls-4" d="M312,192.64c9.14-10.92,21.14-14.09,33.67-15.06,11.56-.9,22.63,2,33.31,7.11a57.13,57.13,0,0,0,12,4.14c5.64,1.26,8.44-2.4,5.67-8.14-3.31-6.85-7.76-13-11.94-19.3-2.38-3.57-5.21-6.76-7.84-10.11,19.6,13.59,33.46,32.5,41,57.11.69,2.26.65,6.4-.54,7.39-1.64,1.37-5.05,1.51-7.08.52a155.56,155.56,0,0,1-16.47-9.65c-8.15-5.27-16.09-11-24.25-16.2-15.43-9.92-31.25-11.67-47.53-2.44C318.78,189.82,315.36,191.11,312,192.64Z"/><path class="cls-4" d="M153.16,151.31c-5.26,7-10.61,14-15.74,21.16a25.16,25.16,0,0,0-3.83,7.62c-.65,2.31-1.12,5.92,0,7.28s4.44,1.87,6.49,1.32a94.12,94.12,0,0,0,13-5c17.06-7.43,34.28-9,51.48-1.09,4.06,1.87,7.43,5.65,11.12,8.56-3.72-1.58-7.53-2.92-11.14-4.77-13.12-6.7-26.15-6-38.71,1.27-10.11,5.84-19.71,12.79-29.63,19.05-5.57,3.52-11.13,7.19-17,9.82-6.13,2.73-9.44-.67-7-7.54a151.79,151.79,0,0,1,11.73-26.45C131.39,169.68,141.05,158.92,153.16,151.31Z"/><path class="cls-5" d="M223.19,297.82c-2.67-5.72-.84-10.68,3-14.23a35.74,35.74,0,0,1,11.38-7.15c18.14-6.87,36.44-6.79,54.64-.17a37.83,37.83,0,0,1,8.63,4.57c6.54,4.58,7.82,8.53,6.05,17C288.1,326.83,241.65,326.51,223.19,297.82Zm42-12.1c4.09-.8,8-1.41,11.86-2.43,1.16-.31,2.07-1.78,3.1-2.72-.91-1-1.68-2.52-2.77-2.92a34.37,34.37,0,0,0-24.54,0c-1.12.41-1.92,1.89-2.87,2.87,1,.95,1.91,2.46,3,2.76C257,284.3,261.13,284.94,265.15,285.72Z"/><path class="cls-4" d="M223.19,297.82c18.46,28.69,64.91,29,83.7,0,0,11.27-6.38,18.35-13.66,24-17.23,13.29-46.13,10.93-61.64-4.66C226.58,312.12,222.84,306,223.19,297.82Z"/><path class="cls-6" d="M265.15,285.72c-4-.78-8.14-1.42-12.17-2.47-1.14-.3-2-1.81-3-2.76.95-1,1.75-2.46,2.87-2.87a34.37,34.37,0,0,1,24.54,0c1.09.4,1.86,1.92,2.77,2.92-1,.94-1.94,2.41-3.1,2.72C273.17,284.31,269.24,284.92,265.15,285.72Z"/><ellipse class="cls-7" cx="265.02" cy="280.55" rx="15.09" ry="5.18"/><circle class="cls-8" cx="185.59" cy="199.92" r="5.41"/><circle class="cls-8" cx="348.91" cy="199.92" r="5.41"/><path class="cls-9" d="M528.26,400.38q-.16-2.07-.51-4.08a46.82,46.82,0,0,0-54-38.15,46.32,46.32,0,0,0-23,11.07c-9-25.45-36.39-40.94-64.26-34.55-26.55,5.94-44.38,29.17-43.53,54.9a45,45,0,0,0-15.35,0,46.81,46.81,0,0,0-38.15,54c.09.54.21,1.07.36,1.65-12.27,5.72-29.46,16.34-24.89,42.64,3.38,19.55,22.52,33.53,44.82,30.78l231.19-40.88c16.09-8.61,25.88-28.47,21.64-47.38C558.94,414.22,545.22,402.46,528.26,400.38Z"/><path class="cls-10" d="M0,663.75q11.9-63.57,20.05-117-5.07,2-10.13,4.07,2.09-18,5.95-42.19Q61.14,492.1,119,480.53a422,422,0,0,0-7.71,41.87,398.18,398.18,0,0,0-57.62,12.78L50.35,559q20.16-6.84,37.9-11.24-4.29,18.51-7,30.52a277.08,277.08,0,0,0-34.93,8.26q-2.64,16.76-5,30.74Q69,608.77,99.6,602.39q-5,21.58-7.38,38.23Q48.92,647,0,663.75Z"/><path class="cls-10" d="M164.49,574A280.94,280.94,0,0,0,107,589.45q1.88-14.3,4.79-33.22,38.77-10.69,91.09-16.86-2.66,14.71-4.54,29.7-28.94,37.08-50.68,60.19,26-6.85,48.2-10.53-3.34,16.51-5,28.85-41.52,6-95.11,18.4a138.1,138.1,0,0,1,4.19-24.91A677,677,0,0,0,164.49,574Z"/><path class="cls-5" d="M287.57,538.24q-8.18,32.19-12.26,46.53L254.8,595.88q3.74-21.15-3.23-26.74a4.7,4.7,0,0,0-3.44-.64q-13,4.44-18.92,28-5.88,31.11,4.3,32,11.46-.79,16.13-17.28l19.64-9.4q-3.79,22.67-17.71,37.86-14.69,16.13-27.45,14T208,632.63q-3.33-19,3-44.06t19.61-41.26q13.44-16.24,26.28-14.16t16.56,17c.48-2.91,1-5.81,1.65-8.67A90.62,90.62,0,0,0,287.57,538.24Z"/><path class="cls-5" d="M271.79,660.77q11.47-61.38,18.5-112a76.2,76.2,0,0,1,21.8-8.82q-7.45,55.71-13,89.19a244.22,244.22,0,0,1,26.31-8.39,192.31,192.31,0,0,0-5,27.25Q303.7,649.8,271.79,660.77Z"/><path class="cls-5" d="M397.15,552.87q5.28,17.85-1,41.22t-21.41,38.29q-15.3,15-28.92,13t-17.57-19.65q-3.94-17.7,2.29-41t20.12-38.43q14-15.12,27.63-13.19T397.15,552.87Zm-23.69,13.76a5.63,5.63,0,0,0-3.66-.57q-13.77,4.16-19.64,26-5.67,29,5.16,29.83,9.9-.72,17.42-10.9,5.88-8.75,7.46-23.44Q381,571.87,373.46,566.63Z"/><path class="cls-5" d="M460.35,604.92q-5.88,23.3-20.43,38.28t-27.39,13q-12.76-1.93-16.34-19.64-3.45-17.21,11.4-86.33l24.23-9.46q-19,83.53-8.75,84.39,4.67.36,11.83-9.82,4.8-6.75,11.33-67l25.31-10.54Q466.16,582.84,460.35,604.92Z"/><path class="cls-5" d="M462.93,667.69q8.58-47.7,14.95-90-4.8,3.33-10.06,7,4-23.72,6.46-48.62,90.33-61,97.52,6.55Q573.46,628.85,462.93,667.69Zm33.4-40.6q36.9-21.86,40.14-61.82.74-20.1-29.35-5.16Q501.32,601.17,496.33,627.09Z"/></g></g></svg>