<svg xmlns="http://www.w3.org/2000/svg" xmlns:xlink="http://www.w3.org/1999/xlink" viewBox="0 0 729.21 591.05"><defs><style>.cls-1{fill:none;}.cls-2,.cls-7{fill:#c6dd7f;}.cls-2,.cls-3,.cls-4{mix-blend-mode:multiply;}.cls-3,.cls-5{fill:#e9ddb7;}.cls-4,.cls-6{fill:#a6d0e4;}.cls-16,.cls-8{stroke:#333;}.cls-16,.cls-8,.cls-9{stroke-miterlimit:10;stroke-width:2px;}.cls-8{fill:url(#Alyssa);}.cls-12,.cls-9{fill:#333;}.cls-9{stroke:#fff;}.cls-10{fill:#fefefe;}.cls-11{fill:#bebebe;}.cls-13{fill:#f8f8f8;}.cls-14{fill:#f3f3f3;}.cls-15,.cls-16{fill:#fff;}</style><pattern id="Alyssa" data-name="Alyssa" width="144.13" height="138.36" patternUnits="userSpaceOnUse" viewBox="0 0 144.13 138.36"><rect class="cls-1" width="144.13" height="138.36"/><path class="cls-2" d="M211.07,158.52c-11.76-1.38-19.37.35-22.65,3.11-3,2.55-5,5.41-2.25,11.94,2.94,7.09,1.53,14.73-5.53,15.91-6.23,1-10.9-4.85-11.24-12.28-.24-5.18-1.91-8.3-5.54-7.61s-4.63,5.9-3.63,11.76c1.38,8.13,5.53,11.76,6.23,20.23.49,6.06-2.94,13.66-12.46,15-9.3,1.35-15.91-4.33-16.6-10.55-.73-6.59,3.63-10.9,3.11-17.64s-4-10.17-5.87-17.29c-2.77-10.55,1.21-19,7.78-22.66,14.74-8.15,22.83,3.64,36,1.56,10.89-1.73,23.35-18.16,33-19.54,8.23-1.18,13.83,4.66,15,14S221.72,159.78,211.07,158.52Zm-42.19.52a4.15,4.15,0,1,0-4.15,4.15A4.15,4.15,0,0,0,168.88,159Zm49.46-15.39a1.73,1.73,0,1,0-1.73,1.73A1.73,1.73,0,0,0,218.34,143.65Z"/><path class="cls-3" d="M48.83,139.33c0,7.17,4.59,13.82-1,16.34-8.5,3.83-28-14.34-28-36.17,0-12,8.67-19,17.84-19,12.33,0,18,8.17,18,17.5S48.83,131.14,48.83,139.33ZM43.42,134A2.08,2.08,0,1,0,41.35,136,2.07,2.07,0,0,0,43.42,134Z"/><path class="cls-4" d="M123.53,162.83c-7.87,2.74-19.44-15.3-17.67-27,1.24-8.23,7.12-13.19,13.09-14.22,7.52-1.29,12.9,2.6,13.3,7.25.54,6.3-3.63,7.51-4.22,14.95C127.46,150.93,131.72,160,123.53,162.83Zm-3.79-27.51a2.6,2.6,0,1,0-2.59,2.59A2.59,2.59,0,0,0,119.74,135.32Z"/><path class="cls-3" d="M19.39,140.36a2.6,2.6,0,1,1-2.6-2.59A2.59,2.59,0,0,1,19.39,140.36Z"/><path class="cls-4" d="M84.61,132.64c.74,8.1,12.67,7,17.9,14.21,10.52,14.48-1.22,46.37-21.63,46.37-11.74,0-24.21-9.72-24.21-29.22,0-15.83,10.16-21.5,8.25-42.17-1-10.83-12.5-20.34-12.5-34.75C52.42,81.16,56,73.64,64,73.64c7,0,10.82,6,10.82,12.9,0,6.79-5.38,15.74,1.38,19,5.24,2.57,13.21-4.77,19.5-6.75,5.19-1.63,12.38.23,14.75,8.5,2.53,8.88-3.26,14.75-11.6,16.7C92.51,125.5,84,126.2,84.61,132.64Zm-16-30.56a3.29,3.29,0,1,0-3.29,3.29A3.3,3.3,0,0,0,68.63,102.08Zm26,9.7a2.33,2.33,0,1,0-2.33-2.33A2.34,2.34,0,0,0,94.61,111.78Zm-20,59.67a3.29,3.29,0,1,0-3.29,3.28A3.29,3.29,0,0,0,74.63,171.45Z"/><path class="cls-2" d="M66.94,158.52c-11.76-1.38-19.37.35-22.65,3.11-3,2.55-5,5.41-2.25,11.94,2.94,7.09,1.53,14.73-5.53,15.91-6.23,1-10.9-4.85-11.24-12.28-.24-5.18-1.91-8.3-5.54-7.61s-4.63,5.9-3.63,11.76c1.38,8.13,5.54,11.76,6.23,20.23.49,6.06-2.94,13.66-12.45,15C.57,218-6,212.3-6.73,206.08c-.73-6.59,3.63-10.9,3.12-17.64s-4-10.17-5.88-17.29c-2.77-10.55,1.21-19,7.78-22.66,14.74-8.15,22.83,3.64,36,1.56,10.89-1.73,23.35-18.16,33-19.54,8.23-1.18,13.83,4.66,15,14S77.59,159.78,66.94,158.52ZM24.75,159a4.15,4.15,0,1,0-4.15,4.15A4.15,4.15,0,0,0,24.75,159Zm49.46-15.39a1.73,1.73,0,1,0-1.73,1.73A1.73,1.73,0,0,0,74.21,143.65Z"/><path class="cls-4" d="M190.32,112c0,6.22-4.15,10.72-8.65,11.58s-8.31-1.28-13,1.21c-4.84,2.6-7.09,11.07-16.77,11.07-8,0-15.22-7.95-15.22-18.85,0-20.23,13.14-29.22,25.6-29.22C178.91,87.78,190.32,100.4,190.32,112ZM170.61,97.63a3.81,3.81,0,1,0-3.81,3.81A3.81,3.81,0,0,0,170.61,97.63Z"/><path class="cls-2" d="M211.07,20.16c-11.76-1.38-19.37.34-22.65,3.11-3,2.55-5,5.41-2.25,11.93,2.94,7.09,1.53,14.74-5.53,15.91-6.23,1-10.9-4.84-11.24-12.27-.24-5.19-1.91-8.3-5.54-7.61s-4.63,5.9-3.63,11.76c1.38,8.12,5.53,11.76,6.23,20.23.49,6-2.94,13.66-12.46,15-9.3,1.36-15.91-4.32-16.6-10.54-.73-6.59,3.63-10.9,3.11-17.64s-4-10.17-5.87-17.3c-2.77-10.55,1.21-19,7.78-22.65,14.74-8.15,22.83,3.64,36,1.55,10.89-1.72,23.35-18.15,33-19.54,8.23-1.17,13.83,4.67,15,14S221.72,21.41,211.07,20.16Zm-42.19.52a4.15,4.15,0,1,0-4.15,4.15A4.15,4.15,0,0,0,168.88,20.68ZM218.34,5.29A1.73,1.73,0,1,0,216.61,7,1.73,1.73,0,0,0,218.34,5.29Z"/><path class="cls-4" d="M31.83,83.64c-13.95,2-21.16-13.33-17.66-20.33,3.66-7.34,12.12-4.17,19.5-4.17,9.66,0,16.36-7.57,20.41-2.25C58.33,62.47,49.07,81.18,31.83,83.64Zm.53-17.48a2.25,2.25,0,1,0-2.25,2.25A2.25,2.25,0,0,0,32.36,66.16Z"/><path class="cls-3" d="M48.83,1c0,7.17,4.59,13.82-1,16.33-8.5,3.84-28-14.33-28-36.16,0-12,8.67-19,17.84-19,12.33,0,18,8.16,18,17.5S48.83-7.22,48.83,1ZM43.42-4.4a2.07,2.07,0,0,0-2.07-2.07A2.08,2.08,0,0,0,39.27-4.4a2.08,2.08,0,0,0,2.08,2.08A2.08,2.08,0,0,0,43.42-4.4Z"/><path class="cls-4" d="M46.19,112c0,6.22-4.15,10.72-8.64,11.58s-8.32-1.28-13,1.21c-4.84,2.6-7.09,11.07-16.77,11.07-8,0-15.22-7.95-15.22-18.85,0-20.23,13.15-29.22,25.6-29.22C34.78,87.78,46.19,100.4,46.19,112ZM26.48,97.63a3.81,3.81,0,1,0-3.81,3.81A3.81,3.81,0,0,0,26.48,97.63Z"/><path class="cls-2" d="M45.5,88.3a2.42,2.42,0,1,1-2.42-2.43A2.42,2.42,0,0,1,45.5,88.3Z"/><path class="cls-4" d="M129.2,69.79c-3.19,4.68,1,10.72-1.38,15.22s-6.75,5-9.86,2.59c-3.64-2.82-3.41-6.64-8.3-8.82-5.53-2.46-18,2.25-19.72-7.26-.87-4.81,2.38-8.57,7.27-9.68,6.05-1.39,9.35-.18,15.39-3.12s11.24-9,22.13-12.1c10.41-3,16.08,1.55,16.61,5.88C152.37,61,134.21,62.45,129.2,69.79ZM127,62.35a2.25,2.25,0,1,0-2.25,2.25A2.24,2.24,0,0,0,127,62.35Z"/><path class="cls-3" d="M156.17,109c0,17.17-14.5,25.5-27,22.83-10.27-2.19-12.84-17.33-16.67-26.16-3.71-8.56-8.83-22.5-20.17-22.5-11.19,0-12.83,14.5-23.66,14.5-11,0-24.5-15.67-24.5-39.67C44.17,43.3,54,26.52,65,27.3,76.67,28.14,69.5,47,80.33,47c9.5,0,7.86-16.26,9.17-23.33,1.67-9,6.83-14.17,18.5-13.17,14.44,1.24,22.33,13.5,18.87,23.35-4,11.45-23.87,17.32-21.54,30.49,1.35,7.59,13,12,26,16.16C145.86,85.13,156.17,91.8,156.17,109Zm-45-75.84a3.29,3.29,0,1,0,3.29-3.29A3.29,3.29,0,0,0,111.21,33.13ZM64.52,58a1.73,1.73,0,1,0-1.73,1.73A1.73,1.73,0,0,0,64.52,58ZM82,68.75a3.81,3.81,0,1,0-3.81,3.81A3.8,3.8,0,0,0,82,68.75Zm19.89-15.56a1.56,1.56,0,1,0-1.56,1.56A1.56,1.56,0,0,0,101.88,53.19Zm29.64,54.69a3.18,3.18,0,1,0-3.17,3.18A3.17,3.17,0,0,0,131.52,107.88Z"/><path class="cls-4" d="M123.53,24.47c-7.87,2.73-19.44-15.3-17.67-27C107.1-10.78,113-15.74,119-16.77c7.52-1.3,12.9,2.6,13.3,7.24.54,6.31-3.63,7.52-4.22,15C127.46,12.57,131.72,21.62,123.53,24.47ZM119.74-3a2.59,2.59,0,0,0-2.59-2.6,2.59,2.59,0,0,0-2.6,2.6,2.59,2.59,0,0,0,2.6,2.59A2.59,2.59,0,0,0,119.74-3Z"/><path class="cls-3" d="M19.39,2a2.6,2.6,0,1,1-2.6-2.59A2.59,2.59,0,0,1,19.39,2Z"/><path class="cls-3" d="M153.38,88.74c0-8.41-5.07-15.23-11.34-15.23s-11.33,6.82-11.33,15.23,5.07,12.44,11.33,12.44S153.38,97.15,153.38,88.74Z"/><path class="cls-4" d="M84.61-5.72c.74,8.1,12.67,7,17.9,14.21C113,23,101.29,54.86,80.88,54.86c-11.74,0-24.21-9.72-24.21-29.22,0-15.84,10.16-21.5,8.25-42.17-1-10.83-12.5-20.34-12.5-34.75C52.42-57.2,56-64.73,64-64.73c7,0,10.82,6,10.82,12.9s-5.38,15.75,1.38,19c5.24,2.57,13.21-4.77,19.5-6.75,5.19-1.63,12.38.23,14.75,8.5,2.53,8.88-3.26,14.75-11.6,16.7C92.51-12.86,84-12.16,84.61-5.72Zm-16-30.56a3.29,3.29,0,0,0-3.29-3.29,3.29,3.29,0,0,0-3.29,3.29A3.29,3.29,0,0,0,65.34-33,3.29,3.29,0,0,0,68.63-36.28Zm26,9.69a2.33,2.33,0,0,0,2.33-2.33,2.33,2.33,0,0,0-2.33-2.32,2.32,2.32,0,0,0-2.33,2.32A2.33,2.33,0,0,0,94.61-26.59Zm-20,59.68a3.29,3.29,0,1,0-3.29,3.28A3.29,3.29,0,0,0,74.63,33.09Z"/><path class="cls-2" d="M66.94,20.16c-11.76-1.38-19.37.34-22.65,3.11-3,2.55-5,5.41-2.25,11.93,2.94,7.09,1.53,14.74-5.53,15.91-6.23,1-10.9-4.84-11.24-12.27-.24-5.19-1.91-8.3-5.54-7.61S15.1,37.13,16.1,43c1.38,8.12,5.54,11.76,6.23,20.23.49,6-2.94,13.66-12.45,15C.57,79.62-6,73.94-6.73,67.72c-.73-6.59,3.63-10.9,3.12-17.64s-4-10.17-5.88-17.3c-2.77-10.55,1.21-19,7.78-22.65C13,2,21.12,13.77,34.26,11.68,45.15,10,57.61-6.47,67.29-7.86c8.23-1.17,13.83,4.67,15,14S77.59,21.41,66.94,20.16Zm-42.19.52a4.15,4.15,0,1,0-4.15,4.15A4.15,4.15,0,0,0,24.75,20.68ZM74.21,5.29A1.73,1.73,0,1,0,72.48,7,1.73,1.73,0,0,0,74.21,5.29Z"/><path class="cls-2" d="M130.24,42.47a1.39,1.39,0,1,1-1.39-1.39A1.38,1.38,0,0,1,130.24,42.47Z"/><path class="cls-5" d="M135.77,4.08a2.25,2.25,0,1,1-2.25-2.25A2.25,2.25,0,0,1,135.77,4.08Z"/><path class="cls-6" d="M52.24,27.25A1.21,1.21,0,1,1,51,26,1.21,1.21,0,0,1,52.24,27.25Z"/><path class="cls-6" d="M48.61,95.73a1.38,1.38,0,1,1-1.38-1.38A1.38,1.38,0,0,1,48.61,95.73Z"/><path class="cls-3" d="M133.18,73.77A1.21,1.21,0,1,1,132,72.56,1.21,1.21,0,0,1,133.18,73.77Z"/><path class="cls-7" d="M95.89,91.69a3.41,3.41,0,1,1-3.41-3.4A3.41,3.41,0,0,1,95.89,91.69Z"/><path class="cls-3" d="M100.87,131.55a2.1,2.1,0,1,1-2.1-2.1A2.1,2.1,0,0,1,100.87,131.55Z"/><path class="cls-3" d="M62.07,125.25a1.58,1.58,0,1,1-1.58-1.57A1.58,1.58,0,0,1,62.07,125.25Z"/><circle class="cls-7" cx="133.12" cy="11.21" r="2.62"/><circle class="cls-4" cx="123.15" cy="46.07" r="2.36"/><path class="cls-5" d="M27.72,52.63A2.62,2.62,0,1,1,25.1,50,2.62,2.62,0,0,1,27.72,52.63Z"/><path class="cls-4" d="M22.74,45.55a1.31,1.31,0,1,1-1.31-1.31A1.31,1.31,0,0,1,22.74,45.55Z"/><path class="cls-3" d="M87,97.46a1.58,1.58,0,1,1-1.58-1.57A1.57,1.57,0,0,1,87,97.46Z"/><path class="cls-4" d="M-14.93,69.79c-3.19,4.68,1,10.72-1.38,15.22s-6.75,5-9.86,2.59c-3.64-2.82-3.41-6.64-8.3-8.82-5.53-2.46-18,2.25-19.72-7.26-.87-4.81,2.38-8.57,7.27-9.68,6.05-1.39,9.35-.18,15.39-3.12s11.24-9,22.13-12.1C1,43.64,6.68,48.17,7.21,52.5,8.24,61-9.92,62.45-14.93,69.79Zm-2.25-7.44a2.24,2.24,0,0,0-2.25-2.24,2.24,2.24,0,0,0-2.24,2.24,2.24,2.24,0,0,0,2.24,2.25A2.24,2.24,0,0,0-17.18,62.35Z"/><path class="cls-3" d="M12,109c0,17.17-14.5,25.5-27,22.83-10.27-2.19-12.84-17.33-16.67-26.16-3.71-8.56-8.83-22.5-20.17-22.5s-12.83,14.5-23.66,14.5C-86.46,97.64-100,82-100,58c0-14.67,9.8-31.45,20.83-30.67C-67.46,28.14-74.63,47-63.8,47c9.5,0,7.86-16.26,9.17-23.33,1.67-9,6.83-14.17,18.5-13.17C-21.69,11.71-13.8,24-17.26,33.82c-4,11.45-23.87,17.32-21.54,30.49,1.35,7.59,13,12,26,16.16C1.73,85.13,12,91.8,12,109ZM-32.91,33.13a3.28,3.28,0,0,0,3.28,3.28,3.29,3.29,0,0,0,3.29-3.28,3.29,3.29,0,0,0-3.29-3.29A3.28,3.28,0,0,0-32.91,33.13ZM-79.61,58a1.73,1.73,0,0,0-1.73-1.73A1.74,1.74,0,0,0-83.07,58a1.73,1.73,0,0,0,1.73,1.73A1.72,1.72,0,0,0-79.61,58Zm17.47,10.72A3.8,3.8,0,0,0-65.95,65a3.8,3.8,0,0,0-3.8,3.8,3.81,3.81,0,0,0,3.8,3.81A3.81,3.81,0,0,0-62.14,68.75Zm19.89-15.56a1.56,1.56,0,0,0-1.56-1.56,1.56,1.56,0,0,0-1.56,1.56,1.56,1.56,0,0,0,1.56,1.56A1.56,1.56,0,0,0-42.25,53.19Zm29.64,54.69a3.17,3.17,0,0,0-3.17-3.17A3.17,3.17,0,0,0-19,107.88a3.18,3.18,0,0,0,3.18,3.18A3.17,3.17,0,0,0-12.61,107.88Z"/><path class="cls-3" d="M9.26,88.74c0-8.41-5.08-15.23-11.34-15.23s-11.34,6.82-11.34,15.23,5.07,12.44,11.34,12.44S9.26,97.15,9.26,88.74Z"/></pattern></defs><title>Element 7</title><g id="Ebene_2" data-name="Ebene 2"><g id="Ebene_1-2" data-name="Ebene 1"><path class="cls-8" d="M497,585.85A300.63,300.63,0,0,0,604.36,410.36L591.94,415C493,452.34,395.08,492.09,297.13,531.85q-66.82,27.12-133.76,54Z"/><text/><path class="cls-8" d="M526.48,75.41A299.52,299.52,0,0,0,328.46,1C164.32,1,30.9,132.5,27.77,295.9,47.43,286.31,491.07,88.93,526.48,75.41Z"/><path class="cls-8" d="M498.53,103C395.07,143,42.7,303.58,4.2,321.42a5.49,5.49,0,0,0-3.2,5v0A299.69,299.69,0,0,0,29.36,454.06a5.58,5.58,0,0,0,7,2.85q28.6-11,57.13-22.16c106.48-41.59,212.28-84.87,318-128.41Q497.33,271,583.15,235.65a5.58,5.58,0,0,0,3.13-7,301.17,301.17,0,0,0-82-124.63A5.52,5.52,0,0,0,498.53,103Z"/><path class="cls-8" d="M156.47,572.05c12-4.75,23.89-9.56,35.83-14.34,98-39.29,195.65-79.59,293.82-118.52q70.25-27.85,141-54.48A302.37,302.37,0,0,0,618.62,237q-20.49,8.4-41,16.84C470.52,298,363.55,342.39,256.13,385.71q-81,32.66-162.45,64.28-15.54,6-31.12,11.9A302.24,302.24,0,0,0,156.47,572.05Z"/><polygon class="cls-9" points="432.86 101.18 194.38 101.18 75.15 307.71 194.38 514.23 432.86 514.23 552.09 307.71 432.86 101.18"/><path class="cls-10" d="M193.87,367.27c-7.47-24.91-2.85-44.14,15.25-60.44,11.68-10.52,23.94-20.22,35.82-30.48a78.27,78.27,0,0,0,8.9-9.36c9.84-11.82,9.34-16.74-2.32-25.36-4.69-3.7-9-8.51-14.15-10.89-21.87-10-43.78-8.06-65.48,1.38-5.45,2.38-10.94,4.86-16.6,6.36-2.61.69-6.73.22-8.25-1.68-1.38-1.74-.79-6.33,0-9.27a32,32,0,0,1,4.86-9.68c6.53-9.11,13.33-18,20-26.93,18.42-16.94,39.4-16,60.9-11,26.59,6.15,51.43,17.68,75.16,32.3,4.53,2.8,7.88,2.85,12.45,0,26.26-16.08,53.7-28.56,83.41-34,19.06-3.48,37-1.57,52.68,12.59,3.35,4.28,6.95,8.33,10,12.87,5.31,8,11,15.83,15.18,24.54,3.52,7.3,0,12-7.2,10.36a71.81,71.81,0,0,1-15.26-5.27c-13.58-6.5-27.67-10.19-42.37-9-15.94,1.24-31.2,5.27-42.84,19.17-7.85,7.1-8.89,11.58-2,19.69,8,9.43,17.15,17.77,26.16,26.08,6.86,6.33,14.54,11.52,21.42,17.82,18.63,17,23.05,38.24,13.69,63.67-1.83,3.06-3.55,6.21-5.51,9.15-7.32,11-13.68,23.06-22.28,32.56-28.6,31.58-63.52,43.12-103.17,39.84-44.05-3.65-76.44-27.81-99.89-69C199.52,378.08,196.75,372.63,193.87,367.27Zm173.64,10.05c2.25-10.78.63-15.8-7.69-21.63a48,48,0,0,0-11-5.81c-23.16-8.42-46.44-8.53-69.51.21a45.79,45.79,0,0,0-14.48,9.1c-4.87,4.52-7.21,10.82-3.82,18.1-.44,10.41,4.32,18.19,10.69,24.59,19.74,19.83,56.49,22.83,78.41,5.92C359.4,400.65,367.48,391.66,367.51,377.32Z"/><path class="cls-11" d="M193.87,367.27c2.88,5.36,5.65,10.81,8.65,16.08,23.45,41.16,55.84,65.32,99.89,69,39.65,3.28,74.57-8.26,103.17-39.84,8.6-9.5,15-21.59,22.28-32.56,2-2.94,3.68-6.09,5.51-9.15-2.13,5.79-3.64,12-6.47,17.3-20.8,38.95-49.81,67.14-87.46,83.68-16,7.05-32.22,7.69-48.45.74-40.13-17.19-70.77-46.89-91.61-89.28C197,378.27,195.68,372.6,193.87,367.27Z"/><path class="cls-11" d="M374.06,243.51c11.64-13.9,26.9-17.93,42.84-19.17,14.7-1.15,28.79,2.54,42.37,9a71.81,71.81,0,0,0,15.26,5.27c7.16,1.61,10.72-3.06,7.2-10.36-4.21-8.71-9.87-16.56-15.18-24.54-3-4.54-6.63-8.59-10-12.87,24.94,17.3,42.56,41.35,52.09,72.65.88,2.87.82,8.14-.69,9.41-2.08,1.74-6.42,1.91-9,.66a199.57,199.57,0,0,1-21-12.28c-10.36-6.7-20.47-13.93-30.85-20.6-19.63-12.63-39.75-14.85-60.46-3.11C382.64,239.91,378.29,241.56,374.06,243.51Z"/><path class="cls-11" d="M172,190.92c-6.7,9-13.5,17.82-20,26.93a32,32,0,0,0-4.86,9.68c-.83,2.94-1.42,7.53,0,9.27,1.52,1.9,5.64,2.37,8.25,1.68,5.66-1.5,11.15-4,16.6-6.36,21.7-9.44,43.61-11.41,65.48-1.38,5.17,2.38,9.46,7.19,14.15,10.89-4.73-2-9.58-3.72-14.17-6.07-16.69-8.52-33.27-7.61-49.24,1.62-12.86,7.43-25.08,16.26-37.7,24.23-7.07,4.47-14.14,9.14-21.65,12.49-7.8,3.48-12-.85-9-9.59,4.06-11.64,8.84-23.23,14.92-33.64C144.27,214.3,156.57,200.61,172,190.92Z"/><path class="cls-12" d="M261,377.29c-3.39-7.28-1.05-13.58,3.82-18.1a45.79,45.79,0,0,1,14.48-9.1c23.07-8.74,46.35-8.63,69.51-.21a48,48,0,0,1,11,5.81c8.32,5.83,9.94,10.85,7.69,21.63C343.61,414.2,284.54,413.79,261,377.29Zm53.38-15.39c5.2-1,10.2-1.79,15.08-3.1,1.48-.39,2.65-2.26,4-3.45-1.17-1.28-2.15-3.2-3.53-3.72a43.69,43.69,0,0,0-31.22,0c-1.42.52-2.44,2.4-3.64,3.65,1.28,1.21,2.42,3.12,3.87,3.5C304.07,360.09,309.31,360.91,314.42,361.9Z"/><path class="cls-11" d="M261,377.29c23.5,36.5,82.57,36.91,106.47,0,0,14.34-8.11,23.33-17.37,30.48-21.92,16.91-58.67,13.91-78.41-5.92C265.36,395.48,260.6,387.7,261,377.29Z"/><path class="cls-13" d="M314.42,361.9c-5.11-1-10.35-1.81-15.48-3.15-1.45-.38-2.59-2.29-3.87-3.5,1.2-1.25,2.22-3.13,3.64-3.65a43.69,43.69,0,0,1,31.22,0c1.38.52,2.36,2.44,3.53,3.72-1.31,1.19-2.48,3.06-4,3.45C324.62,360.11,319.62,360.88,314.42,361.9Z"/><ellipse class="cls-14" cx="314.26" cy="355.32" rx="19.2" ry="6.58"/><circle class="cls-15" cx="213.22" cy="252.76" r="6.88"/><circle class="cls-15" cx="420.97" cy="252.76" r="6.88"/><path class="cls-16" d="M692.26,488.47c.13-1.69.19-3.37.17-5.05a57.48,57.48,0,0,0-58.19-56.58,56.78,56.78,0,0,0-30,9c-6-32.58-36.3-56.61-71.32-54.19-33.33,2.12-59.4,26.88-63.29,58.25a55.09,55.09,0,0,0-18.6-3,57.48,57.48,0,0,0-56.6,58.19c0,.68.05,1.34.13,2.07-16,4.59-38.86,14.18-38.34,46.95.35,24.35,20.89,45,48.47,45.89l288.17-5.36c21.17-7.36,36.83-29.57,35.3-53.32C726.83,511.12,712.44,494.24,692.26,488.47Z"/></g></g></svg>