<svg id="Ebene_1" data-name="Ebene 1" xmlns="http://www.w3.org/2000/svg" xmlns:xlink="http://www.w3.org/1999/xlink" viewBox="0 0 560.85 737.38"><defs><style>.cls-1,.cls-10{fill:#0bce3d;}.cls-1{stroke:#333;stroke-width:4px;}.cls-1,.cls-11,.cls-2{stroke-miterlimit:10;}.cls-11,.cls-2,.cls-5{fill:#333;}.cls-11,.cls-2{stroke:#fff;}.cls-2{stroke-width:2px;}.cls-3{fill:#fefefe;}.cls-4{fill:#bebebe;}.cls-6{fill:#f8f8f8;}.cls-7{fill:#f3f3f3;}.cls-8{fill:#fff;}.cls-9{fill:url(#linear-gradient);}</style><linearGradient id="linear-gradient" x1="1135.56" y1="360.36" x2="1131.41" y2="575.32" gradientTransform="translate(-249.98 82.59) rotate(-12.36)" gradientUnits="userSpaceOnUse"><stop offset="0" stop-color="#fff"/><stop offset="1" stop-color="#ccc"/></linearGradient></defs><title>v1</title><path class="cls-1" d="M1098.93,632.89a236.33,236.33,0,0,0,84.43-137.95c-3.25,1.22-6.51,2.43-9.76,3.66-77.75,29.34-154.76,60.59-231.76,91.84q-52.55,21.33-105.16,42.45Z" transform="translate(-687.54 -124)"/><text x="-687.54" y="-124"/><path class="cls-1" d="M1122.14,231.61a235.49,235.49,0,0,0-155.67-58.49C837.42,173.12,732.54,276.5,730.08,405,745.54,397.41,1094.3,242.25,1122.14,231.61Z" transform="translate(-687.54 -124)"/><path class="cls-1" d="M1100.17,253.3C1018.83,284.78,741.82,411,711.55,425a4.36,4.36,0,0,0-2.52,3.91v0a235.5,235.5,0,0,0,22.3,100.34,4.38,4.38,0,0,0,5.53,2.24q22.49-8.62,44.91-17.42c83.71-32.69,166.89-66.72,250-100.95q67.47-27.8,134.94-55.58a4.37,4.37,0,0,0,2.46-5.48,236.77,236.77,0,0,0-64.49-98A4.32,4.32,0,0,0,1100.17,253.3Z" transform="translate(-687.54 -124)"/><path class="cls-1" d="M831.26,622c9.4-3.73,18.78-7.51,28.16-11.27,77.07-30.89,153.81-62.57,231-93.17q55.21-21.9,110.82-42.83a237.78,237.78,0,0,0-6.65-116.09q-16.11,6.6-32.22,13.24c-84.21,34.65-168.3,69.58-252.76,103.63q-63.69,25.68-127.71,50.54-12.21,4.73-24.46,9.35A237.36,237.36,0,0,0,831.26,622Z" transform="translate(-687.54 -124)"/><polygon class="cls-2" points="361 127.88 173.53 127.88 79.79 290.23 173.53 452.59 361 452.59 454.74 290.23 361 127.88"/><path class="cls-3" d="M860.66,461.06c-5.88-19.58-2.24-34.7,12-47.51,9.18-8.27,18.82-15.9,28.16-24a60.94,60.94,0,0,0,7-7.35c7.74-9.3,7.35-13.16-1.82-20-3.69-2.9-7.06-6.69-11.12-8.55-17.2-7.89-34.42-6.34-51.48,1.08a92.92,92.92,0,0,1-13,5c-2.05.55-5.29.17-6.48-1.32s-.63-5,0-7.28a25,25,0,0,1,3.83-7.62c5.13-7.16,10.48-14.13,15.74-21.17,14.48-13.31,31-12.54,47.88-8.63,20.91,4.84,40.43,13.9,59.08,25.4,3.57,2.19,6.2,2.23,9.79,0,20.64-12.64,42.22-22.45,65.58-26.72,15-2.75,29.07-1.24,41.41,9.89,2.63,3.36,5.46,6.55,7.84,10.12,4.18,6.27,8.63,12.44,11.94,19.29,2.77,5.74,0,9.41-5.67,8.14a56,56,0,0,1-12-4.14c-10.68-5.11-21.75-8-33.31-7.11-12.53,1-24.52,4.14-33.67,15.07-6.18,5.59-7,9.11-1.54,15.49,6.32,7.41,13.48,14,20.56,20.5,5.39,5,11.43,9.06,16.84,14,14.64,13.38,18.12,30.06,10.76,50.05-1.44,2.41-2.79,4.88-4.33,7.2-5.76,8.62-10.76,18.13-17.52,25.59-22.48,24.83-49.93,33.9-81.1,31.32-34.64-2.87-60.09-21.87-78.53-54.22C865.1,469.56,862.92,465.28,860.66,461.06ZM997.17,469c1.77-8.48.49-12.42-6-17a37.44,37.44,0,0,0-8.63-4.57c-18.2-6.63-36.5-6.7-54.64.16a35.77,35.77,0,0,0-11.38,7.16c-3.83,3.55-5.67,8.5-3,14.23-.35,8.18,3.39,14.29,8.4,19.32,15.51,15.6,44.41,18,61.64,4.66C990.79,487.3,997.14,480.23,997.17,469Z" transform="translate(-687.54 -124)"/><path class="cls-4" d="M860.66,461.06c2.26,4.22,4.44,8.5,6.8,12.64,18.44,32.35,43.89,51.35,78.53,54.22,31.17,2.58,58.62-6.49,81.1-31.32,6.76-7.46,11.76-17,17.52-25.59,1.54-2.32,2.89-4.79,4.33-7.2-1.67,4.55-2.86,9.43-5.09,13.6-16.35,30.62-39.16,52.78-68.75,65.79-12.6,5.54-25.33,6-38.09.58-31.55-13.52-55.64-36.86-72-70.19C863.08,469.71,862.08,465.25,860.66,461.06Z" transform="translate(-687.54 -124)"/><path class="cls-4" d="M1002.32,363.76c9.15-10.93,21.14-14.09,33.67-15.07,11.56-.9,22.63,2,33.31,7.11a56,56,0,0,0,12,4.14c5.64,1.27,8.44-2.4,5.67-8.14-3.31-6.85-7.76-13-11.94-19.29-2.38-3.57-5.21-6.76-7.84-10.12,19.6,13.6,33.46,32.5,41,57.12.69,2.25.65,6.39-.54,7.39-1.64,1.37-5,1.5-7.08.52a157.3,157.3,0,0,1-16.47-9.65c-8.15-5.27-16.09-10.95-24.25-16.2-15.43-9.92-31.25-11.68-47.53-2.45C1009.06,360.94,1005.64,362.23,1002.32,363.76Z" transform="translate(-687.54 -124)"/><path class="cls-4" d="M843.44,322.42c-5.26,7-10.61,14-15.74,21.17a25,25,0,0,0-3.83,7.62c-.65,2.3-1.11,5.91,0,7.28s4.43,1.87,6.48,1.32a92.92,92.92,0,0,0,13-5c17.06-7.42,34.28-9,51.48-1.08,4.06,1.86,7.43,5.65,11.12,8.55-3.72-1.57-7.53-2.92-11.14-4.76-13.12-6.7-26.15-6-38.71,1.27-10.11,5.84-19.71,12.78-29.63,19-5.57,3.51-11.13,7.18-17,9.81-6.13,2.74-9.44-.66-7.05-7.53a151.79,151.79,0,0,1,11.73-26.45C821.67,340.8,831.34,330,843.44,322.42Z" transform="translate(-687.54 -124)"/><path class="cls-5" d="M913.47,468.94c-2.67-5.73-.83-10.68,3-14.23a35.77,35.77,0,0,1,11.38-7.16c18.14-6.86,36.44-6.79,54.64-.16a37.44,37.44,0,0,1,8.63,4.57c6.54,4.58,7.82,8.52,6,17C978.38,498,931.93,497.63,913.47,468.94Zm42-12.1c4.09-.81,8-1.41,11.86-2.44,1.16-.31,2.07-1.77,3.1-2.71-.91-1-1.68-2.52-2.77-2.93a34.42,34.42,0,0,0-24.54,0c-1.12.41-1.92,1.88-2.87,2.87,1,.95,1.91,2.46,3,2.75C947.29,455.42,951.41,456.06,955.43,456.84Z" transform="translate(-687.54 -124)"/><path class="cls-4" d="M913.47,468.94c18.46,28.69,64.91,29,83.7,0,0,11.27-6.38,18.34-13.66,24-17.23,13.3-46.13,10.94-61.64-4.66C916.86,483.23,913.12,477.12,913.47,468.94Z" transform="translate(-687.54 -124)"/><path class="cls-6" d="M955.43,456.84c-4-.78-8.14-1.42-12.17-2.48-1.14-.29-2-1.8-3-2.75.95-1,1.75-2.46,2.87-2.87a34.42,34.42,0,0,1,24.54,0c1.09.41,1.86,1.93,2.77,2.93-1,.94-1.94,2.4-3.1,2.71C963.45,455.43,959.52,456,955.43,456.84Z" transform="translate(-687.54 -124)"/><ellipse class="cls-7" cx="267.77" cy="327.66" rx="15.09" ry="5.18"/><circle class="cls-8" cx="188.33" cy="247.04" r="5.41"/><circle class="cls-8" cx="351.65" cy="247.04" r="5.41"/><path class="cls-8" d="M1031.39,150.54c-2.77.53-5.48,1.17-8.13,1.89-28.66-22.65-70.47-33.22-112.85-25.14S835,160.34,820,191.48A110.7,110.7,0,0,0,808.58,193c-48.44,9.23-79.54,48.8-69.48,88.39S796.58,345.6,845,336.37l222.81-42.48c48.43-9.24,79.54-48.81,69.48-88.39S1079.82,141.31,1031.39,150.54Z" transform="translate(-687.54 -124)"/><path class="cls-9" d="M1073.59,151.72c10.63,9.25,18.37,21,21.79,34.43,10.06,39.59-21,79.16-69.47,88.39L803.09,317a108,108,0,0,1-40.92,0c20.63,18,52.15,26.61,84.11,20.52L1069.1,295c48.43-9.24,79.53-48.81,69.47-88.4C1131.43,178.5,1105.41,158,1073.59,151.72Z" transform="translate(-687.54 -124)"/><path class="cls-5" d="M1033.37,152.67l-8.13,1.92a.51.51,0,0,1-.44-.08h0l-5.63-4.14-5.93-3.83c-2.08-1.17-4.11-2.39-6.22-3.52s-4.31-2.14-6.51-3.14-4.46-1.92-6.74-2.8-4.59-1.7-6.93-2.46-4.72-1.45-7.13-2.05-4.81-1.21-7.27-1.67-4.9-1-7.38-1.3-5-.71-7.47-.9-5-.44-7.53-.5-5-.18-7.54-.11-5,.09-7.54.27-5,.36-7.51.65-5,.64-7.44,1l-7.27,1.37-7.41,1.77-7,2.08c-2.32.77-4.61,1.63-6.92,2.44s-4.5,1.83-6.75,2.74-4.35,2-6.53,3.07-4.19,2.26-6.29,3.38c-1.06.55-2,1.23-3,1.83l-3,1.84c-2,1.25-3.85,2.63-5.79,3.94s-3.65,2.82-5.49,4.22-3.44,3-5.17,4.47-3.23,3.15-4.86,4.71-3,3.28-4.54,4.91-2.77,3.42-4.17,5.13-2.52,3.55-3.78,5.32l-3.43,5.48-3,5.64-.08.15a4,4,0,0,1-3.24,1.92A99,99,0,0,0,810.36,198l-3.06.61c-1,.2-1.91.45-2.87.67-1.89.42-3.8,1-5.71,1.56a98.32,98.32,0,0,0-21.38,9.48c-13.21,7.87-23.76,18.9-30.08,31.39A58.49,58.49,0,0,0,742,281.41c2.86,13.25,10.51,25.68,21.75,35.32A85.65,85.65,0,0,0,782.91,329a92.49,92.49,0,0,0,11,4.27c1.87.64,3.82,1.12,5.73,1.66s3.89.95,5.88,1.29a96.06,96.06,0,0,0,12,1.57,100.85,100.85,0,0,0,12.17.17,113.29,113.29,0,0,0,12.09-1.24c3.93-.68,8-1.56,12.11-2.4q24.43-5.08,48.9-10l49-9.71,49-9.64c16.33-3.2,32.65-6.46,49-9.56L1062,293l6.13-1.18c1.76-.37,4.11-.82,5.88-1.29l2.77-.71c.93-.26,1.86-.56,2.79-.84,1.89-.53,3.7-1.22,5.54-1.84a102.57,102.57,0,0,0,10.54-4.64A85.64,85.64,0,0,0,1114,269.9a72.42,72.42,0,0,0,7.45-7.75c1.17-1.34,2.2-2.76,3.28-4.15s2-2.84,2.89-4.33a62,62,0,0,0,9.48-38.23,60.17,60.17,0,0,0-1.69-9.8c-.39-1.72-1-3.19-1.42-4.79-.63-1.56-1.14-3.16-1.89-4.69a66.4,66.4,0,0,0-11.37-17.41c-9.56-10.67-23.09-19-38.51-23.65a98.51,98.51,0,0,0-11.84-2.78c-2-.39-4.06-.6-6.09-.88s-4.11-.4-6.18-.46a109.65,109.65,0,0,0-24.79,1.7Zm-.8-1.36a111.44,111.44,0,0,1,49.74,1.7c15.92,4.28,30.39,12.22,41.21,22.91a72.31,72.31,0,0,1,13.25,17.8c.9,1.59,1.57,3.26,2.35,4.9s1.4,3.45,1.88,5.07a65.11,65.11,0,0,1,2.51,10.4,63.89,63.89,0,0,1-8.55,42c-7.6,13.14-19.92,24.47-34.88,32.39a112.1,112.1,0,0,1-11.68,5.28,106.42,106.42,0,0,1-12.54,3.86c-1.11.3-2.1.49-3.12.71l-1.53.32-.76.17-.89.17-6.13,1.17-12.27,2.33c-16.35,3.14-32.75,6.11-49.13,9.15l-49.14,9.08-49.16,9q-24.6,4.41-49.24,8.7c-4.1.72-8.17,1.46-12.48,2.08a120.49,120.49,0,0,1-12.86.93,111.79,111.79,0,0,1-12.83-.53,102.33,102.33,0,0,1-12.54-2c-2.06-.42-4.07-1-6.09-1.52s-4-1.17-5.91-1.89a95.16,95.16,0,0,1-11.24-4.75,87.76,87.76,0,0,1-19.51-13,69.87,69.87,0,0,1-22.41-36.51,64.44,64.44,0,0,1-1.37-20.82,68.52,68.52,0,0,1,5.61-20.54c6-13.28,16.54-25.29,30.24-34.22a99.38,99.38,0,0,1,22.56-10.92c2.05-.64,4.05-1.34,6.2-1.88,1-.28,2.14-.6,3.16-.83l3-.69A109.25,109.25,0,0,1,821,189.43l-3.32,2.07,3.08-6.05c1.18-2,2.32-3.94,3.54-5.89s2.65-3.81,4-5.69,2.91-3.68,4.42-5.49,3.16-3.54,4.82-5.26,3.4-3.39,5.21-5,3.67-3.2,5.6-4.72,3.89-3,5.93-4.43,4.1-2.81,6.24-4.12,4.3-2.6,6.55-3.78,4.5-2.35,6.82-3.42,4.66-2.11,7.05-3.06,4.8-1.87,7.25-2.71,4.94-1.56,7.44-2.29l7.66-1.93,7.5-1.48.32-.06.25,0,.48-.07,1-.14,1.94-.27,3.88-.54c2.6-.29,5.21-.48,7.81-.72s5.21-.21,7.81-.32,5.21,0,7.8.07,5.18.32,7.76.47,5.12.58,7.68.86c1.29.13,2.54.39,3.8.59l3.78.64c2.52.44,5,1.08,7.46,1.61s4.87,1.32,7.3,2,4.74,1.58,7.13,2.33,4.62,1.77,6.94,2.65,4.47,2,6.71,3,4.31,2.22,6.46,3.33l6.22,3.61,6,3.91,5.62,4.21-.46-.09,8.14-1.87Z" transform="translate(-687.54 -124)"/><path class="cls-5" d="M808.58,191.37l.8-.08c.5,0,1.22-.11,2.13-.17,1.82-.12,4.39-.25,7.47-.24a108.64,108.64,0,0,1,22.25,2.27c2,.43,3.93.9,5.82,1.48s3.73,1.17,5.46,1.83,3.38,1.37,4.9,2.11,2.91,1.47,4.14,2.23,2.33,1.48,3.3,2.12,1.73,1.29,2.38,1.8l2,1.67L867,205c-.71-.43-1.58-.95-2.59-1.51s-2.18-1.16-3.5-1.72-2.76-1.16-4.31-1.71-3.22-1.06-5-1.51-3.57-.86-5.44-1.18-3.79-.59-5.71-.8a103.5,103.5,0,0,0-21.19.14c-2.86.3-5.22.67-6.84,1-.81.14-1.45.26-1.86.35l-.61.13,0,0a4,4,0,0,1-4.73-2.51,3.46,3.46,0,0,1,2.89-4.16Z" transform="translate(-687.54 -124)"/><path class="cls-5" d="M1039,151.78s-1,.14-2.81.47-4.37.8-7.43,1.48A172.27,172.27,0,0,0,1007,160c-1.89.7-3.77,1.42-5.55,2.19s-3.52,1.55-5.14,2.35-3.13,1.6-4.51,2.4-2.66,1.56-3.76,2.31-2.07,1.45-2.93,2.08-1.51,1.2-2.08,1.67l-1.66,1.5L982.9,173c.53-.48,1.19-1.05,2-1.71s1.72-1.38,2.82-2.14,2.3-1.58,3.65-2.41,2.83-1.67,4.43-2.51,3.29-1.68,5.07-2.48,3.64-1.59,5.52-2.35a175.24,175.24,0,0,1,21.92-6.88c3.1-.76,5.72-1.32,7.57-1.69s2.94-.55,2.94-.55h0c.76-.12,1.44.11,1.51.52s-.49.86-1.25,1Z" transform="translate(-687.54 -124)"/><path class="cls-5" d="M892.73,325.64l-.12-.28c-.07-.16-.18-.42-.35-.77-.33-.68-.83-1.67-1.52-2.83s-1.56-2.5-2.56-3.91c-.54-.68-1-1.42-1.65-2.12s-1.18-1.44-1.84-2.13-1.3-1.39-2-2.05-1.38-1.29-2.07-1.89-1.39-1.17-2.06-1.69a22.37,22.37,0,0,0-2-1.43c-.63-.43-1.2-.83-1.72-1.16l-1.4-.83-1.22-.72,1.37.52,1.58.61c.6.25,1.25.56,2,.89s1.51.7,2.3,1.13,1.67.87,2.49,1.39,1.73,1,2.57,1.61,1.72,1.16,2.53,1.79,1.64,1.26,2.43,1.91,1.5,1.32,2.23,1.95c1.4,1.31,2.67,2.58,3.67,3.72s1.82,2.11,2.37,2.82c.27.36.49.65.64.87l.22.3a2.48,2.48,0,0,1-1.23,3.69,3.65,3.65,0,0,1-4.46-.92,4.63,4.63,0,0,1-.24-.43Z" transform="translate(-687.54 -124)"/><path class="cls-5" d="M933.39,317.8s0-.19-.15-.54l-.44-1.48c-.39-1.3-1-3.16-1.81-5.38-.4-1.1-.86-2.3-1.37-3.56s-1.08-2.58-1.65-3.95-1.25-2.76-1.93-4.18-1.39-2.86-2.18-4.26-1.52-2.83-2.35-4.19-1.62-2.72-2.47-4l-1.23-1.89-1.26-1.76c-.83-1.15-1.59-2.25-2.39-3.21L912,276.74l-1.76-2L908.72,273l1.76,1.58,2,1.82L915,278.9c.93.89,1.83,1.93,2.82,3l1.51,1.66,1.48,1.79c1,1.21,2,2.49,3,3.81s2,2.67,2.94,4,1.86,2.76,2.77,4.12,1.72,2.75,2.53,4.07,1.55,2.63,2.21,3.88,1.32,2.42,1.88,3.51c1.13,2.2,2,4.06,2.59,5.37.3.67.53,1.2.68,1.56l.23.55c.58,1.38-.34,2.92-2,3.43a3.4,3.4,0,0,1-4.13-1.59,1.43,1.43,0,0,1-.09-.27Z" transform="translate(-687.54 -124)"/><path class="cls-5" d="M1014.7,301.22l0-.35c0-.26.09-.6.16-1,.15-.85.39-2,.78-3.43a48.66,48.66,0,0,1,1.53-4.7c.36-.84.67-1.72,1.09-2.59s.8-1.75,1.27-2.61.93-1.72,1.43-2.55,1-1.63,1.55-2.4,1.06-1.48,1.59-2.16a23.29,23.29,0,0,1,1.54-1.87c.5-.56.94-1.08,1.36-1.53l1.14-1.12,1-1-.76,1.1-.87,1.26c-.31.49-.63,1.06-1,1.67a19.88,19.88,0,0,0-1.08,2c-.36.72-.74,1.47-1,2.28s-.69,1.62-1,2.48-.58,1.7-.8,2.58-.46,1.74-.64,2.59-.32,1.72-.47,2.53a43,43,0,0,0-.43,4.48c-.07,1.31,0,2.39,0,3.13,0,.37,0,.65.06.82l0,.3v0a3,3,0,0,1-3,2.94,3.06,3.06,0,0,1-3.51-2.4A2,2,0,0,1,1014.7,301.22Z" transform="translate(-687.54 -124)"/><path class="cls-5" d="M974.05,309.7s0-.2,0-.58-.08-.94-.14-1.66c-.1-1.41-.21-3.41-.25-5.82,0-1.2,0-2.5,0-3.87s.08-2.83.13-4.32.18-3.05.31-4.61.28-3.16.52-4.75.42-3.18.72-4.73.55-3.09.9-4.56c.16-.73.32-1.46.48-2.16l.56-2.06c.37-1.34.69-2.61,1.1-3.76s.74-2.2,1-3.14.7-1.73,1-2.39c.54-1.32.84-2.07.84-2.07l-.57,2.13c-.18.67-.39,1.49-.64,2.44s-.41,2-.64,3.18-.42,2.44-.61,3.78c-.1.67-.19,1.36-.29,2.07s-.13,1.42-.2,2.16c-.16,1.46-.25,3-.31,4.52s-.09,3.1-.1,4.66.06,3.13.09,4.66.17,3,.27,4.49.24,2.86.42,4.19.31,2.58.49,3.73c.33,2.31.68,4.22.95,5.54.14.65.25,1.16.33,1.51s.12.54.12.54v0c.34,1.44-.82,2.87-2.59,3.18a3.22,3.22,0,0,1-3.81-2A2.74,2.74,0,0,1,974.05,309.7Z" transform="translate(-687.54 -124)"/><path class="cls-10" d="M687.54,838.87q11.9-63.57,20.05-117-5.07,2-10.14,4.08,2.1-18,5.95-42.2,45.29-16.51,103.13-28.09a424.49,424.49,0,0,0-7.72,41.87,398.47,398.47,0,0,0-57.62,12.78l-3.3,23.79q20.16-6.83,37.9-11.23-4.31,18.51-7.06,30.52a275.24,275.24,0,0,0-34.92,8.26q-2.64,16.74-5,30.74,27.66-8.49,58.28-14.88-4.95,21.6-7.38,38.23Q736.46,822.12,687.54,838.87Z" transform="translate(-687.54 -124)"/><path class="cls-10" d="M852,749.16a281.05,281.05,0,0,0-57.53,15.4q1.89-14.29,4.8-33.21,38.78-10.7,91.08-16.87-2.65,14.73-4.53,29.71-28.94,37.06-50.68,60.18,26-6.84,48.19-10.53-3.33,16.53-5.05,28.85-41.52,6-95.11,18.41a137.27,137.27,0,0,1,4.2-24.91A678,678,0,0,0,852,749.16Z" transform="translate(-687.54 -124)"/><path class="cls-11" d="M984.45,701.13q-9.75,38.45-14.63,55.56L945.33,770q4.45-25.26-3.85-31.93a5.67,5.67,0,0,0-4.11-.77q-15.5,5.31-22.6,33.38-7,37.15,5.14,38.27,13.7-.95,19.26-20.63l23.46-11.22q-4.54,27.06-21.15,45.2Q923.93,841.54,908.69,839t-19.3-25.21q-4-22.73,3.55-52.6,7.37-29.88,23.41-49.27t31.38-16.91q15.15,2.4,19.78,20.29.86-5.22,2-10.36A105.5,105.5,0,0,0,984.45,701.13Z" transform="translate(-687.54 -124)"/><path class="cls-11" d="M1051.27,729.64q6.3,21.32-1.15,49.22-7.27,27.82-25.56,45.72T990,840.16q-16.26-2.31-21-23.46t2.74-49q7.28-27.83,24-45.88t33-15.75Q1045,708.32,1051.27,729.64ZM1023,746.07a6.69,6.69,0,0,0-4.37-.68q-16.43,5-23.45,31.07-6.76,34.59,6.16,35.62,11.82-.86,20.8-13,7-10.46,8.91-28Q1032,752.32,1023,746.07Z" transform="translate(-687.54 -124)"/><path class="cls-11" d="M1130.2,750.1q6.3,21.31-1.15,49.22-7.27,27.82-25.56,45.72T1069,860.62q-16.26-2.31-21-23.46t2.74-49q7.27-27.81,24-45.88t33-15.75Q1123.92,728.78,1130.2,750.1Zm-28.29,16.43a6.69,6.69,0,0,0-4.37-.68q-16.43,5-23.45,31.07-6.77,34.59,6.16,35.62,11.82-.85,20.8-13,7-10.46,8.91-28Q1110.89,772.78,1101.91,766.53Z" transform="translate(-687.54 -124)"/><path class="cls-11" d="M1169,786.82q-2.73,15.78-5.66,32.58-18.12,10-33.29,12.85,11.13-65.26,18.62-126-6.48,2.84-11.44,4.86,1.72-13.86,4.25-34.4,14.77-5.57,50.08-20.74-6.06,35.82-14.46,84.38,15.38-25,32.78-64.15,15.17-1.82,37.53-5.56-29.53,46.64-57.67,87A190,190,0,0,0,1200,796.13q1.53-3,4-8.6a109.71,109.71,0,0,1,5.87,19.42q-11.13,15-24.59,30.66-7.59-29.34-12.24-56.36Q1171,784.09,1169,786.82Z" transform="translate(-687.54 -124)"/></svg>