<svg id="Ebene_1" data-name="Ebene 1" xmlns="http://www.w3.org/2000/svg" xmlns:xlink="http://www.w3.org/1999/xlink" viewBox="0 0 760 776.92"><defs><style>.cls-1{fill:#0bce3d;stroke:#333;stroke-width:4px;}.cls-1,.cls-2{stroke-miterlimit:10;}.cls-2,.cls-5{fill:#333;}.cls-2{stroke:#fff;stroke-width:2px;}.cls-3{fill:#fefefe;}.cls-4{fill:#bebebe;}.cls-6{fill:#f8f8f8;}.cls-7{fill:#f3f3f3;}.cls-8{fill:#fff;}.cls-9{fill:url(#linear-gradient);}</style><linearGradient id="linear-gradient" x1="1006.31" y1="374.77" x2="999.98" y2="702.1" gradientTransform="translate(-249.98 82.59) rotate(-12.36)" gradientUnits="userSpaceOnUse"><stop offset="0" stop-color="#fff"/><stop offset="1" stop-color="#ccc"/></linearGradient></defs><title>ezcookinggrünbildmarke</title><path class="cls-1" d="M1060.71,905.43a359.84,359.84,0,0,0,128.58-210.07q-7.44,2.79-14.86,5.58C1056,745.61,938.76,793.2,821.51,840.79q-80,32.46-160.13,64.64Z" transform="translate(-465 -130.51)"/><text x="-465" y="-130.51"/><path class="cls-1" d="M1096.06,294.38A358.59,358.59,0,0,0,859,205.3c-196.5,0-356.22,157.42-360,353C522.58,546.85,1053.67,310.57,1096.06,294.38Z" transform="translate(-465 -130.51)"/><path class="cls-1" d="M1062.6,327.4C938.74,375.34,516.92,567.52,470.84,588.88a6.58,6.58,0,0,0-3.84,6v0A358.59,358.59,0,0,0,501,747.66a6.67,6.67,0,0,0,8.42,3.42q34.25-13.14,68.4-26.53C705.23,674.77,831.89,623,958.42,570.84q102.74-42.33,205.48-84.64a6.65,6.65,0,0,0,3.74-8.34,360.5,360.5,0,0,0-98.19-149.19A6.61,6.61,0,0,0,1062.6,327.4Z" transform="translate(-465 -130.51)"/><path class="cls-1" d="M653.12,888.91c14.31-5.68,28.59-11.44,42.88-17.17,117.36-47,234.22-95.27,351.75-141.87q84.07-33.35,168.75-65.23a362.07,362.07,0,0,0-10.13-176.77q-24.54,10.06-49.07,20.16C1029.07,560.79,901,614,772.42,665.84q-97,39.1-194.48,77Q559.34,750,540.69,757A361.69,361.69,0,0,0,653.12,888.91Z" transform="translate(-465 -130.51)"/><polygon class="cls-2" points="518.98 194.72 233.5 194.72 90.76 441.96 233.5 689.19 518.98 689.19 661.72 441.96 518.98 194.72"/><path class="cls-3" d="M697.89,643.77c-8.95-29.82-3.41-52.84,18.25-72.35,14-12.59,28.67-24.21,42.89-36.49a95.15,95.15,0,0,0,10.65-11.2c11.77-14.16,11.18-20-2.78-30.37-5.61-4.42-10.75-10.19-16.93-13-26.19-12-52.42-9.65-78.39,1.65-6.53,2.85-13.1,5.81-19.88,7.61-3.12.83-8.06.27-9.87-2-1.66-2.08-1-7.58,0-11.09a38.17,38.17,0,0,1,5.83-11.59c7.81-10.91,15.95-21.52,24-32.24,22.05-20.28,47.17-19.1,72.9-13.15,31.84,7.37,61.57,21.17,90,38.68,5.43,3.34,9.43,3.4,14.9.05,31.43-19.25,64.29-34.19,99.86-40.7,22.81-4.17,44.27-1.88,63.06,15.08,4,5.11,8.32,10,11.94,15.4,6.37,9.55,13.14,19,18.17,29.38,4.22,8.74,0,14.32-8.62,12.4a86.23,86.23,0,0,1-18.26-6.31c-16.26-7.78-33.13-12.2-50.72-10.82-19.09,1.48-37.35,6.3-51.28,22.94-9.41,8.51-10.64,13.86-2.35,23.58,9.64,11.29,20.53,21.27,31.32,31.22,8.21,7.57,17.4,13.79,25.64,21.33,22.3,20.37,27.59,45.77,16.38,76.22-2.19,3.66-4.25,7.44-6.6,11-8.76,13.12-16.37,27.6-26.66,39-34.24,37.81-76,51.62-123.51,47.69-52.74-4.37-91.5-33.29-119.57-82.56C704.65,656.71,701.34,650.19,697.89,643.77Zm207.87,12c2.69-12.91.74-18.91-9.21-25.89A57.34,57.34,0,0,0,883.41,623c-27.72-10.09-55.59-10.21-83.21.25a54.62,54.62,0,0,0-17.33,10.89c-5.83,5.41-8.63,12.95-4.57,21.67-.53,12.46,5.17,21.77,12.79,29.43,23.63,23.74,67.63,27.34,93.86,7.09C896,683.74,905.72,673,905.76,655.8Z" transform="translate(-465 -130.51)"/><path class="cls-4" d="M697.89,643.77c3.45,6.42,6.76,12.94,10.36,19.25,28.07,49.27,66.83,78.19,119.57,82.56,47.47,3.93,89.27-9.88,123.51-47.69,10.29-11.37,17.9-25.85,26.66-39,2.35-3.52,4.41-7.3,6.6-11-2.54,6.94-4.35,14.36-7.74,20.72C952,715.3,917.22,749,872.15,768.85c-19.19,8.43-38.58,9.21-58,.88q-72.07-30.87-109.68-106.88C701.57,656.94,700.05,650.15,697.89,643.77Z" transform="translate(-465 -130.51)"/><path class="cls-4" d="M913.6,495.61c13.93-16.64,32.19-21.46,51.28-22.94,17.59-1.38,34.46,3,50.72,10.82a86.23,86.23,0,0,0,18.26,6.31c8.58,1.92,12.84-3.66,8.62-12.4-5-10.43-11.8-19.83-18.17-29.38-3.62-5.44-7.94-10.29-11.94-15.4,29.85,20.7,50.95,49.49,62.36,87,1,3.43,1,9.74-.83,11.25-2.49,2.09-7.69,2.29-10.77.8a237.61,237.61,0,0,1-25.08-14.7c-12.41-8-24.5-16.68-36.93-24.67-23.51-15.11-47.59-17.78-72.38-3.72C923.87,491.31,918.65,493.28,913.6,495.61Z" transform="translate(-465 -130.51)"/><path class="cls-4" d="M671.67,432.66c-8,10.72-16.16,21.33-24,32.24a38.17,38.17,0,0,0-5.83,11.59c-1,3.51-1.7,9,0,11.09,1.81,2.28,6.75,2.84,9.87,2,6.78-1.8,13.35-4.76,19.88-7.61,26-11.3,52.2-13.66,78.39-1.65,6.18,2.84,11.32,8.61,16.93,13-5.66-2.4-11.47-4.45-17-7.26C730,475.9,710.11,477,691,488c-15.39,8.89-30,19.46-45.12,29C637.4,522.4,628.93,528,619.94,532c-9.33,4.17-14.37-1-10.73-11.47,4.85-13.94,10.58-27.81,17.86-40.28C638.51,460.64,653.23,444.26,671.67,432.66Z" transform="translate(-465 -130.51)"/><path class="cls-5" d="M778.3,655.77c-4.06-8.72-1.26-16.26,4.57-21.67a54.62,54.62,0,0,1,17.33-10.89c27.62-10.46,55.49-10.34,83.21-.25a57.34,57.34,0,0,1,13.14,6.95c10,7,11.9,13,9.21,25.89C877.15,700,806.42,699.46,778.3,655.77Zm63.9-18.43c6.23-1.22,12.21-2.15,18-3.7,1.77-.48,3.17-2.71,4.74-4.14-1.4-1.53-2.57-3.83-4.23-4.45a52.38,52.38,0,0,0-37.37,0c-1.69.62-2.92,2.87-4.36,4.37,1.53,1.45,2.9,3.74,4.64,4.19C829.81,635.18,836.08,636.15,842.2,637.34Z" transform="translate(-465 -130.51)"/><path class="cls-4" d="M778.3,655.77c28.12,43.69,98.85,44.18,127.46,0,0,17.17-9.72,27.94-20.81,36.49-26.23,20.25-70.23,16.65-93.86-7.09C783.47,677.54,777.77,668.23,778.3,655.77Z" transform="translate(-465 -130.51)"/><path class="cls-6" d="M842.2,637.34c-6.12-1.19-12.39-2.16-18.53-3.77-1.74-.45-3.11-2.74-4.64-4.19,1.44-1.5,2.67-3.75,4.36-4.37a52.38,52.38,0,0,1,37.37,0c1.66.62,2.83,2.92,4.23,4.45-1.57,1.43-3,3.66-4.74,4.14C854.41,635.19,848.43,636.12,842.2,637.34Z" transform="translate(-465 -130.51)"/><ellipse class="cls-7" cx="377.01" cy="498.95" rx="22.98" ry="7.88"/><circle class="cls-8" cx="256.05" cy="376.18" r="8.23"/><circle class="cls-8" cx="504.75" cy="376.18" r="8.23"/><path class="cls-8" d="M957.87,170.93c-4.22.81-8.34,1.78-12.39,2.88-43.64-34.5-107.31-50.59-171.83-38.28C708.89,147.87,658.78,185.85,636,233.27a169.76,169.76,0,0,0-17.43,2.35c-73.75,14.06-121.12,74.32-105.8,134.6S600.31,468,674.06,453.9l339.29-64.69c73.75-14.06,121.11-74.33,105.79-134.6S1031.62,156.87,957.87,170.93Z" transform="translate(-465 -130.51)"/><path class="cls-9" d="M1022.13,172.72c16.18,14.09,28,31.94,33.19,52.43,15.32,60.28-32,120.54-105.8,134.6L610.23,424.44a164.44,164.44,0,0,1-62.32-.07c31.42,27.35,79.41,40.53,128.09,31.25l339.29-64.69c73.75-14.06,121.12-74.33,105.8-134.6C1110.2,213.5,1070.59,182.22,1022.13,172.72Z" transform="translate(-465 -130.51)"/><path class="cls-5" d="M960.89,174.17l-12.38,2.93a.88.88,0,0,1-.68-.13l0,0-8.57-6.3-9-5.84c-3.16-1.78-6.25-3.64-9.47-5.35s-6.57-3.25-9.91-4.78-6.79-2.93-10.26-4.27-7-2.59-10.56-3.74-7.18-2.21-10.85-3.13-7.34-1.83-11.07-2.54-7.46-1.47-11.25-2-7.55-1.08-11.37-1.37-7.63-.66-11.46-.76-7.66-.27-11.49-.17-7.67.13-11.49.41-7.63.55-11.42,1-7.58,1-11.33,1.56l-11.07,2.09-11.29,2.7-10.68,3.16c-3.52,1.18-7,2.49-10.53,3.72s-6.85,2.79-10.27,4.17-6.63,3.12-9.95,4.67-6.38,3.45-9.58,5.16c-1.62.82-3.07,1.86-4.62,2.78l-4.59,2.8c-3,1.91-5.87,4-8.82,6s-5.56,4.29-8.36,6.42-5.24,4.55-7.87,6.82-4.92,4.79-7.41,7.16-4.6,5-6.91,7.48S662.1,210,660,212.63c-2,2.69-3.83,5.41-5.76,8.11L649,229.09l-4.62,8.57-.13.24a6.08,6.08,0,0,1-4.93,2.92,152.48,152.48,0,0,0-18,2.36l-4.66.93c-1.55.31-2.91.69-4.38,1-2.87.63-5.79,1.56-8.69,2.37A150.59,150.59,0,0,0,571,261.93c-20.11,12-36.18,28.79-45.8,47.82a89.08,89.08,0,0,0-8,60.46c4.36,20.17,16,39.11,33.12,53.78a129.93,129.93,0,0,0,29.11,18.65,138.68,138.68,0,0,0,16.73,6.5c2.84,1,5.81,1.71,8.73,2.53s5.92,1.45,8.94,2a148.62,148.62,0,0,0,18.28,2.4,156.91,156.91,0,0,0,18.53.26,174.42,174.42,0,0,0,18.42-1.9c6-1,12.22-2.37,18.42-3.66Q724.76,443,762,435.5l74.59-14.78L911.22,406c24.88-4.87,49.73-9.84,74.65-14.55l18.68-3.58,9.33-1.78c2.67-.57,6.25-1.25,9-2l4.21-1.08c1.41-.39,2.84-.86,4.26-1.28,2.86-.81,5.61-1.86,8.42-2.8a156.2,156.2,0,0,0,16.06-7.07,131.48,131.48,0,0,0,27.93-19.25,111.41,111.41,0,0,0,11.34-11.8c1.78-2.05,3.34-4.2,5-6.32,1.48-2.19,3.08-4.33,4.4-6.59,11.07-17.89,16.27-38.21,14.43-58.22a89.24,89.24,0,0,0-2.57-14.92c-.58-2.62-1.45-4.85-2.17-7.29-1-2.38-1.73-4.82-2.86-7.15A101.37,101.37,0,0,0,1094,213.88c-14.56-16.25-35.16-29-58.64-36a149.6,149.6,0,0,0-18-4.23c-3.06-.6-6.18-.92-9.28-1.35-3.13-.28-6.26-.61-9.41-.7a167.08,167.08,0,0,0-37.75,2.59Zm-1.22-2.07a169.49,169.49,0,0,1,75.74,2.59c24.25,6.52,46.28,18.6,62.75,34.88a110.19,110.19,0,0,1,20.18,27.1c1.37,2.43,2.39,5,3.57,7.47,1,2.57,2.15,5.26,2.86,7.73a97.4,97.4,0,0,1,3.83,15.83c3.28,21.5-1.28,44.05-13,64-11.57,20-30.33,37.25-53.11,49.31a170,170,0,0,1-17.78,8,164.59,164.59,0,0,1-19.1,5.88c-1.7.46-3.21.75-4.76,1.09l-2.32.49-1.16.24L1016,397l-9.34,1.77L988,402.33c-24.9,4.79-49.86,9.32-74.8,13.94l-74.84,13.82L763.47,443.8q-37.46,6.72-75,13.25c-6.25,1.09-12.45,2.23-19,3.16a183.56,183.56,0,0,1-19.59,1.42,167,167,0,0,1-19.53-.8,154.9,154.9,0,0,1-19.09-3c-3.14-.63-6.2-1.5-9.27-2.3s-6.08-1.79-9-2.89a143.78,143.78,0,0,1-17.12-7.23,134.22,134.22,0,0,1-29.71-19.79c-17.53-15.31-29.28-34.86-34.12-55.6a98.47,98.47,0,0,1-2.08-31.7A104.15,104.15,0,0,1,518.51,307c9.08-20.23,25.19-38.5,46-52.12a152.72,152.72,0,0,1,34.35-16.62c3.13-1,6.16-2,9.44-2.87,1.6-.41,3.26-.91,4.81-1.26l4.63-1a165.72,165.72,0,0,1,19.71-3l-5.06,3.16,4.69-9.21c1.8-3,3.53-6,5.4-9,2-2.89,4-5.8,6.1-8.67,2.25-2.78,4.43-5.6,6.73-8.35s4.82-5.39,7.33-8,5.19-5.16,7.94-7.62,5.6-4.86,8.53-7.18,5.93-4.58,9-6.74,6.24-4.29,9.5-6.28,6.55-4,10-5.76,6.85-3.58,10.39-5.2,7.1-3.22,10.73-4.67,7.32-2.84,11-4.11,7.52-2.39,11.34-3.49l11.66-2.94,11.42-2.26.49-.09.37-.06.74-.1,1.48-.21,3-.42,5.9-.83c4-.44,7.93-.72,11.88-1.09s8-.32,11.91-.49,7.92.08,11.88.11,7.88.49,11.81.71,7.8.89,11.7,1.31c1.95.19,3.86.59,5.78.91l5.76,1c3.84.67,7.58,1.64,11.36,2.44s7.41,2,11.11,3,7.23,2.4,10.86,3.55,7,2.7,10.56,4,6.82,3,10.22,4.57,6.56,3.38,9.84,5.07l9.48,5.5,9,5.95,8.57,6.41-.71-.14,12.4-2.84Z" transform="translate(-465 -130.51)"/><path class="cls-5" d="M618.59,233.1l1.21-.13c.77-.07,1.86-.16,3.25-.26,2.76-.18,6.69-.37,11.37-.35a164.61,164.61,0,0,1,33.88,3.45c3,.66,6,1.38,8.86,2.25s5.68,1.78,8.33,2.79,5.14,2.09,7.45,3.21,4.43,2.24,6.31,3.39,3.55,2.26,5,3.24,2.64,2,3.63,2.73l3,2.55-3.3-2.2c-1.08-.65-2.41-1.43-3.94-2.3s-3.32-1.75-5.34-2.61-4.19-1.77-6.55-2.61-4.91-1.61-7.57-2.3-5.43-1.31-8.29-1.79-5.76-.9-8.69-1.22a157.38,157.38,0,0,0-32.26.21c-4.36.46-7.95,1-10.43,1.46-1.23.22-2.19.41-2.82.54l-.93.2-.08,0c-3.2.7-6.42-1-7.2-3.81s1.19-5.64,4.39-6.34C618.09,233.17,618.36,233.13,618.59,233.1Z" transform="translate(-465 -130.51)"/><path class="cls-5" d="M969.47,172.82s-1.52.21-4.27.7-6.66,1.23-11.32,2.27a261.74,261.74,0,0,0-33.21,9.58c-2.88,1.07-5.74,2.17-8.45,3.35s-5.36,2.36-7.82,3.57-4.78,2.44-6.88,3.65-4,2.39-5.72,3.53-3.16,2.2-4.47,3.15-2.29,1.84-3.16,2.55l-2.54,2.29,2.4-2.33c.81-.73,1.82-1.61,3-2.61s2.62-2.1,4.3-3.25,3.5-2.41,5.55-3.67,4.32-2.55,6.75-3.83,5-2.55,7.72-3.77,5.54-2.43,8.41-3.58A262,262,0,0,1,953.13,174c4.73-1.17,8.72-2,11.53-2.58s4.47-.84,4.47-.84h0c1.15-.19,2.18.16,2.29.79s-.74,1.3-1.89,1.49Z" transform="translate(-465 -130.51)"/><path class="cls-5" d="M746.72,437.56l-.18-.43c-.1-.24-.28-.64-.53-1.16-.5-1-1.26-2.55-2.31-4.32s-2.38-3.8-3.91-5.95c-.81-1-1.59-2.17-2.51-3.24s-1.8-2.18-2.8-3.23-2-2.12-3-3.12-2.1-2-3.15-2.89-2.11-1.77-3.13-2.57-2-1.55-3-2.18-1.81-1.26-2.61-1.77l-2.13-1.25-1.86-1.1,2.08.8,2.41.92c.91.38,1.91.85,3,1.35s2.29,1.07,3.5,1.73,2.54,1.32,3.8,2.11,2.63,1.56,3.9,2.45,2.62,1.77,3.86,2.73,2.5,1.93,3.69,2.91,2.3,2,3.41,3c2.12,2,4.05,3.92,5.59,5.65s2.77,3.23,3.61,4.31c.41.54.74,1,1,1.32l.32.46c1.36,1.94.52,4.45-1.87,5.61a5.53,5.53,0,0,1-6.78-1.4,3.86,3.86,0,0,1-.37-.65Z" transform="translate(-465 -130.51)"/><path class="cls-5" d="M808.64,425.62l-.23-.81c-.15-.53-.38-1.29-.66-2.27-.61-2-1.52-4.81-2.77-8.18-.6-1.69-1.3-3.51-2.08-5.43s-1.64-3.93-2.52-6-1.9-4.21-2.94-6.37-2.1-4.35-3.31-6.48-2.32-4.32-3.59-6.39-2.46-4.14-3.76-6.08l-1.87-2.88c-.65-.92-1.3-1.81-1.92-2.69-1.26-1.74-2.41-3.42-3.63-4.88l-3.24-4-2.69-3-2.36-2.63,2.69,2.41,3.09,2.77,3.77,3.76c1.42,1.36,2.79,2.93,4.3,4.57l2.29,2.54,2.26,2.73c1.58,1.84,3.1,3.79,4.61,5.79s3,4.07,4.48,6.14,2.83,4.21,4.22,6.28,2.62,4.18,3.84,6.2,2.37,4,3.38,5.89,2,3.69,2.85,5.36c1.73,3.34,3.06,6.17,4,8.18l1,2.37.35.83c.88,2.12-.51,4.46-3.11,5.23s-5.41-.31-6.29-2.42c0-.14-.1-.27-.14-.41Z" transform="translate(-465 -130.51)"/><path class="cls-5" d="M932.45,400.38s0-.19.07-.54.13-.91.24-1.55c.23-1.29.6-3.1,1.19-5.22a75.34,75.34,0,0,1,2.33-7.17c.54-1.28,1-2.61,1.65-3.93s1.22-2.67,1.94-4,1.41-2.62,2.18-3.88,1.56-2.49,2.36-3.65,1.62-2.27,2.41-3.3a35.15,35.15,0,0,1,2.35-2.84c.76-.86,1.44-1.65,2.08-2.33l1.74-1.71,1.51-1.48-1.16,1.68L952,362.39c-.48.75-1,1.62-1.51,2.55a30.17,30.17,0,0,0-1.64,3.06c-.55,1.1-1.14,2.25-1.61,3.48s-1,2.46-1.45,3.76-.89,2.6-1.23,3.93-.69,2.65-1,4-.48,2.61-.71,3.85a65.16,65.16,0,0,0-.66,6.82c-.1,2-.06,3.63,0,4.76,0,.56.06,1,.09,1.25s0,.45,0,.45v0c.22,2.24-1.83,4.25-4.57,4.48s-5.13-1.41-5.35-3.65A3.74,3.74,0,0,1,932.45,400.38Z" transform="translate(-465 -130.51)"/><path class="cls-5" d="M870.56,413.29s0-.31-.09-.89-.12-1.43-.21-2.52c-.15-2.15-.32-5.2-.37-8.86,0-1.83,0-3.81,0-5.9s.13-4.3.2-6.58.28-4.64.48-7,.42-4.82.79-7.24.64-4.83,1.09-7.2.84-4.69,1.37-6.93l.74-3.3c.29-1.07.57-2.12.85-3.14.56-2,1-4,1.68-5.71s1.12-3.36,1.6-4.79,1.05-2.63,1.46-3.64l1.27-3.15-.86,3.24c-.28,1-.61,2.28-1,3.71s-.62,3.08-1,4.86-.63,3.71-.93,5.75c-.14,1-.29,2.07-.44,3.14s-.2,2.18-.3,3.29c-.24,2.23-.38,4.54-.46,6.89s-.15,4.72-.16,7.1.09,4.76.14,7.09.25,4.63.41,6.85.36,4.35.63,6.37.48,3.93.74,5.69c.51,3.51,1,6.41,1.46,8.42.21,1,.38,1.77.5,2.3s.19.82.19.82V412c.51,2.2-1.26,4.37-4,4.84s-5.28-.92-5.8-3.12C870.6,413.57,870.58,413.43,870.56,413.29Z" transform="translate(-465 -130.51)"/></svg>