<svg xmlns="http://www.w3.org/2000/svg" xmlns:xlink="http://www.w3.org/1999/xlink" viewBox="0 0 755.96 737.38"><defs><style>.cls-1,.cls-3{fill:#0bce3d;}.cls-2,.cls-4,.cls-7{fill:#333;}.cls-2,.cls-4{stroke:#fff;}.cls-2,.cls-3,.cls-4{stroke-miterlimit:10;}.cls-3{stroke:#333;stroke-width:4px;}.cls-4{stroke-width:2px;}.cls-5{fill:#fefefe;}.cls-6{fill:#bebebe;}.cls-8{fill:#f8f8f8;}.cls-9{fill:#f3f3f3;}.cls-10{fill:#fff;}.cls-11{fill:url(#linear-gradient);}</style><linearGradient id="linear-gradient" x1="556.03" y1="236.36" x2="551.88" y2="451.32" gradientTransform="translate(-236.87 -44.39) rotate(-12.36)" gradientUnits="userSpaceOnUse"><stop offset="0" stop-color="#fff"/><stop offset="1" stop-color="#ccc"/></linearGradient></defs><title>ez cooking</title><g id="Ebene_2" data-name="Ebene 2"><g id="Ebene_1-2" data-name="Ebene 1"><path class="cls-1" d="M0,714.87q11.9-63.57,20.05-117-5.07,2-10.13,4.08,2.09-18,5.95-42.2Q61.14,543.23,119,531.65a421.46,421.46,0,0,0-7.71,41.87A398.18,398.18,0,0,0,53.66,586.3l-3.31,23.79q20.16-6.83,37.9-11.23-4.29,18.51-7,30.52a275.33,275.33,0,0,0-34.93,8.26q-2.64,16.74-5,30.74Q69,659.89,99.6,653.5q-5,21.6-7.38,38.23Q48.92,698.12,0,714.87Z"/><path class="cls-1" d="M164.49,625.16A280.88,280.88,0,0,0,107,640.56q1.88-14.29,4.79-33.21,38.77-10.7,91.09-16.87-2.66,14.73-4.54,29.71-28.94,37.06-50.68,60.18,26-6.84,48.2-10.53-3.34,16.53-5,28.85-41.52,6-95.11,18.41a138.1,138.1,0,0,1,4.19-24.91A678.13,678.13,0,0,0,164.49,625.16Z"/><path class="cls-2" d="M296.92,577.13q-9.76,38.45-14.64,55.56L257.8,646q4.44-25.26-3.86-31.93a5.65,5.65,0,0,0-4.1-.77q-15.5,5.31-22.61,33.38-7,37.15,5.14,38.27,13.69-.95,19.26-20.63l23.46-11.22q-4.54,27.06-21.15,45.2Q236.39,717.54,221.16,715t-19.31-25.21q-4-22.73,3.55-52.6,7.36-29.88,23.42-49.27t31.37-16.91q15.17,2.4,19.78,20.29.86-5.22,2-10.36A105.86,105.86,0,0,0,296.92,577.13Z"/><path class="cls-2" d="M363.74,605.64Q370,627,362.58,654.86q-7.27,27.82-25.55,45.72t-34.55,15.58q-16.26-2.31-21-23.46t2.74-49q7.28-27.83,24-45.88t33-15.75Q357.45,584.32,363.74,605.64Zm-28.3,16.43a6.66,6.66,0,0,0-4.36-.68q-16.44,5-23.46,31.07-6.76,34.59,6.17,35.62,11.81-.86,20.8-13,7-10.46,8.9-28Q344.44,628.32,335.44,622.07Z"/><path class="cls-2" d="M442.67,626.1q6.29,21.31-1.16,49.22Q434.24,703.15,416,721t-34.55,15.58q-16.26-2.31-21-23.46t2.74-49q7.27-27.81,24-45.88t33-15.75Q436.37,604.78,442.67,626.1Zm-28.3,16.43a6.66,6.66,0,0,0-4.36-.68q-16.44,5-23.46,31.07-6.76,34.59,6.16,35.62,11.82-.85,20.81-13,7-10.46,8.9-28Q423.37,648.78,414.37,642.53Z"/><path class="cls-2" d="M473,672.5q-2.31,13.35-4.79,27.56-15.33,8.48-28.17,10.88,9.42-55.23,15.76-106.59-5.49,2.4-9.68,4.11,1.46-11.73,3.6-29.1,12.5-4.71,42.37-17.55-5.13,30.3-12.24,71.39,13-21.13,27.74-54.27,12.84-1.54,31.76-4.71-25,39.46-48.8,73.62a160.35,160.35,0,0,0,8.74,32.53q1.27-2.57,3.33-7.27a92,92,0,0,1,5,16.43q-9.42,12.68-20.8,25.94-6.42-24.83-10.36-47.68Q474.73,670.19,473,672.5Z"/><path class="cls-2" d="M508.2,729.85q11-53.07,17.12-96.82a122.37,122.37,0,0,1,27.39-7.62q-8.3,63.62-14.89,97.94A195.63,195.63,0,0,0,508.2,729.85Zm15.41-118.48q-.09-6.58,5.56-12.24a24.78,24.78,0,0,1,13.61-7q8-1.36,13.57,1.67A10.27,10.27,0,0,1,562,603.5q0,6.59-5.65,12.88A23.12,23.12,0,0,1,542.7,624q-8.06,1.38-13.61-2.31A11.53,11.53,0,0,1,523.61,611.37Z"/><path class="cls-2" d="M569.15,576.19q28.33-7.62,40.75-11.73a561.06,561.06,0,0,1,11.47,61.12q3.17-27.48,7.62-51.87,14.38-1.2,33-7-11.73,81.66-18.84,136.2-11.13,2.91-26.62,7.53-16.87-58.12-20-82.78-4.36,32.79-10.87,72.59-16.6,5.14-28.68,8.56,7.71-58.2,14.9-105.21a51.5,51.5,0,0,0-7.19,2.57Q566.5,590,569.15,576.19Z"/><path class="cls-2" d="M681.81,721q-20.26-.76-25.72-29t4.13-64.07q9.36-35.81,32.94-58.83t44.4-20.05q16,3.2,17.63,23.57T748.58,614l-35.7,16.86q3.09-32.61-3.63-32.4t-17.52,17.52q-8.6,15-11.46,40-1.77,26.66,8.37,35.69c1.4,1,3.67,1.11,6.83.44s6.87-13.95,11.13-39.88l44.73-21.37q-9.8,57.41-14.54,82.85-12.88,4.51-44.84,17.19,1.65-7.5,4.74-23.14Q693.48,720.71,681.81,721Z"/><path class="cls-3" d="M519.39,508.89a236.34,236.34,0,0,0,84.44-137.95c-3.26,1.22-6.51,2.43-9.76,3.66-77.76,29.34-154.77,60.59-231.77,91.84q-52.53,21.33-105.15,42.45Z"/><text/><path class="cls-3" d="M542.6,107.61A235.45,235.45,0,0,0,386.93,49.12C257.89,49.12,153,152.5,150.54,281,166,273.41,514.77,118.25,542.6,107.61Z"/><path class="cls-3" d="M520.63,129.3C439.29,160.78,162.28,287,132,301a4.32,4.32,0,0,0-2.52,3.91v0a235.5,235.5,0,0,0,22.3,100.34,4.37,4.37,0,0,0,5.52,2.24q22.5-8.62,44.92-17.42c83.71-32.69,166.89-66.72,250-100.95q67.45-27.8,134.93-55.58a4.36,4.36,0,0,0,2.46-5.48,236.65,236.65,0,0,0-64.48-98A4.34,4.34,0,0,0,520.63,129.3Z"/><path class="cls-3" d="M251.72,498c9.4-3.73,18.78-7.51,28.17-11.27,77.06-30.89,153.81-62.57,231-93.17q55.22-21.9,110.81-42.83A237.44,237.44,0,0,0,615,234.68q-16.11,6.6-32.22,13.24c-84.21,34.65-168.3,69.58-252.75,103.63q-63.7,25.68-127.71,50.54-12.23,4.73-24.47,9.35A237.46,237.46,0,0,0,251.72,498Z"/><polygon class="cls-4" points="469 127.88 281.53 127.88 187.79 290.23 281.53 452.59 469 452.59 562.74 290.23 469 127.88"/><path class="cls-5" d="M281.12,337.06c-5.87-19.58-2.24-34.7,12-47.51,9.19-8.27,18.82-15.9,28.16-24a61.8,61.8,0,0,0,7-7.35c7.73-9.3,7.34-13.16-1.82-20-3.69-2.9-7.06-6.69-11.13-8.55-17.19-7.89-34.42-6.34-51.48,1.08a92,92,0,0,1-13,5c-2,.55-5.29.17-6.48-1.32s-.63-5,0-7.28a25.25,25.25,0,0,1,3.82-7.62c5.13-7.16,10.48-14.13,15.75-21.17,14.48-13.31,31-12.54,47.87-8.63,20.91,4.84,40.44,13.9,59.09,25.4,3.56,2.19,6.19,2.23,9.79,0,20.64-12.64,42.22-22.45,65.57-26.72,15-2.75,29.08-1.24,41.42,9.89,2.62,3.36,5.46,6.55,7.84,10.12,4.18,6.27,8.62,12.44,11.93,19.29,2.77,5.74,0,9.41-5.66,8.14a56.09,56.09,0,0,1-12-4.14c-10.67-5.11-21.75-8-33.3-7.11-12.54,1-24.53,4.14-33.68,15.07-6.17,5.59-7,9.11-1.54,15.49,6.33,7.41,13.48,14,20.56,20.5,5.4,5,11.43,9.06,16.85,14,14.64,13.38,18.11,30.06,10.75,50.05-1.44,2.41-2.79,4.88-4.33,7.2-5.75,8.62-10.75,18.13-17.51,25.59-22.49,24.83-49.94,33.9-81.11,31.32-34.63-2.87-60.09-21.87-78.52-54.22C285.56,345.56,283.39,341.28,281.12,337.06ZM417.63,345c1.77-8.48.49-12.42-6.05-17a37.58,37.58,0,0,0-8.62-4.57c-18.21-6.63-36.51-6.7-54.65.16a36,36,0,0,0-11.38,7.16c-3.83,3.55-5.67,8.5-3,14.23-.35,8.18,3.39,14.29,8.4,19.32,15.52,15.6,44.41,18,61.64,4.66C411.25,363.3,417.61,356.23,417.63,345Z"/><path class="cls-6" d="M281.12,337.06c2.27,4.22,4.44,8.5,6.81,12.64,18.43,32.35,43.89,51.35,78.52,54.22,31.17,2.58,58.62-6.49,81.11-31.32,6.76-7.46,11.76-17,17.51-25.59,1.54-2.32,2.89-4.79,4.33-7.2-1.67,4.55-2.86,9.43-5.08,13.6C448,384,425.16,406.19,395.56,419.2c-12.6,5.54-25.33,6-38.08.58-31.55-13.52-55.65-36.86-72-70.19C283.54,345.71,282.54,341.25,281.12,337.06Z"/><path class="cls-6" d="M422.78,239.76c9.15-10.93,21.14-14.09,33.68-15.07,11.55-.9,22.63,2,33.3,7.11a56.09,56.09,0,0,0,12,4.14c5.63,1.27,8.43-2.4,5.66-8.14-3.31-6.85-7.75-13-11.93-19.29-2.38-3.57-5.22-6.76-7.84-10.12,19.6,13.6,33.45,32.5,41,57.12.68,2.25.64,6.39-.55,7.39-1.64,1.37-5,1.5-7.07.52a156.28,156.28,0,0,1-16.47-9.65c-8.15-5.27-16.09-11-24.25-16.2-15.44-9.92-31.26-11.68-47.54-2.45C429.53,236.94,426.1,238.23,422.78,239.76Z"/><path class="cls-6" d="M263.91,198.42c-5.27,7-10.62,14-15.75,21.17a25.25,25.25,0,0,0-3.82,7.62c-.66,2.3-1.12,5.91,0,7.28s4.43,1.87,6.48,1.32a92,92,0,0,0,13-5c17.06-7.42,34.29-9,51.48-1.08,4.07,1.86,7.44,5.65,11.13,8.55-3.72-1.57-7.54-2.92-11.15-4.76-13.12-6.7-26.15-6-38.7,1.27-10.11,5.84-19.72,12.78-29.64,19.05-5.56,3.51-11.12,7.18-17,9.81-6.13,2.74-9.44-.66-7.05-7.53a152.5,152.5,0,0,1,11.72-26.45C242.13,216.8,251.8,206,263.91,198.42Z"/><path class="cls-7" d="M333.93,344.94c-2.67-5.73-.83-10.68,3-14.23a36,36,0,0,1,11.38-7.16c18.14-6.86,36.44-6.79,54.65-.16a37.58,37.58,0,0,1,8.62,4.57c6.54,4.58,7.82,8.52,6.05,17C398.84,374,352.4,373.63,333.93,344.94Zm42-12.1c4.09-.81,8-1.41,11.86-2.44,1.16-.31,2.08-1.77,3.11-2.71-.92-1-1.69-2.52-2.78-2.93a34.42,34.42,0,0,0-24.54,0c-1.11.41-1.92,1.88-2.86,2.87,1,.95,1.9,2.46,3,2.75C367.76,331.42,371.87,332.06,375.89,332.84Z"/><path class="cls-6" d="M333.93,344.94c18.47,28.69,64.91,29,83.7,0,0,11.27-6.38,18.34-13.66,24-17.23,13.3-46.12,10.94-61.64-4.66C337.32,359.23,333.58,353.12,333.93,344.94Z"/><path class="cls-8" d="M375.89,332.84c-4-.78-8.13-1.42-12.17-2.48-1.14-.29-2-1.8-3-2.75.94-1,1.75-2.46,2.86-2.87a34.42,34.42,0,0,1,24.54,0c1.09.41,1.86,1.93,2.78,2.93-1,.94-1.95,2.4-3.11,2.71C383.91,331.43,380,332,375.89,332.84Z"/><ellipse class="cls-9" cx="375.77" cy="327.66" rx="15.09" ry="5.18"/><circle class="cls-10" cx="296.33" cy="247.04" r="5.41"/><circle class="cls-10" cx="459.65" cy="247.04" r="5.41"/><path class="cls-10" d="M451.85,26.54c-2.77.53-5.48,1.17-8.13,1.89C415.06,5.78,373.25-4.79,330.87,3.29s-75.43,33.05-90.38,64.19A110.7,110.7,0,0,0,229,69c-48.43,9.23-79.54,48.8-69.48,88.39s57.48,64.18,105.91,55l222.82-42.48c48.43-9.24,79.53-48.81,69.47-88.39S500.29,17.31,451.85,26.54Z"/><path class="cls-11" d="M494.05,27.72c10.63,9.25,18.38,21,21.8,34.43,10.06,39.59-21.05,79.16-69.48,88.39L223.56,193a108,108,0,0,1-40.92-.05c20.63,18,52.14,26.61,84.11,20.52L489.56,171C538,161.78,569.1,122.21,559,82.62,551.89,54.5,525.88,34,494.05,27.72Z"/><path class="cls-7" d="M453.83,28.67l-8.12,1.92a.53.53,0,0,1-.45-.08h0l-5.62-4.14-5.93-3.83c-2.08-1.17-4.11-2.39-6.23-3.52s-4.31-2.14-6.51-3.14-4.46-1.92-6.73-2.8-4.59-1.7-6.94-2.46-4.71-1.45-7.12-2-4.82-1.21-7.27-1.67-4.9-1-7.39-1.3-5-.71-7.47-.9-5-.44-7.52-.5-5-.18-7.55-.11-5,.09-7.54.27-5,.36-7.5.65-5,.64-7.45,1L333.21,7.4l-7.42,1.77-7,2.08c-2.31.77-4.61,1.63-6.91,2.44s-4.5,1.83-6.75,2.74-4.35,2.05-6.53,3.07-4.2,2.26-6.3,3.38c-1.06.55-2,1.23-3,1.83l-3,1.84c-2,1.25-3.86,2.63-5.79,3.94s-3.66,2.82-5.49,4.22-3.45,3-5.18,4.47-3.22,3.15-4.86,4.71-3,3.28-4.54,4.91-2.77,3.42-4.16,5.13-2.52,3.55-3.79,5.32L249,64.73l-3,5.64-.08.15a4,4,0,0,1-3.24,1.92A98.61,98.61,0,0,0,230.83,74l-3.06.61c-1,.2-1.91.45-2.88.67-1.89.42-3.8,1-5.71,1.56a98,98,0,0,0-21.37,9.48c-13.22,7.87-23.77,18.9-30.08,31.39a58.49,58.49,0,0,0-5.22,39.71c2.86,13.25,10.51,25.68,21.75,35.32A85.59,85.59,0,0,0,203.37,205a92,92,0,0,0,11,4.27c1.86.64,3.81,1.12,5.73,1.66s3.89,1,5.87,1.29a96.22,96.22,0,0,0,12,1.57,100.82,100.82,0,0,0,12.17.17,113.56,113.56,0,0,0,12.09-1.24c3.93-.68,8-1.56,12.1-2.4q24.44-5.09,48.91-10l49-9.71,49-9.64c16.34-3.2,32.66-6.46,49-9.56L482.51,169l6.13-1.18c1.75-.37,4.1-.82,5.88-1.29l2.76-.71c.93-.26,1.87-.56,2.8-.84,1.88-.53,3.69-1.22,5.53-1.84a102.74,102.74,0,0,0,10.55-4.64A86.14,86.14,0,0,0,534.5,145.9a73.41,73.41,0,0,0,7.45-7.75c1.17-1.34,2.19-2.76,3.27-4.15s2-2.84,2.9-4.33a62,62,0,0,0,9.47-38.23,59.11,59.11,0,0,0-1.69-9.8c-.38-1.72-.95-3.19-1.42-4.79-.63-1.56-1.14-3.16-1.88-4.69a66.44,66.44,0,0,0-11.38-17.41c-9.56-10.67-23.09-19-38.5-23.65a98.67,98.67,0,0,0-11.85-2.78c-2-.39-4.05-.6-6.09-.88s-4.11-.4-6.18-.46a109.65,109.65,0,0,0-24.79,1.7ZM453,27.31A111.45,111.45,0,0,1,502.78,29c15.92,4.28,30.39,12.22,41.2,22.91a71.81,71.81,0,0,1,13.25,17.8c.91,1.59,1.57,3.26,2.35,4.9.63,1.69,1.41,3.45,1.88,5.07A65.14,65.14,0,0,1,564,90.09a64,64,0,0,1-8.55,42c-7.6,13.14-19.93,24.47-34.88,32.39a113.05,113.05,0,0,1-11.68,5.28,106.58,106.58,0,0,1-12.55,3.86c-1.11.3-2.1.49-3.12.71l-1.52.32-.77.17L490,175l-6.14,1.17-12.27,2.33c-16.35,3.14-32.74,6.11-49.12,9.15l-49.15,9.08-49.16,9q-24.6,4.41-49.23,8.7c-4.11.72-8.18,1.46-12.49,2.08a120.3,120.3,0,0,1-12.86.93,111.89,111.89,0,0,1-12.83-.53,101.87,101.87,0,0,1-12.53-2c-2.07-.42-4.07-1-6.09-1.52s-4-1.17-5.92-1.89A95.16,95.16,0,0,1,201,206.77a88,88,0,0,1-19.51-13,69.87,69.87,0,0,1-22.41-36.51,65,65,0,0,1-1.37-20.82,68.25,68.25,0,0,1,5.62-20.54c6-13.28,16.54-25.29,30.24-34.22a99.38,99.38,0,0,1,22.56-10.92c2.05-.64,4-1.34,6.19-1.88,1.05-.28,2.15-.6,3.16-.83l3-.69a109.1,109.1,0,0,1,12.95-1.93l-3.32,2.07,3.08-6c1.17-2,2.31-3.94,3.54-5.89s2.64-3.81,4-5.69,2.9-3.68,4.42-5.49,3.16-3.54,4.81-5.26,3.41-3.39,5.22-5,3.67-3.2,5.59-4.72,3.9-3,5.93-4.43,4.1-2.81,6.24-4.12,4.3-2.6,6.55-3.78,4.5-2.35,6.82-3.42,4.66-2.11,7.05-3.06,4.81-1.87,7.25-2.71,4.94-1.56,7.45-2.29l7.65-1.93,7.5-1.48.33-.06.24,0,.49-.07,1-.14,1.94-.27,3.88-.54c2.59-.29,5.2-.48,7.8-.72s5.22-.21,7.82-.32,5.2.05,7.8.07,5.17.32,7.75.47,5.13.58,7.69.86c1.28.13,2.53.39,3.8.59l3.78.64c2.52.44,5,1.08,7.46,1.61s4.86,1.32,7.3,2,4.74,1.58,7.12,2.33,4.63,1.77,6.94,2.65,4.48,2,6.71,3,4.31,2.22,6.46,3.33l6.23,3.61,5.94,3.91,5.63,4.21-.47-.09L453,27.31Z"/><path class="cls-7" d="M229.05,67.37l.79-.08c.51-.05,1.22-.11,2.13-.17,1.82-.12,4.4-.25,7.47-.24a108.57,108.57,0,0,1,22.25,2.27c2,.43,3.93.9,5.82,1.48s3.73,1.17,5.47,1.83,3.38,1.37,4.89,2.11S280.79,76,282,76.8s2.33,1.48,3.3,2.12,1.73,1.29,2.38,1.8l1.95,1.67L287.48,81c-.71-.43-1.58-1-2.58-1.51s-2.18-1.16-3.51-1.72-2.75-1.16-4.3-1.71-3.23-1.06-5-1.51-3.57-.86-5.45-1.18-3.78-.59-5.7-.8a103.49,103.49,0,0,0-21.19.14c-2.87.3-5.23.67-6.85,1-.81.14-1.44.26-1.86.35l-.61.13-.05,0a4,4,0,0,1-4.72-2.51,3.46,3.46,0,0,1,2.88-4.16Z"/><path class="cls-7" d="M459.47,27.78s-1,.14-2.81.47-4.37.8-7.43,1.48A172.27,172.27,0,0,0,427.42,36c-1.89.7-3.76,1.42-5.55,2.19s-3.51,1.55-5.13,2.35-3.14,1.6-4.52,2.4-2.66,1.56-3.76,2.31-2.07,1.45-2.93,2.08S404,48.56,403.46,49l-1.67,1.5L403.36,49c.54-.48,1.2-1,2-1.71s1.72-1.38,2.82-2.14,2.31-1.58,3.65-2.41,2.84-1.67,4.43-2.51,3.29-1.68,5.08-2.48,3.63-1.59,5.51-2.35a175.24,175.24,0,0,1,21.92-6.88c3.1-.76,5.73-1.32,7.57-1.69s2.94-.55,2.94-.55h0c.76-.12,1.43.11,1.5.52s-.48.86-1.24,1Z"/><path class="cls-7" d="M313.19,201.64l-.12-.28c-.06-.16-.18-.42-.34-.77-.33-.68-.83-1.67-1.53-2.83s-1.55-2.5-2.56-3.91c-.53-.68-1-1.42-1.65-2.12s-1.18-1.44-1.84-2.13-1.3-1.39-2-2-1.38-1.29-2.07-1.89A25.91,25.91,0,0,0,299,184a21,21,0,0,0-2-1.43c-.63-.43-1.19-.83-1.72-1.16l-1.39-.83-1.23-.72,1.37.52,1.58.61c.6.25,1.25.56,2,.89s1.51.7,2.31,1.13,1.66.87,2.49,1.39,1.73,1,2.56,1.61,1.72,1.16,2.54,1.79,1.64,1.26,2.42,1.91,1.51,1.32,2.24,1.95c1.39,1.31,2.66,2.58,3.67,3.72s1.82,2.11,2.37,2.82c.27.36.49.65.64.87l.21.3A2.48,2.48,0,0,1,317.9,203a3.63,3.63,0,0,1-4.45-.92,2.32,2.32,0,0,1-.24-.43Z"/><path class="cls-7" d="M353.85,193.8l-.14-.54c-.11-.34-.25-.84-.44-1.48-.4-1.3-1-3.16-1.82-5.38-.4-1.1-.85-2.3-1.36-3.56s-1.08-2.58-1.66-4-1.25-2.76-1.93-4.18-1.38-2.86-2.17-4.26-1.53-2.83-2.36-4.19-1.62-2.72-2.47-4l-1.23-1.89L337,158.61c-.83-1.15-1.58-2.25-2.39-3.21s-1.49-1.87-2.12-2.66l-1.77-2L329.18,149l1.77,1.58,2,1.82c.73.74,1.57,1.57,2.47,2.47s1.84,1.93,2.82,3l1.51,1.66c.49.59,1,1.19,1.49,1.79,1,1.21,2,2.49,3,3.81s2,2.67,2.95,4,1.85,2.76,2.77,4.12,1.72,2.75,2.52,4.07,1.55,2.63,2.21,3.88,1.32,2.42,1.88,3.51c1.13,2.2,2,4.06,2.6,5.37l.68,1.56.22.55c.58,1.38-.33,2.92-2,3.43A3.41,3.41,0,0,1,354,194.1l-.09-.27Z"/><path class="cls-7" d="M435.16,177.22l0-.35c0-.26.09-.6.16-1,.16-.85.4-2,.78-3.43s.9-3,1.53-4.7c.36-.84.67-1.72,1.09-2.59s.8-1.75,1.27-2.61.93-1.72,1.44-2.55,1-1.63,1.54-2.4,1.07-1.48,1.59-2.16a23.29,23.29,0,0,1,1.54-1.87c.5-.56.95-1.08,1.37-1.53l1.14-1.12,1-1-.76,1.1c-.24.35-.54.77-.87,1.26s-.63,1.06-1,1.67-.73,1.29-1.08,2-.74,1.47-1.05,2.28-.68,1.62-.95,2.48a24.93,24.93,0,0,0-.81,2.58c-.26.86-.45,1.74-.64,2.59s-.31,1.72-.47,2.53c-.22,1.65-.38,3.17-.43,4.48s0,2.39,0,3.13c0,.37,0,.65.05.82l0,.3v0a3,3,0,0,1-3,2.94,3.06,3.06,0,0,1-3.51-2.4A2.68,2.68,0,0,1,435.16,177.22Z"/><path class="cls-7" d="M394.52,185.7l-.06-.58c0-.38-.08-.94-.14-1.66-.1-1.41-.21-3.41-.25-5.82,0-1.2,0-2.5,0-3.87s.09-2.83.13-4.32.18-3,.32-4.61.27-3.16.52-4.75.41-3.18.71-4.73.55-3.09.9-4.56c.17-.73.33-1.46.49-2.16l.55-2.06c.38-1.34.69-2.61,1.11-3.76s.74-2.2,1.05-3.14.69-1.73,1-2.39l.83-2.07-.56,2.13c-.18.67-.4,1.49-.65,2.44s-.4,2-.64,3.18-.41,2.44-.61,3.78c-.09.67-.19,1.36-.29,2.07s-.13,1.42-.2,2.16c-.15,1.46-.24,3-.3,4.52s-.1,3.1-.11,4.66.07,3.13.1,4.66.17,3,.27,4.49.24,2.86.41,4.19.31,2.58.49,3.73c.33,2.31.69,4.22,1,5.54.14.65.25,1.16.32,1.51s.13.54.13.54v0c.34,1.44-.82,2.87-2.59,3.18a3.2,3.2,0,0,1-3.8-2.05A1.37,1.37,0,0,1,394.52,185.7Z"/></g></g></svg>