<svg xmlns="http://www.w3.org/2000/svg" viewBox="0 0 476.5 711.9"><defs><style>.cls-1,.cls-4,.cls-7{fill:#333;}.cls-1,.cls-11,.cls-14,.cls-2,.cls-3{stroke:#333;}.cls-1,.cls-11,.cls-14,.cls-2,.cls-3,.cls-4{stroke-miterlimit:10;}.cls-1,.cls-2,.cls-3,.cls-4{stroke-width:2px;}.cls-11,.cls-12,.cls-2{fill:#f79021;}.cls-3{fill:#f39022;}.cls-4{stroke:#fff;}.cls-5{fill:#fefefe;}.cls-6{fill:#bebebe;}.cls-8{fill:#f8f8f8;}.cls-9{fill:#f3f3f3;}.cls-10,.cls-14{fill:#fff;}.cls-11,.cls-14{stroke-width:4px;}.cls-13{fill:none;}.cls-14{opacity:0.97;}</style></defs><title>ez git</title><g id="Ebene_2" data-name="Ebene 2"><g id="Ebene_1-2" data-name="Ebene 1"><path class="cls-1" d="M323.85,566.24q-.11-7.56,6.38-14a28.36,28.36,0,0,1,15.61-8.05q9.14-1.57,15.56,1.92t6.43,11.14q0,7.56-6.48,14.78a26.52,26.52,0,0,1-15.61,8.78q-9.23,1.58-15.61-2.65A13.2,13.2,0,0,1,323.85,566.24Z"/><path class="cls-2" d="M1.3,684.94Q15,612,24.3,550.75q-5.82,2.28-11.63,4.67,2.4-20.58,6.82-48.39,51.94-19,118.27-32.22a486,486,0,0,0-8.84,48,458.74,458.74,0,0,0-66.09,14.66L59,564.78q23.13-7.85,43.47-12.89-4.92,21.23-8.09,35Q78,589.41,54.37,596.36q-3,19.21-5.69,35.26,31.73-9.74,66.85-17.06-5.7,24.77-8.47,43.85Q57.4,665.73,1.3,684.94Z"/><path class="cls-2" d="M191.71,569.58q-31.62,4.71-66,17.67,2.16-16.39,5.5-38.09,44.47-12.27,104.46-19.34-3,16.88-5.2,34.07-33.18,42.51-58.12,69,29.85-7.86,55.27-12.08-3.82,18.95-5.79,33.09Q174.24,660.79,112.77,675a158.55,158.55,0,0,1,4.81-28.57A776.32,776.32,0,0,0,191.71,569.58Z"/><path class="cls-1" d="M253.17,701.54q-18.06-.69-22.92-25.88t3.68-57.09q8.34-31.91,29.35-52.43t39.57-17.87q14.23,2.85,15.71,21a81.38,81.38,0,0,1-5.89,36.81l-31.81,15q2.75-29.07-3.24-28.87T262,607.87q-7.67,13.35-10.21,35.64-1.58,23.76,7.46,31.81,1.86,1.27,6.09.39t9.91-35.54l39.86-19q-8.73,51.15-13,73.83-11.48,4-40,15.31,1.49-6.67,4.23-20.61Q263.58,701.24,253.17,701.54Z"/><path class="cls-1" d="M308.45,702.12q12.66-60.87,19.63-111a140.84,140.84,0,0,1,31.42-8.74q-9.53,73-17.08,112.32Q321.9,697.81,308.45,702.12Z"/><path class="cls-1" d="M433.39,571.22Q423.81,639,416.88,675q-21.64,12-35.49,18.76,11.73-60.85,19.72-113.39-15.78,5.24-31.44,11.73,2-17.37,5.75-40.82,43.8-16,99.75-27.17a406.59,406.59,0,0,0-7.46,40.49Q450.55,567.18,433.39,571.22Z"/><path class="cls-3" d="M321.14,318.33a122.05,122.05,0,0,0,43.61-71.26l-5,1.89c-40.16,15.16-79.94,31.3-119.71,47.44q-27.13,11-54.32,21.93Z"/><text/><path class="cls-3" d="M333.13,111.05a122.13,122.13,0,0,0-202.52,89.54C138.6,196.69,318.75,116.54,333.13,111.05Z"/><path class="cls-3" d="M321.78,122.25c-42,16.26-185.1,81.46-200.74,88.7a2.25,2.25,0,0,0-1.3,2v0a121.68,121.68,0,0,0,11.52,51.82,2.26,2.26,0,0,0,2.86,1.16q11.61-4.46,23.2-9c43.24-16.88,86.2-34.46,129.12-52.14q34.85-14.36,69.7-28.71a2.26,2.26,0,0,0,1.27-2.83,122.24,122.24,0,0,0-33.31-50.61A2.26,2.26,0,0,0,321.78,122.25Z"/><path class="cls-3" d="M182.88,312.73q7.27-2.89,14.54-5.83c39.81-15.95,79.46-32.32,119.32-48.12q28.53-11.31,57.24-22.13a122.72,122.72,0,0,0-3.43-60l-16.65,6.83c-43.49,17.9-86.93,35.95-130.55,53.54q-32.91,13.26-66,26.1c-4.21,1.63-8.42,3.23-12.64,4.83A122.69,122.69,0,0,0,182.88,312.73Z"/><polygon class="cls-4" points="295.11 121.52 198.27 121.52 149.85 205.38 198.27 289.25 295.11 289.25 343.53 205.38 295.11 121.52"/><path class="cls-5" d="M198.06,229.57c-3-10.11-1.15-17.92,6.2-24.54,4.74-4.27,9.72-8.21,14.54-12.38a31.83,31.83,0,0,0,3.62-3.8c4-4.8,3.79-6.8-.94-10.3-1.91-1.5-3.65-3.46-5.75-4.42-8.88-4.07-17.78-3.28-26.59.56a47.66,47.66,0,0,1-6.74,2.58c-1.06.28-2.74.09-3.35-.68s-.32-2.57,0-3.76a13.27,13.27,0,0,1,2-3.94c2.65-3.7,5.41-7.29,8.13-10.93,7.48-6.88,16-6.48,24.73-4.46,10.8,2.5,20.89,7.18,30.52,13.12a4.2,4.2,0,0,0,5.06,0c10.66-6.53,21.81-11.6,33.87-13.81,7.74-1.41,15-.64,21.39,5.11,1.36,1.74,2.82,3.38,4.05,5.23a84.88,84.88,0,0,1,6.17,10c1.43,3,0,4.85-2.93,4.2a28.91,28.91,0,0,1-6.19-2.14c-5.52-2.64-11.24-4.14-17.21-3.67-6.47.5-12.67,2.14-17.39,7.78-3.19,2.89-3.61,4.71-.8,8a124.84,124.84,0,0,0,10.62,10.59c2.79,2.57,5.91,4.68,8.7,7.24,7.57,6.91,9.36,15.52,5.56,25.85-.75,1.24-1.44,2.52-2.24,3.72-3,4.45-5.55,9.36-9.05,13.22-11.61,12.82-25.79,17.51-41.89,16.18-17.89-1.48-31-11.3-40.56-28C200.36,234,199.23,231.75,198.06,229.57Zm70.52,4.08c.91-4.38.25-6.41-3.13-8.78a19.22,19.22,0,0,0-4.45-2.36,39.47,39.47,0,0,0-28.23.08,18.7,18.7,0,0,0-5.88,3.7,6,6,0,0,0-1.55,7.35c-.18,4.23,1.75,7.39,4.34,10,8,8.06,22.94,9.28,31.84,2.41C265.28,243.13,268.56,239.47,268.58,233.65Z"/><path class="cls-6" d="M198.06,229.57c1.17,2.18,2.3,4.39,3.52,6.53,9.52,16.71,22.67,26.53,40.56,28,16.1,1.33,30.28-3.36,41.89-16.18,3.5-3.86,6.08-8.77,9.05-13.22.8-1.2,1.49-2.48,2.24-3.72a55.59,55.59,0,0,1-2.63,7c-8.44,15.82-20.23,27.26-35.51,34a23.8,23.8,0,0,1-19.68.3c-16.29-7-28.74-19-37.2-36.26A53.59,53.59,0,0,1,198.06,229.57Z"/><path class="cls-6" d="M271.24,179.31c4.72-5.64,10.92-7.28,17.39-7.78,6-.47,11.69,1,17.21,3.67a28.91,28.91,0,0,0,6.19,2.14c2.91.65,4.36-1.24,2.93-4.2a84.88,84.88,0,0,0-6.17-10c-1.23-1.85-2.69-3.49-4.05-5.23,10.13,7,17.28,16.79,21.15,29.51.36,1.16.34,3.3-.28,3.81a3.86,3.86,0,0,1-3.65.27,81.06,81.06,0,0,1-8.51-5c-4.21-2.72-8.31-5.66-12.52-8.37-8-5.13-16.15-6-24.56-1.26C274.72,177.85,273,178.52,271.24,179.31Z"/><path class="cls-6" d="M189.17,158c-2.72,3.64-5.48,7.23-8.13,10.93a13.27,13.27,0,0,0-2,3.94c-.33,1.19-.57,3,0,3.76s2.29,1,3.35.68a47.66,47.66,0,0,0,6.74-2.58c8.81-3.84,17.71-4.63,26.59-.56,2.1,1,3.84,2.92,5.75,4.42-1.93-.81-3.9-1.51-5.76-2.46-6.78-3.46-13.51-3.09-20,.65-5.23,3-10.19,6.61-15.31,9.85a71.13,71.13,0,0,1-8.8,5.06c-3.16,1.42-4.87-.34-3.64-3.89A78.34,78.34,0,0,1,174,174.1,46.12,46.12,0,0,1,189.17,158Z"/><path class="cls-7" d="M225.34,233.64a6,6,0,0,1,1.55-7.35,18.7,18.7,0,0,1,5.88-3.7,39.47,39.47,0,0,1,28.23-.08,19.22,19.22,0,0,1,4.45,2.36c3.38,2.37,4,4.4,3.13,8.78C258.87,248.63,234.88,248.46,225.34,233.64ZM247,227.39c2.11-.42,4.14-.73,6.12-1.26.6-.16,1.08-.92,1.61-1.4-.48-.52-.87-1.3-1.44-1.51a17.74,17.74,0,0,0-12.67,0c-.58.21-1,1-1.48,1.48.52.49,1,1.27,1.57,1.42C242.81,226.66,244.94,227,247,227.39Z"/><path class="cls-6" d="M225.34,233.64c9.54,14.82,33.53,15,43.24,0,0,5.82-3.3,9.48-7.06,12.38-8.9,6.87-23.82,5.65-31.84-2.41C227.09,241,225.16,237.87,225.34,233.64Z"/><path class="cls-8" d="M247,227.39c-2.08-.4-4.21-.73-6.29-1.28-.59-.15-1-.93-1.57-1.42.49-.51.9-1.27,1.48-1.48a17.74,17.74,0,0,1,12.67,0c.57.21,1,1,1.44,1.51-.53.48-1,1.24-1.61,1.4C251.16,226.66,249.13,227,247,227.39Z"/><ellipse class="cls-9" cx="246.95" cy="224.72" rx="7.79" ry="2.67"/><circle class="cls-10" cx="205.92" cy="183.07" r="2.79"/><circle class="cls-10" cx="290.28" cy="183.07" r="2.79"/><path class="cls-11" d="M368,426.15a218,218,0,0,0,77.9-127.27l-9,3.38c-71.73,27.07-142.77,55.9-213.8,84.73q-48.48,19.67-97,39.16Z"/><text/><path class="cls-11" d="M389.39,56A217.29,217.29,0,0,0,245.78,2C126.73,2,30,97.37,27.7,215.87,42,208.92,363.7,65.77,389.39,56Z"/><path class="cls-11" d="M369.12,76c-75,29-330.59,145.47-358.51,158.41A4,4,0,0,0,8.29,238v0a217.23,217.23,0,0,0,20.57,92.56,4,4,0,0,0,5.1,2.07q20.74-8,41.43-16.07c77.23-30.16,154-61.55,230.61-93.12q62.25-25.65,124.48-51.28a4,4,0,0,0,2.27-5,218.27,218.27,0,0,0-59.49-90.38A4,4,0,0,0,369.12,76Z"/><path class="cls-11" d="M121,416.14c8.67-3.44,17.33-6.93,26-10.4,71.1-28.49,141.9-57.72,213.1-85.95q50.94-20.21,102.23-39.51a219.28,219.28,0,0,0-6.14-107.1L426.49,185.4c-77.69,32-155.26,64.19-233.17,95.6Q134.55,304.69,75.5,327.62,64.23,332,52.93,336.25A219.07,219.07,0,0,0,121,416.14Z"/><polygon class="cls-4" points="321.49 74.66 148.54 74.66 62.06 224.44 148.54 374.21 321.49 374.21 407.96 224.44 321.49 74.66"/><path class="cls-5" d="M148.17,267.63c-5.42-18.06-2.07-32,11.06-43.83,8.47-7.63,17.36-14.67,26-22.1a57.78,57.78,0,0,0,6.46-6.79c7.13-8.58,6.77-12.14-1.68-18.4-3.41-2.68-6.52-6.17-10.26-7.89-15.87-7.28-31.76-5.85-47.49,1a86.9,86.9,0,0,1-12,4.61c-1.9.5-4.89.16-6-1.22s-.57-4.59,0-6.72a23.06,23.06,0,0,1,3.53-7c4.73-6.61,9.67-13,14.52-19.53,13.36-12.29,28.58-11.58,44.17-8,19.29,4.47,37.3,12.83,54.51,23.43,3.29,2,5.71,2.06,9,0,19-11.66,38.95-20.71,60.49-24.65,13.82-2.53,26.82-1.14,38.21,9.13,2.42,3.1,5,6,7.23,9.33,3.86,5.79,8,11.48,11,17.8,2.55,5.3,0,8.68-5.22,7.51a52.2,52.2,0,0,1-11.07-3.82c-9.85-4.71-20.07-7.39-30.73-6.56-11.56.9-22.62,3.82-31.06,13.9-5.7,5.16-6.45,8.4-1.42,14.29,5.83,6.84,12.43,12.89,19,18.91,5,4.59,10.54,8.36,15.53,12.92,13.51,12.35,16.72,27.74,9.93,46.18-1.33,2.22-2.58,4.51-4,6.64-5.31,7.95-9.92,16.72-16.16,23.61-20.74,22.9-46.06,31.27-74.82,28.89-31.95-2.64-55.43-20.17-72.44-50C152.26,275.47,150.25,271.52,148.17,267.63Zm125.93,7.29c1.63-7.82.45-11.46-5.58-15.68a34.8,34.8,0,0,0-8-4.22c-16.8-6.11-33.68-6.18-50.41.15a33.13,33.13,0,0,0-10.5,6.6c-3.54,3.28-5.23,7.85-2.77,13.13-.32,7.55,3.13,13.19,7.75,17.83,14.32,14.38,41,16.56,56.86,4.3C268.21,291.84,274.08,285.32,274.1,274.92Z"/><path class="cls-6" d="M148.17,267.63c2.08,3.89,4.09,7.84,6.27,11.67,17,29.84,40.49,47.37,72.44,50,28.76,2.38,54.08-6,74.82-28.89,6.24-6.89,10.85-15.66,16.16-23.61,1.42-2.13,2.67-4.42,4-6.64-1.54,4.2-2.64,8.7-4.7,12.55C302.08,311,281,331.41,253.74,343.41c-11.63,5.11-23.37,5.57-35.14.53-29.1-12.47-51.33-34-66.44-64.75C150.4,275.61,149.48,271.5,148.17,267.63Z"/><path class="cls-6" d="M278.85,177.87c8.44-10.08,19.5-13,31.06-13.9,10.66-.83,20.88,1.85,30.73,6.56a52.2,52.2,0,0,0,11.07,3.82c5.19,1.17,7.77-2.21,5.22-7.51-3.05-6.32-7.15-12-11-17.8-2.19-3.29-4.81-6.23-7.23-9.33,18.08,12.54,30.86,30,37.77,52.69.64,2.08.6,5.9-.5,6.82-1.51,1.26-4.66,1.38-6.53.48a146.48,146.48,0,0,1-15.19-8.9c-7.52-4.87-14.84-10.11-22.37-15C317.63,166.7,303,165.08,288,173.59,285.07,175.27,281.91,176.46,278.85,177.87Z"/><path class="cls-6" d="M132.28,139.74c-4.85,6.49-9.79,12.92-14.52,19.53a23.06,23.06,0,0,0-3.53,7c-.6,2.13-1,5.46,0,6.72s4.09,1.72,6,1.22a86.9,86.9,0,0,0,12-4.61c15.73-6.85,31.62-8.28,47.49-1,3.74,1.72,6.85,5.21,10.26,7.89-3.43-1.45-6.95-2.69-10.28-4.4-12.11-6.18-24.13-5.51-35.71,1.18-9.33,5.39-18.19,11.79-27.34,17.57-5.13,3.24-10.26,6.63-15.7,9-5.66,2.53-8.71-.61-6.51-6.95a140,140,0,0,1,10.82-24.4C112.19,156.69,121.11,146.76,132.28,139.74Z"/><path class="cls-7" d="M196.88,274.9c-2.46-5.28-.77-9.85,2.77-13.13a33.13,33.13,0,0,1,10.5-6.6c16.73-6.33,33.61-6.26,50.41-.15a34.8,34.8,0,0,1,8,4.22c6,4.22,7.21,7.86,5.58,15.68C256.77,301.66,213.92,301.37,196.88,274.9Zm38.71-11.16c3.78-.74,7.4-1.3,10.94-2.25,1.07-.28,1.92-1.64,2.87-2.5-.85-.93-1.56-2.32-2.56-2.7a31.72,31.72,0,0,0-22.64,0c-1,.37-1.77,1.74-2.64,2.64.93.88,1.75,2.27,2.8,2.54C228.09,262.43,231.89,263,235.59,263.74Z"/><path class="cls-6" d="M196.88,274.9c17,26.47,59.89,26.76,77.22,0,0,10.4-5.89,16.92-12.61,22.11-15.89,12.26-42.54,10.08-56.86-4.3C200,288.09,196.56,282.45,196.88,274.9Z"/><path class="cls-8" d="M235.59,263.74c-3.7-.72-7.5-1.31-11.23-2.29-1.05-.27-1.87-1.66-2.8-2.54.87-.9,1.61-2.27,2.64-2.64a31.72,31.72,0,0,1,22.64,0c1,.38,1.71,1.77,2.56,2.7-1,.86-1.8,2.22-2.87,2.5C243,262.44,239.37,263,235.59,263.74Z"/><ellipse class="cls-9" cx="235.48" cy="258.96" rx="13.92" ry="4.77"/><circle class="cls-10" cx="162.2" cy="184.58" r="4.99"/><circle class="cls-10" cx="312.86" cy="184.58" r="4.99"/><path class="cls-11" d="M368,426.15a218,218,0,0,0,77.9-127.27l-9,3.38c-71.73,27.07-142.77,55.9-213.8,84.73q-48.48,19.67-97,39.16Z"/><text/><path class="cls-11" d="M389.39,56A217.29,217.29,0,0,0,245.78,2C126.73,2,30,97.37,27.7,215.87,42,208.92,363.7,65.77,389.39,56Z"/><path class="cls-11" d="M369.12,76c-75,29-330.59,145.47-358.51,158.41A4,4,0,0,0,8.29,238v0a217.23,217.23,0,0,0,20.57,92.56,4,4,0,0,0,5.1,2.07q20.74-8,41.43-16.07c77.23-30.16,154-61.55,230.61-93.12q62.25-25.65,124.48-51.28a4,4,0,0,0,2.27-5,218.27,218.27,0,0,0-59.49-90.38A4,4,0,0,0,369.12,76Z"/><path class="cls-11" d="M121,416.14c8.67-3.44,17.33-6.93,26-10.4,71.1-28.49,141.9-57.72,213.1-85.95q50.94-20.21,102.23-39.51a219.28,219.28,0,0,0-6.14-107.1L426.49,185.4c-77.69,32-155.26,64.19-233.17,95.6Q134.55,304.69,75.5,327.62,64.23,332,52.93,336.25A219.07,219.07,0,0,0,121,416.14Z"/><polygon class="cls-4" points="321.49 74.66 148.54 74.66 62.06 224.44 148.54 374.21 321.49 374.21 407.96 224.44 321.49 74.66"/><path class="cls-5" d="M148.17,267.63c-5.42-18.06-2.07-32,11.06-43.83,8.47-7.63,17.36-14.67,26-22.1a57.78,57.78,0,0,0,6.46-6.79c7.13-8.58,6.77-12.14-1.68-18.4-3.41-2.68-6.52-6.17-10.26-7.89-15.87-7.28-31.76-5.85-47.49,1a86.9,86.9,0,0,1-12,4.61c-1.9.5-4.89.16-6-1.22s-.57-4.59,0-6.72a23.06,23.06,0,0,1,3.53-7c4.73-6.61,9.67-13,14.52-19.53,13.36-12.29,28.58-11.58,44.17-8,19.29,4.47,37.3,12.83,54.51,23.43,3.29,2,5.71,2.06,9,0,19-11.66,38.95-20.71,60.49-24.65,13.82-2.53,26.82-1.14,38.21,9.13,2.42,3.1,5,6,7.23,9.33,3.86,5.79,8,11.48,11,17.8,2.55,5.3,0,8.68-5.22,7.51a52.2,52.2,0,0,1-11.07-3.82c-9.85-4.71-20.07-7.39-30.73-6.56-11.56.9-22.62,3.82-31.06,13.9-5.7,5.16-6.45,8.4-1.42,14.29,5.83,6.84,12.43,12.89,19,18.91,5,4.59,10.54,8.36,15.53,12.92,13.51,12.35,16.72,27.74,9.93,46.18-1.33,2.22-2.58,4.51-4,6.64-5.31,7.95-9.92,16.72-16.16,23.61-20.74,22.9-46.06,31.27-74.82,28.89-31.95-2.64-55.43-20.17-72.44-50C152.26,275.47,150.25,271.52,148.17,267.63Zm125.93,7.29c1.63-7.82.45-11.46-5.58-15.68a34.8,34.8,0,0,0-8-4.22c-16.8-6.11-33.68-6.18-50.41.15a33.13,33.13,0,0,0-10.5,6.6c-3.54,3.28-5.23,7.85-2.77,13.13-.32,7.55,3.13,13.19,7.75,17.83,14.32,14.38,41,16.56,56.86,4.3C268.21,291.84,274.08,285.32,274.1,274.92Z"/><path class="cls-6" d="M148.17,267.63c2.08,3.89,4.09,7.84,6.27,11.67,17,29.84,40.49,47.37,72.44,50,28.76,2.38,54.08-6,74.82-28.89,6.24-6.89,10.85-15.66,16.16-23.61,1.42-2.13,2.67-4.42,4-6.64-1.54,4.2-2.64,8.7-4.7,12.55C302.08,311,281,331.41,253.74,343.41c-11.63,5.11-23.37,5.57-35.14.53-29.1-12.47-51.33-34-66.44-64.75C150.4,275.61,149.48,271.5,148.17,267.63Z"/><path class="cls-6" d="M278.85,177.87c8.44-10.08,19.5-13,31.06-13.9,10.66-.83,20.88,1.85,30.73,6.56a52.2,52.2,0,0,0,11.07,3.82c5.19,1.17,7.77-2.21,5.22-7.51-3.05-6.32-7.15-12-11-17.8-2.19-3.29-4.81-6.23-7.23-9.33,18.08,12.54,30.86,30,37.77,52.69.64,2.08.6,5.9-.5,6.82-1.51,1.26-4.66,1.38-6.53.48a146.48,146.48,0,0,1-15.19-8.9c-7.52-4.87-14.84-10.11-22.37-15C317.63,166.7,303,165.08,288,173.59,285.07,175.27,281.91,176.46,278.85,177.87Z"/><path class="cls-6" d="M132.28,139.74c-4.85,6.49-9.79,12.92-14.52,19.53a23.06,23.06,0,0,0-3.53,7c-.6,2.13-1,5.46,0,6.72s4.09,1.72,6,1.22a86.9,86.9,0,0,0,12-4.61c15.73-6.85,31.62-8.28,47.49-1,3.74,1.72,6.85,5.21,10.26,7.89-3.43-1.45-6.95-2.69-10.28-4.4-12.11-6.18-24.13-5.51-35.71,1.18-9.33,5.39-18.19,11.79-27.34,17.57-5.13,3.24-10.26,6.63-15.7,9-5.66,2.53-8.71-.61-6.51-6.95a140,140,0,0,1,10.82-24.4C112.19,156.69,121.11,146.76,132.28,139.74Z"/><path class="cls-7" d="M196.88,274.9c-2.46-5.28-.77-9.85,2.77-13.13a33.13,33.13,0,0,1,10.5-6.6c16.73-6.33,33.61-6.26,50.41-.15a34.8,34.8,0,0,1,8,4.22c6,4.22,7.21,7.86,5.58,15.68C256.77,301.66,213.92,301.37,196.88,274.9Zm38.71-11.16c3.78-.74,7.4-1.3,10.94-2.25,1.07-.28,1.92-1.64,2.87-2.5-.85-.93-1.56-2.32-2.56-2.7a31.72,31.72,0,0,0-22.64,0c-1,.37-1.77,1.74-2.64,2.64.93.88,1.75,2.27,2.8,2.54C228.09,262.43,231.89,263,235.59,263.74Z"/><path class="cls-6" d="M196.88,274.9c17,26.47,59.89,26.76,77.22,0,0,10.4-5.89,16.92-12.61,22.11-15.89,12.26-42.54,10.08-56.86-4.3C200,288.09,196.56,282.45,196.88,274.9Z"/><path class="cls-8" d="M235.59,263.74c-3.7-.72-7.5-1.31-11.23-2.29-1.05-.27-1.87-1.66-2.8-2.54.87-.9,1.61-2.27,2.64-2.64a31.72,31.72,0,0,1,22.64,0c1,.38,1.71,1.77,2.56,2.7-1,.86-1.8,2.22-2.87,2.5C243,262.44,239.37,263,235.59,263.74Z"/><ellipse class="cls-9" cx="235.48" cy="258.96" rx="13.92" ry="4.77"/><circle class="cls-10" cx="162.2" cy="184.58" r="4.99"/><circle class="cls-10" cx="312.86" cy="184.58" r="4.99"/><path class="cls-12" d="M368,426.15a218,218,0,0,0,77.9-127.27l-9,3.38c-71.73,27.07-142.77,55.9-213.8,84.73q-48.48,19.67-97,39.16Z"/><text/><path class="cls-12" d="M389.39,56A217.29,217.29,0,0,0,245.78,2C126.73,2,30,97.37,27.7,215.87,42,208.92,363.7,65.77,389.39,56Z"/><path class="cls-12" d="M369.12,76c-75,29-330.59,145.47-358.51,158.41A4,4,0,0,0,8.29,238v0a217.23,217.23,0,0,0,20.57,92.56,4,4,0,0,0,5.1,2.07q20.74-8,41.43-16.07c77.23-30.16,154-61.55,230.61-93.12q62.25-25.65,124.48-51.28a4,4,0,0,0,2.27-5,218.27,218.27,0,0,0-59.49-90.38A4,4,0,0,0,369.12,76Z"/><path class="cls-12" d="M121,416.14c8.67-3.44,17.33-6.93,26-10.4,71.1-28.49,141.9-57.72,213.1-85.95q50.94-20.21,102.23-39.51a219.28,219.28,0,0,0-6.14-107.1L426.49,185.4c-77.69,32-155.26,64.19-233.17,95.6Q134.55,304.69,75.5,327.62,64.23,332,52.93,336.25A219.07,219.07,0,0,0,121,416.14Z"/><polygon class="cls-4" points="321.49 74.66 148.54 74.66 62.06 224.44 148.54 374.21 321.49 374.21 407.96 224.44 321.49 74.66"/><path class="cls-5" d="M148.17,267.63c-5.42-18.06-2.07-32,11.06-43.83,8.47-7.63,17.36-14.67,26-22.1a57.78,57.78,0,0,0,6.46-6.79c7.13-8.58,6.77-12.14-1.68-18.4-3.41-2.68-6.52-6.17-10.26-7.89-15.87-7.28-31.76-5.85-47.49,1a86.9,86.9,0,0,1-12,4.61c-1.9.5-4.89.16-6-1.22s-.57-4.59,0-6.72a23.06,23.06,0,0,1,3.53-7c4.73-6.61,9.67-13,14.52-19.53,13.36-12.29,28.58-11.58,44.17-8,19.29,4.47,37.3,12.83,54.51,23.43,3.29,2,5.71,2.06,9,0,19-11.66,38.95-20.71,60.49-24.65,13.82-2.53,26.82-1.14,38.21,9.13,2.42,3.1,5,6,7.23,9.33,3.86,5.79,8,11.48,11,17.8,2.55,5.3,0,8.68-5.22,7.51a52.2,52.2,0,0,1-11.07-3.82c-9.85-4.71-20.07-7.39-30.73-6.56-11.56.9-22.62,3.82-31.06,13.9-5.7,5.16-6.45,8.4-1.42,14.29,5.83,6.84,12.43,12.89,19,18.91,5,4.59,10.54,8.36,15.53,12.92,13.51,12.35,16.72,27.74,9.93,46.18-1.33,2.22-2.58,4.51-4,6.64-5.31,7.95-9.92,16.72-16.16,23.61-20.74,22.9-46.06,31.27-74.82,28.89-31.95-2.64-55.43-20.17-72.44-50C152.26,275.47,150.25,271.52,148.17,267.63Zm125.93,7.29c1.63-7.82.45-11.46-5.58-15.68a34.8,34.8,0,0,0-8-4.22c-16.8-6.11-33.68-6.18-50.41.15a33.13,33.13,0,0,0-10.5,6.6c-3.54,3.28-5.23,7.85-2.77,13.13-.32,7.55,3.13,13.19,7.75,17.83,14.32,14.38,41,16.56,56.86,4.3C268.21,291.84,274.08,285.32,274.1,274.92Z"/><path class="cls-6" d="M148.17,267.63c2.08,3.89,4.09,7.84,6.27,11.67,17,29.84,40.49,47.37,72.44,50,28.76,2.38,54.08-6,74.82-28.89,6.24-6.89,10.85-15.66,16.16-23.61,1.42-2.13,2.67-4.42,4-6.64-1.54,4.2-2.64,8.7-4.7,12.55C302.08,311,281,331.41,253.74,343.41c-11.63,5.11-23.37,5.57-35.14.53-29.1-12.47-51.33-34-66.44-64.75C150.4,275.61,149.48,271.5,148.17,267.63Z"/><path class="cls-6" d="M278.85,177.87c8.44-10.08,19.5-13,31.06-13.9,10.66-.83,20.88,1.85,30.73,6.56a52.2,52.2,0,0,0,11.07,3.82c5.19,1.17,7.77-2.21,5.22-7.51-3.05-6.32-7.15-12-11-17.8-2.19-3.29-4.81-6.23-7.23-9.33,18.08,12.54,30.86,30,37.77,52.69.64,2.08.6,5.9-.5,6.82-1.51,1.26-4.66,1.38-6.53.48a146.48,146.48,0,0,1-15.19-8.9c-7.52-4.87-14.84-10.11-22.37-15C317.63,166.7,303,165.08,288,173.59,285.07,175.27,281.91,176.46,278.85,177.87Z"/><path class="cls-6" d="M132.28,139.74c-4.85,6.49-9.79,12.92-14.52,19.53a23.06,23.06,0,0,0-3.53,7c-.6,2.13-1,5.46,0,6.72s4.09,1.72,6,1.22a86.9,86.9,0,0,0,12-4.61c15.73-6.85,31.62-8.28,47.49-1,3.74,1.72,6.85,5.21,10.26,7.89-3.43-1.45-6.95-2.69-10.28-4.4-12.11-6.18-24.13-5.51-35.71,1.18-9.33,5.39-18.19,11.79-27.34,17.57-5.13,3.24-10.26,6.63-15.7,9-5.66,2.53-8.71-.61-6.51-6.95a140,140,0,0,1,10.82-24.4C112.19,156.69,121.11,146.76,132.28,139.74Z"/><path class="cls-7" d="M196.88,274.9c-2.46-5.28-.77-9.85,2.77-13.13a33.13,33.13,0,0,1,10.5-6.6c16.73-6.33,33.61-6.26,50.41-.15a34.8,34.8,0,0,1,8,4.22c6,4.22,7.21,7.86,5.58,15.68C256.77,301.66,213.92,301.37,196.88,274.9Zm38.71-11.16c3.78-.74,7.4-1.3,10.94-2.25,1.07-.28,1.92-1.64,2.87-2.5-.85-.93-1.56-2.32-2.56-2.7a31.72,31.72,0,0,0-22.64,0c-1,.37-1.77,1.74-2.64,2.64.93.88,1.75,2.27,2.8,2.54C228.09,262.43,231.89,263,235.59,263.74Z"/><path class="cls-6" d="M196.88,274.9c17,26.47,59.89,26.76,77.22,0,0,10.4-5.89,16.92-12.61,22.11-15.89,12.26-42.54,10.08-56.86-4.3C200,288.09,196.56,282.45,196.88,274.9Z"/><path class="cls-8" d="M235.59,263.74c-3.7-.72-7.5-1.31-11.23-2.29-1.05-.27-1.87-1.66-2.8-2.54.87-.9,1.61-2.27,2.64-2.64a31.72,31.72,0,0,1,22.64,0c1,.38,1.71,1.77,2.56,2.7-1,.86-1.8,2.22-2.87,2.5C243,262.44,239.37,263,235.59,263.74Z"/><ellipse class="cls-9" cx="235.48" cy="258.96" rx="13.92" ry="4.77"/><circle class="cls-10" cx="162.2" cy="184.58" r="4.99"/><circle class="cls-10" cx="312.86" cy="184.58" r="4.99"/><path class="cls-13" d="M180.82,389.24c-13.57-.06-23.33,9.63-23.34,23.19A22.21,22.21,0,0,0,180,435.14c13.63,0,23.41-9.66,23.4-23.14A22.56,22.56,0,0,0,180.82,389.24Z"/><path class="cls-13" d="M423.48,252.72c13.64,0,23.42-9.66,23.4-23.15a22.56,22.56,0,0,0-22.56-22.75C410.76,206.75,401,216.45,401,230A22.21,22.21,0,0,0,423.48,252.72Z"/><path class="cls-14" d="M298,365.12c3.9-10,9-19.23,16.59-26.9,8-8.07,17.8-12.38,28.86-14,5.54-.83,5.44-.63,8.12,4.37,8.35,15.58,20.94,25,38.83,27.1,19.7,2.32,39.21-9.17,48.27-26a49.3,49.3,0,0,0-7.19-56.32,49.93,49.93,0,0,0-31.39-15.87c-21.78-2.7-42.83,11.44-50.1,30.3-.94,2.43-2.5,3.26-4.83,3.53-16.25,1.95-30.56,8.27-44.48,17.05C290,315.12,281,327.12,277,335.12h0c-4.62,9.29-19.34,42.95-25.28,51.14a46.4,46.4,0,0,1-28.2,18.4c-.39.09-.8.09-1.18.19-7,1.77-6.86,1.66-10.44-4.55-8.44-14.64-20.71-23.72-37.84-25.84-23.7-2.93-48,13.22-53.5,38.51-3.47,15.89.32,30.09,10.75,42.49,9.57,11.36,22,17.35,36.73,17.39,19,.06,33.48-8.65,43.31-25a12.09,12.09,0,0,0,1.86-3.4c.81-4.05,3.2-4.74,7.05-4.73,58,.14,74.68.38,132.65.38,7.82,0,9-.23,16.84-.33,1.84,0,2.82.44,3.59,2.24,4.91,11.46,12.69,20.44,24,25.76,18.56,8.71,36.21,6.59,52.28-6a46.78,46.78,0,0,0,18.53-37.05,49.42,49.42,0,0,0-39-49.51c-20.17-4.57-41.67,4.37-53.05,23.95a11.74,11.74,0,0,0-1.56,2.88c-1,4.43-3.74,5.2-8,5.18-44.32-.19-40.78-.13-85.1-.14h-4.32C287.57,394.16,293.7,380,298,365.12Zm96.1-81.28a22.57,22.57,0,0,1,23.8,22.73c0,13.49-9.76,23.16-23.4,23.15a22.2,22.2,0,0,1-22.49-22A23.38,23.38,0,0,1,394.08,283.84ZM168,446.14a22.21,22.21,0,0,1-22.5-22.71c0-13.56,9.77-23.25,23.34-23.19A22.56,22.56,0,0,1,191.38,423C191.39,436.48,181.61,446.16,168,446.14Zm250.93,0a22.22,22.22,0,0,1-22.5-22.71c0-13.56,9.78-23.25,23.34-23.19A22.56,22.56,0,0,1,442.31,423C442.33,436.48,432.55,446.16,418.91,446.14Z"/></g></g></svg>