<svg xmlns="http://www.w3.org/2000/svg" viewBox="0 0 500.47 709.04"><defs><style>.cls-1,.cls-11{fill:#f79021;}.cls-1,.cls-10,.cls-9{stroke:#333;}.cls-1,.cls-10,.cls-2,.cls-9{stroke-miterlimit:10;}.cls-1,.cls-9{stroke-width:4px;}.cls-10,.cls-2,.cls-5{fill:#333;}.cls-2{stroke:#fff;}.cls-10,.cls-2{stroke-width:2px;}.cls-3{fill:#fefefe;}.cls-4{fill:#bebebe;}.cls-6{fill:#f8f8f8;}.cls-7{fill:#f3f3f3;}.cls-8,.cls-9{fill:#fff;}.cls-9{opacity:0.97;}</style></defs><title>ezgitfinal</title><g id="Ebene_2" data-name="Ebene 2"><g id="Ebene_1-2" data-name="Ebene 1"><path class="cls-1" d="M391.89,461.78a236.37,236.37,0,0,0,84.44-138l-9.76,3.66c-77.76,29.34-154.77,60.59-231.76,91.84q-52.55,21.33-105.16,42.46Z"/><text/><path class="cls-1" d="M415.1,60.5A235.45,235.45,0,0,0,259.43,2C130.39,2,25.5,105.38,23,233.83,38.5,226.29,387.27,71.13,415.1,60.5Z"/><path class="cls-1" d="M393.13,82.18C311.8,113.66,34.78,239.87,4.52,253.9A4.3,4.3,0,0,0,2,257.81v0A235.47,235.47,0,0,0,24.3,358.17a4.38,4.38,0,0,0,5.53,2.25Q52.32,351.78,74.74,343c83.71-32.69,166.89-66.72,250-100.94q67.47-27.8,134.94-55.58a4.38,4.38,0,0,0,2.45-5.48,236.62,236.62,0,0,0-64.48-98A4.36,4.36,0,0,0,393.13,82.18Z"/><path class="cls-1" d="M124.22,450.93c9.4-3.73,18.78-7.52,28.17-11.28,77.06-30.88,153.81-62.56,231-93.17q55.22-21.9,110.82-42.83a237.65,237.65,0,0,0-6.66-116.09L455.32,200.8C371.11,235.45,287,270.38,202.57,304.43Q138.88,330.11,74.86,355q-12.23,4.72-24.47,9.35A237.57,237.57,0,0,0,124.22,450.93Z"/><polygon class="cls-2" points="341.5 80.76 154.03 80.76 60.29 243.12 154.03 405.47 341.5 405.47 435.24 243.12 341.5 80.76"/><path class="cls-3" d="M153.63,289.94c-5.88-19.58-2.24-34.7,12-47.51,9.19-8.27,18.83-15.9,28.16-24a62.67,62.67,0,0,0,7-7.36c7.73-9.3,7.34-13.16-1.82-19.94-3.69-2.91-7.06-6.69-11.12-8.56-17.2-7.89-34.42-6.34-51.48,1.09a93.76,93.76,0,0,1-13.06,5c-2.05.55-5.29.18-6.48-1.32s-.62-5,0-7.28a25.37,25.37,0,0,1,3.82-7.62c5.14-7.16,10.48-14.12,15.75-21.16,14.48-13.32,31-12.55,47.87-8.64,20.91,4.84,40.44,13.9,59.09,25.4,3.56,2.2,6.19,2.23,9.79,0,20.64-12.64,42.22-22.45,65.57-26.72,15-2.74,29.08-1.24,41.42,9.9,2.63,3.35,5.46,6.54,7.84,10.11,4.18,6.27,8.63,12.45,11.93,19.3,2.77,5.74,0,9.4-5.66,8.14a57.13,57.13,0,0,1-12-4.14c-10.68-5.12-21.76-8-33.31-7.11-12.53,1-24.53,4.14-33.68,15.06-6.17,5.59-7,9.11-1.54,15.49,6.33,7.41,13.48,14,20.57,20.5,5.39,5,11.42,9.06,16.84,14C345.79,256,349.27,272.7,341.9,292.7c-1.44,2.4-2.79,4.88-4.33,7.19-5.75,8.62-10.75,18.13-17.51,25.59-22.49,24.83-49.93,33.9-81.11,31.32-34.63-2.87-60.09-21.86-78.52-54.21C158.07,298.44,155.89,294.16,153.63,289.94Zm136.5,7.9c1.77-8.47.49-12.42-6-17a38.25,38.25,0,0,0-8.63-4.57c-18.21-6.62-36.51-6.7-54.65.17a35.8,35.8,0,0,0-11.37,7.15c-3.84,3.55-5.68,8.51-3,14.23-.35,8.18,3.4,14.3,8.4,19.33,15.52,15.59,44.41,18,61.64,4.66C283.75,316.19,290.11,309.11,290.13,297.84Z"/><path class="cls-4" d="M153.63,289.94c2.26,4.22,4.44,8.5,6.8,12.65,18.43,32.35,43.89,51.34,78.52,54.21,31.18,2.58,58.62-6.49,81.11-31.32,6.76-7.46,11.76-17,17.51-25.59,1.54-2.31,2.89-4.79,4.33-7.19-1.67,4.55-2.85,9.43-5.08,13.6-16.35,30.62-39.16,52.77-68.75,65.78-12.61,5.54-25.34,6.05-38.09.58-31.55-13.52-55.64-36.86-72-70.19C156,298.59,155.05,294.13,153.63,289.94Z"/><path class="cls-4" d="M295.28,192.64c9.15-10.92,21.15-14.09,33.68-15.06,11.55-.9,22.63,2,33.31,7.11a57.13,57.13,0,0,0,12,4.14c5.64,1.26,8.43-2.4,5.66-8.14-3.3-6.85-7.75-13-11.93-19.3-2.38-3.57-5.21-6.76-7.84-10.11,19.6,13.59,33.45,32.5,41,57.11.68,2.26.64,6.4-.55,7.39-1.63,1.37-5.05,1.51-7.07.52A155.56,155.56,0,0,1,377,206.65c-8.15-5.27-16.09-11-24.25-16.2-15.44-9.92-31.26-11.67-47.54-2.44C302,189.82,298.6,191.11,295.28,192.64Z"/><path class="cls-4" d="M136.41,151.31c-5.27,7-10.61,14-15.75,21.16a25.37,25.37,0,0,0-3.82,7.62c-.65,2.31-1.12,5.92,0,7.28s4.43,1.87,6.48,1.32a93.76,93.76,0,0,0,13.06-5c17.06-7.43,34.28-9,51.48-1.09,4.06,1.87,7.43,5.65,11.12,8.56-3.72-1.58-7.53-2.92-11.15-4.77-13.11-6.7-26.15-6-38.7,1.27-10.11,5.84-19.72,12.79-29.64,19.05-5.56,3.52-11.12,7.19-17,9.82-6.13,2.73-9.44-.67-7-7.54a151.79,151.79,0,0,1,11.73-26.45C114.63,169.68,124.3,158.92,136.41,151.31Z"/><path class="cls-5" d="M206.43,297.82c-2.67-5.72-.83-10.68,3-14.23a35.8,35.8,0,0,1,11.37-7.15c18.14-6.87,36.44-6.79,54.65-.17a38.25,38.25,0,0,1,8.63,4.57c6.53,4.58,7.81,8.53,6,17C271.35,326.83,224.9,326.51,206.43,297.82Zm42-12.1c4.09-.8,8-1.41,11.86-2.43,1.16-.31,2.08-1.78,3.11-2.72-.92-1-1.68-2.52-2.78-2.92a34.37,34.37,0,0,0-24.54,0c-1.11.41-1.91,1.89-2.86,2.87,1,.95,1.9,2.46,3,2.76C240.26,284.3,244.38,284.94,248.39,285.72Z"/><path class="cls-4" d="M206.43,297.82c18.47,28.69,64.92,29,83.7,0,0,11.27-6.38,18.35-13.66,24-17.23,13.29-46.12,10.93-61.64-4.66C209.83,312.12,206.08,306,206.43,297.82Z"/><path class="cls-6" d="M248.39,285.72c-4-.78-8.13-1.42-12.17-2.47-1.14-.3-2-1.81-3-2.76.95-1,1.75-2.46,2.86-2.87a34.37,34.37,0,0,1,24.54,0c1.1.4,1.86,1.92,2.78,2.92-1,.94-1.95,2.41-3.11,2.72C256.41,284.31,252.48,284.92,248.39,285.72Z"/><ellipse class="cls-7" cx="248.27" cy="280.55" rx="15.09" ry="5.18"/><circle class="cls-8" cx="168.83" cy="199.92" r="5.41"/><circle class="cls-8" cx="332.15" cy="199.92" r="5.41"/><path class="cls-9" d="M333.22,398.86c3.43-8.76,7.93-16.92,14.6-23.67,7-7.09,15.66-10.88,25.39-12.34,4.87-.74,4.78-.57,7.14,3.84,7.35,13.7,18.43,22,34.16,23.84,17.34,2,34.51-8.07,42.47-22.84a43.34,43.34,0,0,0-6.33-49.55,43.91,43.91,0,0,0-27.6-14c-19.17-2.37-37.69,10.07-44.09,26.66a4.51,4.51,0,0,1-4.25,3.11c-14.3,1.71-26.89,7.28-39.13,15-9.4,5.93-17.32,16.49-20.84,23.53h0c-4.06,8.17-17,37.78-22.24,45a40.83,40.83,0,0,1-24.81,16.19c-.34.08-.7.08-1,.16-6.2,1.56-6,1.47-9.18-4-7.43-12.89-18.22-20.87-33.3-22.74C203.32,404.5,182,418.71,177.1,441c-3,14,.29,26.47,9.47,37.38,8.42,10,19.39,15.27,32.31,15.3,16.71.05,29.45-7.61,38.11-22a10.57,10.57,0,0,0,1.63-3c.71-3.56,2.81-4.17,6.2-4.16,51,.12,65.71.33,116.71.33,6.89,0,7.94-.2,14.82-.28a2.84,2.84,0,0,1,3.16,2c4.31,10.07,11.16,18,21.14,22.66,16.32,7.66,31.85,5.8,46-5.28A41.17,41.17,0,0,0,483,451.33a43.49,43.49,0,0,0-34.32-43.56c-17.74-4-36.66,3.85-46.67,21.08a10.24,10.24,0,0,0-1.37,2.53c-.88,3.89-3.3,4.57-7,4.56-39-.17-35.87-.12-74.88-.13h-3.79C324.06,424.41,329.45,412,333.22,398.86Zm84.55-71.51a19.86,19.86,0,0,1,20.94,20c0,11.86-8.59,20.38-20.58,20.36a19.52,19.52,0,0,1-19.79-19.39A20.57,20.57,0,0,1,417.77,327.35ZM218.84,470.14a19.53,19.53,0,0,1-19.79-20c0-11.94,8.6-20.47,20.53-20.41a19.85,19.85,0,0,1,19.85,20C239.44,461.65,230.83,470.16,218.84,470.14Zm220.78,0a19.55,19.55,0,0,1-19.8-20c0-11.94,8.6-20.47,20.54-20.41a19.85,19.85,0,0,1,19.85,20C460.22,461.65,451.61,470.16,439.62,470.14Z"/><path class="cls-10" d="M341.6,565q-.11-7.56,6.38-14a28.29,28.29,0,0,1,15.61-8.05q9.14-1.57,15.56,1.91T385.58,556q0,7.57-6.48,14.78a26.58,26.58,0,0,1-15.61,8.79q-9.23,1.58-15.61-2.65A13.22,13.22,0,0,1,341.6,565Z"/><path class="cls-11" d="M19.05,683.71q13.65-72.91,23-134.2-5.82,2.28-11.63,4.68,2.4-20.6,6.82-48.39,51.95-19,118.27-32.23a486.22,486.22,0,0,0-8.84,48,457.41,457.41,0,0,0-66.09,14.66l-3.79,27.29q23.13-7.83,43.47-12.89-4.92,21.23-8.09,35-16.42,2.54-40,9.48-3,19.2-5.69,35.25,31.72-9.72,66.85-17.06-5.7,24.78-8.47,43.85Q75.15,664.5,19.05,683.71Z"/><path class="cls-11" d="M209.46,568.35q-31.62,4.71-66,17.67,2.16-16.39,5.5-38.1,44.47-12.27,104.46-19.34-3,16.89-5.2,34.07-33.18,42.51-58.12,69,29.85-7.84,55.27-12.07-3.82,18.95-5.79,33.08Q192,659.55,130.52,673.79a158.7,158.7,0,0,1,4.81-28.57A776.21,776.21,0,0,0,209.46,568.35Z"/><path class="cls-5" d="M270.92,700.3q-18.06-.69-22.92-25.87t3.68-57.09Q260,585.44,281,564.91T320.6,547q14.23,2.85,15.71,21a81.44,81.44,0,0,1-5.89,36.82l-31.81,15q2.75-29.05-3.24-28.86t-15.61,15.61q-7.67,13.35-10.21,35.64Q268,666,277,674.09q1.86,1.27,6.09.39T293,638.94l39.86-19.05q-8.73,51.15-13,73.83-11.48,4-40,15.32,1.49-6.67,4.23-20.62Q281.33,700,270.92,700.3Z"/><path class="cls-5" d="M326.2,700.89q12.66-60.87,19.63-111a140.31,140.31,0,0,1,31.42-8.74q-9.53,72.95-17.08,112.32Q339.65,696.57,326.2,700.89Z"/><path class="cls-5" d="M451.14,570q-9.58,67.78-16.51,103.8-21.64,12-35.49,18.75,11.73-60.84,19.72-113.38-15.78,5.22-31.44,11.72,2-17.37,5.75-40.81,43.8-16,99.75-27.18a407.3,407.3,0,0,0-7.46,40.5Q468.3,565.93,451.14,570Z"/></g></g></svg>