<svg xmlns="http://www.w3.org/2000/svg" viewBox="0 0 768.04 691.27"><defs><style>.cls-1{fill:#f39022;}.cls-1,.cls-11,.cls-9{stroke:#333;}.cls-1,.cls-11,.cls-2,.cls-9{stroke-miterlimit:10;}.cls-1,.cls-2{stroke-width:2px;}.cls-2,.cls-5{fill:#333;}.cls-2{stroke:#fff;}.cls-3{fill:#fefefe;}.cls-4{fill:#bebebe;}.cls-6{fill:#f8f8f8;}.cls-7{fill:#f3f3f3;}.cls-11,.cls-8{fill:#fff;}.cls-9{fill:#f79021;}.cls-11,.cls-9{stroke-width:4px;}.cls-10{fill:none;}.cls-11{opacity:0.97;}</style></defs><title>ez gitlab_1</title><g id="Ebene_2" data-name="Ebene 2"><g id="Ebene_1-2" data-name="Ebene 1"><path class="cls-1" d="M467,318.33a122,122,0,0,0,43.62-71.26l-5,1.89c-40.17,15.16-79.94,31.3-119.72,47.44q-27.13,11-54.32,21.93Z"/><text/><path class="cls-1" d="M479,111.05a122.12,122.12,0,0,0-202.51,89.54C284.44,196.69,464.6,116.54,479,111.05Z"/><path class="cls-1" d="M467.62,122.25c-42,16.26-185.1,81.46-200.73,88.7a2.23,2.23,0,0,0-1.3,2v0a121.53,121.53,0,0,0,11.52,51.82A2.24,2.24,0,0,0,280,266q11.63-4.46,23.2-9c43.24-16.88,86.21-34.46,129.13-52.14q34.84-14.36,69.7-28.71a2.26,2.26,0,0,0,1.27-2.83A122.44,122.44,0,0,0,470,122.68,2.28,2.28,0,0,0,467.62,122.25Z"/><path class="cls-1" d="M328.72,312.73q7.29-2.89,14.55-5.83c39.81-15.95,79.45-32.32,119.32-48.12q28.52-11.31,57.24-22.13a122.93,122.93,0,0,0-3.44-60l-16.64,6.83c-43.5,17.9-86.94,35.95-130.56,53.54q-32.9,13.26-66,26.1c-4.2,1.63-8.42,3.23-12.63,4.83A122.66,122.66,0,0,0,328.72,312.73Z"/><polygon class="cls-2" points="440.95 121.52 344.12 121.52 295.7 205.38 344.12 289.25 440.95 289.25 489.38 205.38 440.95 121.52"/><path class="cls-3" d="M343.91,229.57c-3-10.11-1.16-17.92,6.19-24.54,4.75-4.27,9.72-8.21,14.55-12.38a31.75,31.75,0,0,0,3.61-3.8c4-4.8,3.79-6.8-.94-10.3-1.91-1.5-3.65-3.46-5.74-4.42-8.89-4.07-17.78-3.28-26.6.56a47.2,47.2,0,0,1-6.74,2.58c-1.06.28-2.73.09-3.35-.68s-.32-2.57,0-3.76a13.24,13.24,0,0,1,2-3.94c2.65-3.7,5.42-7.29,8.14-10.93,7.48-6.88,16-6.48,24.73-4.46,10.8,2.5,20.88,7.18,30.52,13.12a4.19,4.19,0,0,0,5.05,0c10.66-6.53,21.81-11.6,33.87-13.81,7.74-1.41,15-.64,21.4,5.11,1.35,1.74,2.82,3.38,4.05,5.23a84.8,84.8,0,0,1,6.16,10c1.43,3,0,4.85-2.92,4.2a29,29,0,0,1-6.2-2.14c-5.51-2.64-11.24-4.14-17.2-3.67-6.48.5-12.67,2.14-17.4,7.78-3.19,2.89-3.61,4.71-.79,8a123.4,123.4,0,0,0,10.62,10.59c2.78,2.57,5.9,4.68,8.7,7.24,7.56,6.91,9.36,15.52,5.55,25.85-.74,1.24-1.44,2.52-2.23,3.72-3,4.45-5.56,9.36-9.05,13.22-11.62,12.82-25.79,17.51-41.89,16.18-17.89-1.48-31.05-11.3-40.57-28C346.2,234,345.08,231.75,343.91,229.57Zm70.51,4.08c.92-4.38.25-6.41-3.12-8.78a19.49,19.49,0,0,0-4.46-2.36,39.47,39.47,0,0,0-28.23.08,18.77,18.77,0,0,0-5.87,3.7,6,6,0,0,0-1.55,7.35c-.18,4.23,1.75,7.39,4.34,10,8,8.06,22.93,9.28,31.83,2.41C411.13,243.13,414.41,239.47,414.42,233.65Z"/><path class="cls-4" d="M343.91,229.57c1.17,2.18,2.29,4.39,3.51,6.53,9.52,16.71,22.68,26.53,40.57,28,16.1,1.33,30.27-3.36,41.89-16.18,3.49-3.86,6.07-8.77,9.05-13.22.79-1.2,1.49-2.48,2.23-3.72a55.55,55.55,0,0,1-2.62,7c-8.45,15.82-20.23,27.26-35.52,34a23.77,23.77,0,0,1-19.67.3Q358.9,261.83,346.14,236A53.56,53.56,0,0,1,343.91,229.57Z"/><path class="cls-4" d="M417.08,179.31c4.73-5.64,10.92-7.28,17.4-7.78,6-.47,11.69,1,17.2,3.67a29,29,0,0,0,6.2,2.14c2.91.65,4.35-1.24,2.92-4.2a84.8,84.8,0,0,0-6.16-10c-1.23-1.85-2.7-3.49-4.05-5.23,10.12,7,17.28,16.79,21.15,29.51.35,1.16.33,3.3-.28,3.81a3.88,3.88,0,0,1-3.66.27,82,82,0,0,1-8.5-5c-4.21-2.72-8.31-5.66-12.53-8.37-8-5.13-16.14-6-24.55-1.26C420.57,177.85,418.8,178.52,417.08,179.31Z"/><path class="cls-4" d="M335,158c-2.72,3.64-5.49,7.23-8.14,10.93a13.24,13.24,0,0,0-2,3.94c-.34,1.19-.58,3,0,3.76s2.29,1,3.35.68a47.2,47.2,0,0,0,6.74-2.58c8.82-3.84,17.71-4.63,26.6-.56,2.09,1,3.83,2.92,5.74,4.42-1.92-.81-3.89-1.51-5.76-2.46-6.77-3.46-13.5-3.09-20,.65-5.22,3-10.18,6.61-15.31,9.85a70.29,70.29,0,0,1-8.79,5.06c-3.17,1.42-4.88-.34-3.64-3.89a77.6,77.6,0,0,1,6.06-13.66A46,46,0,0,1,335,158Z"/><path class="cls-5" d="M371.19,233.64a6,6,0,0,1,1.55-7.35,18.77,18.77,0,0,1,5.87-3.7,39.47,39.47,0,0,1,28.23-.08,19.49,19.49,0,0,1,4.46,2.36c3.37,2.37,4,4.4,3.12,8.78C404.72,248.63,380.73,248.46,371.19,233.64Zm21.67-6.25c2.11-.42,4.14-.73,6.13-1.26.6-.16,1.07-.92,1.6-1.4-.47-.52-.87-1.3-1.43-1.51a17.76,17.76,0,0,0-12.68,0c-.57.21-1,1-1.48,1.48.52.49,1,1.27,1.57,1.42C388.66,226.66,390.79,227,392.86,227.39Z"/><path class="cls-4" d="M371.19,233.64c9.54,14.82,33.53,15,43.23,0,0,5.82-3.29,9.48-7.06,12.38-8.9,6.87-23.82,5.65-31.83-2.41C372.94,241,371,237.87,371.19,233.64Z"/><path class="cls-6" d="M392.86,227.39c-2.07-.4-4.2-.73-6.29-1.28-.58-.15-1.05-.93-1.57-1.42.49-.51.91-1.27,1.48-1.48a17.76,17.76,0,0,1,12.68,0c.56.21,1,1,1.43,1.51-.53.48-1,1.24-1.6,1.4C397,226.66,395,227,392.86,227.39Z"/><ellipse class="cls-7" cx="392.8" cy="224.72" rx="7.79" ry="2.67"/><circle class="cls-8" cx="351.77" cy="183.07" r="2.79"/><circle class="cls-8" cx="436.13" cy="183.07" r="2.79"/><path class="cls-9" d="M513.82,426.15a218,218,0,0,0,77.89-127.27l-9,3.38C511,329.33,439.93,358.16,368.9,387q-48.47,19.67-97,39.16Z"/><text/><path class="cls-9" d="M535.23,56A217.27,217.27,0,0,0,391.62,2c-119,0-215.8,95.37-218.07,213.87C187.81,208.92,509.55,65.77,535.23,56Z"/><path class="cls-9" d="M515,76c-75,29-330.58,145.47-358.5,158.41a4,4,0,0,0-2.33,3.61v0a217.23,217.23,0,0,0,20.57,92.56,4,4,0,0,0,5.1,2.07q20.76-8,41.44-16.07c77.22-30.16,154-61.55,230.61-93.12q62.23-25.65,124.48-51.28a4,4,0,0,0,2.27-5,218.37,218.37,0,0,0-59.49-90.38A4,4,0,0,0,515,76Z"/><path class="cls-9" d="M266.89,416.14c8.67-3.44,17.32-6.93,26-10.4C364,377.25,434.76,348,506,319.79q50.94-20.21,102.23-39.51a219.4,219.4,0,0,0-6.13-107.1L572.33,185.4c-77.68,32-155.26,64.19-233.17,95.6q-58.76,23.69-117.81,46.62-11.28,4.36-22.57,8.63A219.07,219.07,0,0,0,266.89,416.14Z"/><polygon class="cls-2" points="467.33 74.66 294.38 74.66 207.91 224.44 294.38 374.21 467.33 374.21 553.8 224.44 467.33 74.66"/><path class="cls-3" d="M294,267.63c-5.42-18.06-2.06-32,11.06-43.83,8.47-7.63,17.36-14.67,26-22.1a58.53,58.53,0,0,0,6.45-6.79c7.14-8.58,6.78-12.14-1.68-18.4-3.4-2.68-6.51-6.17-10.26-7.89-15.86-7.28-31.75-5.85-47.49,1a86.42,86.42,0,0,1-12,4.61c-1.89.5-4.88.16-6-1.22s-.58-4.59,0-6.72a23.52,23.52,0,0,1,3.53-7c4.74-6.61,9.67-13,14.53-19.53,13.36-12.29,28.57-11.58,44.16-8,19.29,4.47,37.3,12.83,54.51,23.43,3.29,2,5.71,2.06,9,0,19-11.66,38.95-20.71,60.49-24.65,13.83-2.53,26.83-1.14,38.21,9.13,2.43,3.1,5,6,7.23,9.33,3.86,5.79,8,11.48,11,17.8,2.56,5.3,0,8.68-5.22,7.51a51.92,51.92,0,0,1-11.06-3.82c-9.85-4.71-20.07-7.39-30.73-6.56-11.56.9-22.63,3.82-31.07,13.9-5.69,5.16-6.44,8.4-1.42,14.29,5.84,6.84,12.44,12.89,19,18.91,5,4.59,10.54,8.36,15.54,12.92,13.51,12.35,16.71,27.74,9.92,46.18-1.33,2.22-2.57,4.51-4,6.64-5.3,7.95-9.91,16.72-16.15,23.61-20.75,22.9-46.07,31.27-74.82,28.89-32-2.64-55.44-20.17-72.44-50C298.11,275.47,296.1,271.52,294,267.63Zm125.93,7.29c1.63-7.82.45-11.46-5.58-15.68a34.53,34.53,0,0,0-7.95-4.22c-16.8-6.11-33.68-6.18-50.42.15a33,33,0,0,0-10.49,6.6c-3.54,3.28-5.24,7.85-2.77,13.13-.32,7.55,3.13,13.19,7.75,17.83,14.31,14.38,41,16.56,56.86,4.3C414.06,291.84,419.92,285.32,419.94,274.92Z"/><path class="cls-4" d="M294,267.63c2.09,3.89,4.1,7.84,6.28,11.67,17,29.84,40.49,47.37,72.44,50,28.75,2.38,54.07-6,74.82-28.89,6.24-6.89,10.85-15.66,16.15-23.61,1.43-2.13,2.67-4.42,4-6.64-1.54,4.2-2.64,8.7-4.69,12.55-15.08,28.25-36.13,48.69-63.43,60.69-11.62,5.11-23.37,5.57-35.13.53q-43.67-18.7-66.45-64.75C296.24,275.61,295.32,271.5,294,267.63Z"/><path class="cls-4" d="M424.69,177.87c8.44-10.08,19.51-13,31.07-13.9,10.66-.83,20.88,1.85,30.73,6.56a51.92,51.92,0,0,0,11.06,3.82c5.2,1.17,7.78-2.21,5.22-7.51-3-6.32-7.15-12-11-17.8-2.19-3.29-4.8-6.23-7.23-9.33,18.08,12.54,30.87,30,37.78,52.69.63,2.08.59,5.9-.51,6.82-1.5,1.26-4.65,1.38-6.52.48a145.44,145.44,0,0,1-15.19-8.9c-7.52-4.87-14.85-10.11-22.38-15-14.24-9.15-28.83-10.77-43.85-2.26C430.92,175.27,427.75,176.46,424.69,177.87Z"/><path class="cls-4" d="M278.13,139.74c-4.86,6.49-9.79,12.92-14.53,19.53a23.52,23.52,0,0,0-3.53,7c-.6,2.13-1,5.46,0,6.72s4.09,1.72,6,1.22a86.42,86.42,0,0,0,12-4.61c15.74-6.85,31.63-8.28,47.49-1,3.75,1.72,6.86,5.21,10.26,7.89-3.43-1.45-6.95-2.69-10.28-4.4-12.1-6.18-24.12-5.51-35.71,1.18-9.32,5.39-18.18,11.79-27.34,17.57-5.13,3.24-10.26,6.63-15.7,9-5.65,2.53-8.71-.61-6.5-6.95a140,140,0,0,1,10.82-24.4C258,156.69,267,146.76,278.13,139.74Z"/><path class="cls-5" d="M342.73,274.9c-2.47-5.28-.77-9.85,2.77-13.13a33,33,0,0,1,10.49-6.6c16.74-6.33,33.62-6.26,50.42-.15a34.53,34.53,0,0,1,7.95,4.22c6,4.22,7.21,7.86,5.58,15.68C402.61,301.66,359.76,301.37,342.73,274.9Zm38.71-11.16c3.77-.74,7.39-1.3,10.94-2.25,1.07-.28,1.91-1.64,2.86-2.5-.84-.93-1.55-2.32-2.56-2.7a31.72,31.72,0,0,0-22.64,0c-1,.37-1.77,1.74-2.64,2.64.93.88,1.76,2.27,2.81,2.54C373.93,262.43,377.73,263,381.44,263.74Z"/><path class="cls-4" d="M342.73,274.9c17,26.47,59.88,26.76,77.21,0,0,10.4-5.88,16.92-12.6,22.11-15.9,12.26-42.55,10.08-56.86-4.3C345.86,288.09,342.41,282.45,342.73,274.9Z"/><path class="cls-6" d="M381.44,263.74c-3.71-.72-7.51-1.31-11.23-2.29-1-.27-1.88-1.66-2.81-2.54.87-.9,1.62-2.27,2.64-2.64a31.72,31.72,0,0,1,22.64,0c1,.38,1.72,1.77,2.56,2.7-.95.86-1.79,2.22-2.86,2.5C388.83,262.44,385.21,263,381.44,263.74Z"/><ellipse class="cls-7" cx="381.32" cy="258.96" rx="13.92" ry="4.77"/><circle class="cls-8" cx="308.04" cy="184.58" r="4.99"/><circle class="cls-8" cx="458.71" cy="184.58" r="4.99"/><path class="cls-9" d="M513.82,426.15a218,218,0,0,0,77.89-127.27l-9,3.38C511,329.33,439.93,358.16,368.9,387q-48.47,19.67-97,39.16Z"/><text/><path class="cls-9" d="M535.23,56A217.27,217.27,0,0,0,391.62,2c-119,0-215.8,95.37-218.07,213.87C187.81,208.92,509.55,65.77,535.23,56Z"/><path class="cls-9" d="M515,76c-75,29-330.58,145.47-358.5,158.41a4,4,0,0,0-2.33,3.61v0a217.23,217.23,0,0,0,20.57,92.56,4,4,0,0,0,5.1,2.07q20.76-8,41.44-16.07c77.22-30.16,154-61.55,230.61-93.12q62.23-25.65,124.48-51.28a4,4,0,0,0,2.27-5,218.37,218.37,0,0,0-59.49-90.38A4,4,0,0,0,515,76Z"/><path class="cls-9" d="M266.89,416.14c8.67-3.44,17.32-6.93,26-10.4C364,377.25,434.76,348,506,319.79q50.94-20.21,102.23-39.51a219.4,219.4,0,0,0-6.13-107.1L572.33,185.4c-77.68,32-155.26,64.19-233.17,95.6q-58.76,23.69-117.81,46.62-11.28,4.36-22.57,8.63A219.07,219.07,0,0,0,266.89,416.14Z"/><polygon class="cls-2" points="467.33 74.66 294.38 74.66 207.91 224.44 294.38 374.21 467.33 374.21 553.8 224.44 467.33 74.66"/><path class="cls-3" d="M294,267.63c-5.42-18.06-2.06-32,11.06-43.83,8.47-7.63,17.36-14.67,26-22.1a58.53,58.53,0,0,0,6.45-6.79c7.14-8.58,6.78-12.14-1.68-18.4-3.4-2.68-6.51-6.17-10.26-7.89-15.86-7.28-31.75-5.85-47.49,1a86.42,86.42,0,0,1-12,4.61c-1.89.5-4.88.16-6-1.22s-.58-4.59,0-6.72a23.52,23.52,0,0,1,3.53-7c4.74-6.61,9.67-13,14.53-19.53,13.36-12.29,28.57-11.58,44.16-8,19.29,4.47,37.3,12.83,54.51,23.43,3.29,2,5.71,2.06,9,0,19-11.66,38.95-20.71,60.49-24.65,13.83-2.53,26.83-1.14,38.21,9.13,2.43,3.1,5,6,7.23,9.33,3.86,5.79,8,11.48,11,17.8,2.56,5.3,0,8.68-5.22,7.51a51.92,51.92,0,0,1-11.06-3.82c-9.85-4.71-20.07-7.39-30.73-6.56-11.56.9-22.63,3.82-31.07,13.9-5.69,5.16-6.44,8.4-1.42,14.29,5.84,6.84,12.44,12.89,19,18.91,5,4.59,10.54,8.36,15.54,12.92,13.51,12.35,16.71,27.74,9.92,46.18-1.33,2.22-2.57,4.51-4,6.64-5.3,7.95-9.91,16.72-16.15,23.61-20.75,22.9-46.07,31.27-74.82,28.89-32-2.64-55.44-20.17-72.44-50C298.11,275.47,296.1,271.52,294,267.63Zm125.93,7.29c1.63-7.82.45-11.46-5.58-15.68a34.53,34.53,0,0,0-7.95-4.22c-16.8-6.11-33.68-6.18-50.42.15a33,33,0,0,0-10.49,6.6c-3.54,3.28-5.24,7.85-2.77,13.13-.32,7.55,3.13,13.19,7.75,17.83,14.31,14.38,41,16.56,56.86,4.3C414.06,291.84,419.92,285.32,419.94,274.92Z"/><path class="cls-4" d="M294,267.63c2.09,3.89,4.1,7.84,6.28,11.67,17,29.84,40.49,47.37,72.44,50,28.75,2.38,54.07-6,74.82-28.89,6.24-6.89,10.85-15.66,16.15-23.61,1.43-2.13,2.67-4.42,4-6.64-1.54,4.2-2.64,8.7-4.69,12.55-15.08,28.25-36.13,48.69-63.43,60.69-11.62,5.11-23.37,5.57-35.13.53q-43.67-18.7-66.45-64.75C296.24,275.61,295.32,271.5,294,267.63Z"/><path class="cls-4" d="M424.69,177.87c8.44-10.08,19.51-13,31.07-13.9,10.66-.83,20.88,1.85,30.73,6.56a51.92,51.92,0,0,0,11.06,3.82c5.2,1.17,7.78-2.21,5.22-7.51-3-6.32-7.15-12-11-17.8-2.19-3.29-4.8-6.23-7.23-9.33,18.08,12.54,30.87,30,37.78,52.69.63,2.08.59,5.9-.51,6.82-1.5,1.26-4.65,1.38-6.52.48a145.44,145.44,0,0,1-15.19-8.9c-7.52-4.87-14.85-10.11-22.38-15-14.24-9.15-28.83-10.77-43.85-2.26C430.92,175.27,427.75,176.46,424.69,177.87Z"/><path class="cls-4" d="M278.13,139.74c-4.86,6.49-9.79,12.92-14.53,19.53a23.52,23.52,0,0,0-3.53,7c-.6,2.13-1,5.46,0,6.72s4.09,1.72,6,1.22a86.42,86.42,0,0,0,12-4.61c15.74-6.85,31.63-8.28,47.49-1,3.75,1.72,6.86,5.21,10.26,7.89-3.43-1.45-6.95-2.69-10.28-4.4-12.1-6.18-24.12-5.51-35.71,1.18-9.32,5.39-18.18,11.79-27.34,17.57-5.13,3.24-10.26,6.63-15.7,9-5.65,2.53-8.71-.61-6.5-6.95a140,140,0,0,1,10.82-24.4C258,156.69,267,146.76,278.13,139.74Z"/><path class="cls-5" d="M342.73,274.9c-2.47-5.28-.77-9.85,2.77-13.13a33,33,0,0,1,10.49-6.6c16.74-6.33,33.62-6.26,50.42-.15a34.53,34.53,0,0,1,7.95,4.22c6,4.22,7.21,7.86,5.58,15.68C402.61,301.66,359.76,301.37,342.73,274.9Zm38.71-11.16c3.77-.74,7.39-1.3,10.94-2.25,1.07-.28,1.91-1.64,2.86-2.5-.84-.93-1.55-2.32-2.56-2.7a31.72,31.72,0,0,0-22.64,0c-1,.37-1.77,1.74-2.64,2.64.93.88,1.76,2.27,2.81,2.54C373.93,262.43,377.73,263,381.44,263.74Z"/><path class="cls-4" d="M342.73,274.9c17,26.47,59.88,26.76,77.21,0,0,10.4-5.88,16.92-12.6,22.11-15.9,12.26-42.55,10.08-56.86-4.3C345.86,288.09,342.41,282.45,342.73,274.9Z"/><path class="cls-6" d="M381.44,263.74c-3.71-.72-7.51-1.31-11.23-2.29-1-.27-1.88-1.66-2.81-2.54.87-.9,1.62-2.27,2.64-2.64a31.72,31.72,0,0,1,22.64,0c1,.38,1.72,1.77,2.56,2.7-.95.86-1.79,2.22-2.86,2.5C388.83,262.44,385.21,263,381.44,263.74Z"/><ellipse class="cls-7" cx="381.32" cy="258.96" rx="13.92" ry="4.77"/><circle class="cls-8" cx="308.04" cy="184.58" r="4.99"/><circle class="cls-8" cx="458.71" cy="184.58" r="4.99"/><path class="cls-9" d="M513.82,426.15a218,218,0,0,0,77.89-127.27l-9,3.38C511,329.33,439.93,358.16,368.9,387q-48.47,19.67-97,39.16Z"/><text/><path class="cls-9" d="M535.23,56A217.27,217.27,0,0,0,391.62,2c-119,0-215.8,95.37-218.07,213.87C187.81,208.92,509.55,65.77,535.23,56Z"/><path class="cls-9" d="M515,76c-75,29-330.58,145.47-358.5,158.41a4,4,0,0,0-2.33,3.61v0a217.23,217.23,0,0,0,20.57,92.56,4,4,0,0,0,5.1,2.07q20.76-8,41.44-16.07c77.22-30.16,154-61.55,230.61-93.12q62.23-25.65,124.48-51.28a4,4,0,0,0,2.27-5,218.37,218.37,0,0,0-59.49-90.38A4,4,0,0,0,515,76Z"/><path class="cls-9" d="M266.89,416.14c8.67-3.44,17.32-6.93,26-10.4C364,377.25,434.76,348,506,319.79q50.94-20.21,102.23-39.51a219.4,219.4,0,0,0-6.13-107.1L572.33,185.4c-77.68,32-155.26,64.19-233.17,95.6q-58.76,23.69-117.81,46.62-11.28,4.36-22.57,8.63A219.07,219.07,0,0,0,266.89,416.14Z"/><polygon class="cls-2" points="467.33 74.66 294.38 74.66 207.91 224.44 294.38 374.21 467.33 374.21 553.8 224.44 467.33 74.66"/><path class="cls-3" d="M294,267.63c-5.42-18.06-2.06-32,11.06-43.83,8.47-7.63,17.36-14.67,26-22.1a58.53,58.53,0,0,0,6.45-6.79c7.14-8.58,6.78-12.14-1.68-18.4-3.4-2.68-6.51-6.17-10.26-7.89-15.86-7.28-31.75-5.85-47.49,1a86.42,86.42,0,0,1-12,4.61c-1.89.5-4.88.16-6-1.22s-.58-4.59,0-6.72a23.52,23.52,0,0,1,3.53-7c4.74-6.61,9.67-13,14.53-19.53,13.36-12.29,28.57-11.58,44.16-8,19.29,4.47,37.3,12.83,54.51,23.43,3.29,2,5.71,2.06,9,0,19-11.66,38.95-20.71,60.49-24.65,13.83-2.53,26.83-1.14,38.21,9.13,2.43,3.1,5,6,7.23,9.33,3.86,5.79,8,11.48,11,17.8,2.56,5.3,0,8.68-5.22,7.51a51.92,51.92,0,0,1-11.06-3.82c-9.85-4.71-20.07-7.39-30.73-6.56-11.56.9-22.63,3.82-31.07,13.9-5.69,5.16-6.44,8.4-1.42,14.29,5.84,6.84,12.44,12.89,19,18.91,5,4.59,10.54,8.36,15.54,12.92,13.51,12.35,16.71,27.74,9.92,46.18-1.33,2.22-2.57,4.51-4,6.64-5.3,7.95-9.91,16.72-16.15,23.61-20.75,22.9-46.07,31.27-74.82,28.89-32-2.64-55.44-20.17-72.44-50C298.11,275.47,296.1,271.52,294,267.63Zm125.93,7.29c1.63-7.82.45-11.46-5.58-15.68a34.53,34.53,0,0,0-7.95-4.22c-16.8-6.11-33.68-6.18-50.42.15a33,33,0,0,0-10.49,6.6c-3.54,3.28-5.24,7.85-2.77,13.13-.32,7.55,3.13,13.19,7.75,17.83,14.31,14.38,41,16.56,56.86,4.3C414.06,291.84,419.92,285.32,419.94,274.92Z"/><path class="cls-4" d="M294,267.63c2.09,3.89,4.1,7.84,6.28,11.67,17,29.84,40.49,47.37,72.44,50,28.75,2.38,54.07-6,74.82-28.89,6.24-6.89,10.85-15.66,16.15-23.61,1.43-2.13,2.67-4.42,4-6.64-1.54,4.2-2.64,8.7-4.69,12.55-15.08,28.25-36.13,48.69-63.43,60.69-11.62,5.11-23.37,5.57-35.13.53q-43.67-18.7-66.45-64.75C296.24,275.61,295.32,271.5,294,267.63Z"/><path class="cls-4" d="M424.69,177.87c8.44-10.08,19.51-13,31.07-13.9,10.66-.83,20.88,1.85,30.73,6.56a51.92,51.92,0,0,0,11.06,3.82c5.2,1.17,7.78-2.21,5.22-7.51-3-6.32-7.15-12-11-17.8-2.19-3.29-4.8-6.23-7.23-9.33,18.08,12.54,30.87,30,37.78,52.69.63,2.08.59,5.9-.51,6.82-1.5,1.26-4.65,1.38-6.52.48a145.44,145.44,0,0,1-15.19-8.9c-7.52-4.87-14.85-10.11-22.38-15-14.24-9.15-28.83-10.77-43.85-2.26C430.92,175.27,427.75,176.46,424.69,177.87Z"/><path class="cls-4" d="M278.13,139.74c-4.86,6.49-9.79,12.92-14.53,19.53a23.52,23.52,0,0,0-3.53,7c-.6,2.13-1,5.46,0,6.72s4.09,1.72,6,1.22a86.42,86.42,0,0,0,12-4.61c15.74-6.85,31.63-8.28,47.49-1,3.75,1.72,6.86,5.21,10.26,7.89-3.43-1.45-6.95-2.69-10.28-4.4-12.1-6.18-24.12-5.51-35.71,1.18-9.32,5.39-18.18,11.79-27.34,17.57-5.13,3.24-10.26,6.63-15.7,9-5.65,2.53-8.71-.61-6.5-6.95a140,140,0,0,1,10.82-24.4C258,156.69,267,146.76,278.13,139.74Z"/><path class="cls-5" d="M342.73,274.9c-2.47-5.28-.77-9.85,2.77-13.13a33,33,0,0,1,10.49-6.6c16.74-6.33,33.62-6.26,50.42-.15a34.53,34.53,0,0,1,7.95,4.22c6,4.22,7.21,7.86,5.58,15.68C402.61,301.66,359.76,301.37,342.73,274.9Zm38.71-11.16c3.77-.74,7.39-1.3,10.94-2.25,1.07-.28,1.91-1.64,2.86-2.5-.84-.93-1.55-2.32-2.56-2.7a31.72,31.72,0,0,0-22.64,0c-1,.37-1.77,1.74-2.64,2.64.93.88,1.76,2.27,2.81,2.54C373.93,262.43,377.73,263,381.44,263.74Z"/><path class="cls-4" d="M342.73,274.9c17,26.47,59.88,26.76,77.21,0,0,10.4-5.88,16.92-12.6,22.11-15.9,12.26-42.55,10.08-56.86-4.3C345.86,288.09,342.41,282.45,342.73,274.9Z"/><path class="cls-6" d="M381.44,263.74c-3.71-.72-7.51-1.31-11.23-2.29-1-.27-1.88-1.66-2.81-2.54.87-.9,1.62-2.27,2.64-2.64a31.72,31.72,0,0,1,22.64,0c1,.38,1.72,1.77,2.56,2.7-.95.86-1.79,2.22-2.86,2.5C388.83,262.44,385.21,263,381.44,263.74Z"/><ellipse class="cls-7" cx="381.32" cy="258.96" rx="13.92" ry="4.77"/><circle class="cls-8" cx="308.04" cy="184.58" r="4.99"/><circle class="cls-8" cx="458.71" cy="184.58" r="4.99"/><path class="cls-10" d="M326.66,389.24c-13.56-.06-23.32,9.63-23.34,23.19a22.22,22.22,0,0,0,22.5,22.71c13.63,0,23.41-9.66,23.4-23.14A22.56,22.56,0,0,0,326.66,389.24Z"/><path class="cls-10" d="M569.33,252.72c13.63,0,23.41-9.66,23.4-23.15a22.56,22.56,0,0,0-22.56-22.75c-13.57-.07-23.32,9.63-23.34,23.19A22.22,22.22,0,0,0,569.33,252.72Z"/><path class="cls-10" d="M577.6,389.24c-13.57-.06-23.32,9.63-23.34,23.19a22.21,22.21,0,0,0,22.5,22.71c13.63,0,23.41-9.66,23.4-23.14A22.56,22.56,0,0,0,577.6,389.24Z"/><path class="cls-11" d="M575,362.25c-20.17-4.57-41.66,4.37-53,23.95a11.42,11.42,0,0,0-1.56,2.88c-1,4.43-3.75,5.2-8,5.18-44.33-.19-40.78-.13-85.11-.14H423c10.45-13,16.42-27.21,20.7-42.14,3.6-12.54-3.58,13.69-.56,1,3.51-14.75,2.13-13.79,7.68-27.94,3.91-10,9-19.14,16.63-26.81,8-8.07,17.79-12.38,28.85-14,5.54-.83,5.44-.63,8.13,4.37,8.34,15.58,20.93,25,38.82,27.1,19.7,2.32,39.22-9.17,48.27-26a49.28,49.28,0,0,0-7.19-56.32,49.88,49.88,0,0,0-31.38-15.87c-21.79-2.7-42.83,11.44-50.1,30.3-.94,2.43-2.51,3.26-4.83,3.53-16.26,1.95-31.18,7.37-44.49,17a87.92,87.92,0,0,0-23.44,25.79c-9.84,16.14-15.28,33.93-19.86,52.09-4.62,18.36,5.65-18,.48.23a85.18,85.18,0,0,1-13.14,26.77C390.45,383,381,389,369.34,391.66c-.38.09-.79.09-1.18.19-7.05,1.77-6.86,1.66-10.44-4.55-8.44-14.64-20.71-23.72-37.84-25.84-23.7-2.93-48,13.22-53.5,38.51-3.46,15.89.32,30.09,10.76,42.49,9.57,11.36,22,17.35,36.72,17.39,19,.06,33.48-8.65,43.32-25a11.81,11.81,0,0,0,1.85-3.4c.81-4.05,3.2-4.74,7.05-4.73,58,.14,74.69.38,132.66.38,7.82,0,9-.23,16.84-.33,1.83,0,2.82.44,3.59,2.24,4.9,11.46,12.68,20.44,24,25.76,18.55,8.71,36.2,6.59,52.27-6A46.82,46.82,0,0,0,614,411.76,49.43,49.43,0,0,0,575,362.25ZM546.93,243.84a22.57,22.57,0,0,1,23.8,22.73c0,13.49-9.77,23.16-23.4,23.15a22.2,22.2,0,0,1-22.49-22A23.38,23.38,0,0,1,546.93,243.84ZM313.82,433.14a22.22,22.22,0,0,1-22.5-22.71c0-13.56,9.78-23.25,23.34-23.19A22.56,22.56,0,0,1,337.22,410C337.23,423.48,327.45,433.16,313.82,433.14Zm250.94,0a22.21,22.21,0,0,1-22.5-22.71c0-13.56,9.77-23.25,23.34-23.19A22.56,22.56,0,0,1,588.16,410C588.17,423.48,578.39,433.16,564.76,433.14Z"/><path class="cls-9" d="M2.6,665.94q13.64-72.9,23-134.19Q19.78,534,14,536.42q2.4-20.58,6.82-48.39,51.93-19,118.27-32.22a486,486,0,0,0-8.84,48,458.45,458.45,0,0,0-66.09,14.66l-3.79,27.3q23.13-7.85,43.47-12.89-4.94,21.23-8.09,35-16.43,2.52-40,9.47-3,19.21-5.69,35.26,31.71-9.74,66.84-17.06-5.68,24.77-8.46,43.85Q58.7,646.73,2.6,665.94Z"/><path class="cls-9" d="M193,550.58q-31.62,4.71-66,17.67,2.16-16.39,5.5-38.09Q177,517.89,237,510.82q-3,16.88-5.2,34.07-33.18,42.51-58.12,69,29.84-7.86,55.27-12.08-3.83,18.95-5.79,33.09Q175.53,641.79,114.07,656a157.67,157.67,0,0,1,4.81-28.57A776.32,776.32,0,0,0,193,550.58Z"/><path class="cls-5" d="M254.47,682.54q-18.06-.69-22.93-25.88t3.69-57.09q8.34-31.91,29.35-52.43t39.57-17.87q14.24,2.85,15.71,21A81.38,81.38,0,0,1,314,587.1l-31.81,15q2.74-29.07-3.24-28.87t-15.61,15.61q-7.67,13.35-10.22,35.64-1.56,23.76,7.47,31.81,1.86,1.27,6.08.39t9.92-35.54l39.86-19q-8.73,51.15-13,73.83-11.49,4-40,15.31,1.47-6.67,4.22-20.61Q264.89,682.24,254.47,682.54Z"/><path class="cls-5" d="M309.75,683.12q12.66-60.87,19.63-111a140.69,140.69,0,0,1,31.42-8.74q-9.53,73-17.08,112.32Q323.2,678.81,309.75,683.12Zm17.67-135.88q-.1-7.56,6.38-14a28.36,28.36,0,0,1,15.61-8.05q9.13-1.57,15.56,1.92t6.43,11.14q0,7.56-6.48,14.78a26.52,26.52,0,0,1-15.61,8.78q-9.22,1.58-15.61-2.65A13.22,13.22,0,0,1,327.42,547.24Z"/><path class="cls-5" d="M426.68,567.86q-8.83,62.45-15.22,95.63-19.93,11.09-32.69,17.28,10.8-56.06,18.16-104.47-14.54,4.82-29,10.8,1.86-16,5.3-37.6,40.35-14.73,91.9-25a374.13,374.13,0,0,0-6.88,37.31Q442.48,564.13,426.68,567.86Z"/><path class="cls-5" d="M444.06,688.43q15.7-84,25.33-153.36A104.56,104.56,0,0,1,499.23,523Q489,599.28,481.37,645.13q22.08-8.14,36-11.49A262.5,262.5,0,0,0,510.53,671Q487.75,673.41,444.06,688.43Z"/><path class="cls-5" d="M552.74,648.27q-4.8,13-10.21,26.71a115.29,115.29,0,0,0-26.6-16.7q29.94-64.59,52.92-152.47A262.29,262.29,0,0,0,607,497.46q-1.66,91.13,8.74,160.73-20.52,8.92-33.68,18-1-16.87-1.67-33.77Zm26.91-29.55q-.69-26.51-.4-53-6.57,25.62-17.28,56.75Z"/><path class="cls-5" d="M624.3,682q13.89-77.21,23.62-144.42-6.18,4.29-12.76,9.09,4.56-32.6,6.57-57.36Q748.88,422.46,761.52,488q0,27.16-28,55.21,28.17-.75,34.36,29.44Q773.52,637.9,624.3,682Zm53.82-89.08q-2.4,18.45-4.67,33.61Q723,606.81,722.6,585.33,722.72,570.17,678.12,592.91Zm10.62-80.24q-3.16,24.65-5.94,45.87,27-14.91,32.47-35.76Q722,496.5,688.74,512.67Z"/></g></g></svg>