<svg xmlns="http://www.w3.org/2000/svg" viewBox="0 0 463.49 461.2"><defs><style>.cls-1{fill:#f39022;}.cls-1,.cls-10,.cls-9{stroke:#333;}.cls-1,.cls-10,.cls-2,.cls-9{stroke-miterlimit:10;}.cls-1,.cls-2{stroke-width:2px;}.cls-2,.cls-5{fill:#333;}.cls-2{stroke:#fff;}.cls-3{fill:#fefefe;}.cls-4{fill:#bebebe;}.cls-6{fill:#f8f8f8;}.cls-7{fill:#f3f3f3;}.cls-10,.cls-8{fill:#fff;}.cls-9{fill:#f79021;}.cls-10,.cls-9{stroke-width:4px;}</style></defs><title>gitgit</title><g id="Ebene_2" data-name="Ebene 2"><g id="Ebene_1-2" data-name="Ebene 1"><path class="cls-1" d="M314.85,318.33a122.12,122.12,0,0,0,43.62-71.26L353.42,249c-40.16,15.16-79.94,31.3-119.71,47.44q-27.14,11-54.32,21.93Z"/><text/><path class="cls-1" d="M326.84,111.05a122.13,122.13,0,0,0-202.52,89.54C132.31,196.69,312.46,116.54,326.84,111.05Z"/><path class="cls-1" d="M315.49,122.25c-42,16.26-185.1,81.46-200.73,88.7a2.24,2.24,0,0,0-1.31,2v0A121.68,121.68,0,0,0,125,264.81a2.26,2.26,0,0,0,2.86,1.16q11.61-4.46,23.2-9c43.24-16.88,86.2-34.46,129.12-52.14q34.86-14.36,69.7-28.71a2.26,2.26,0,0,0,1.27-2.83,122.24,122.24,0,0,0-33.31-50.61A2.26,2.26,0,0,0,315.49,122.25Z"/><path class="cls-1" d="M176.59,312.73q7.28-2.89,14.55-5.83c39.8-15.95,79.45-32.32,119.31-48.12q28.53-11.31,57.24-22.13a122.72,122.72,0,0,0-3.43-60l-16.65,6.83c-43.49,17.9-86.93,35.95-130.55,53.54q-32.91,13.26-66,26.1c-4.21,1.63-8.42,3.23-12.64,4.83A122.78,122.78,0,0,0,176.59,312.73Z"/><polygon class="cls-2" points="288.82 121.52 191.98 121.52 143.56 205.38 191.98 289.25 288.82 289.25 337.24 205.38 288.82 121.52"/><path class="cls-3" d="M191.78,229.57c-3-10.11-1.16-17.92,6.19-24.54,4.74-4.27,9.72-8.21,14.54-12.38a31.83,31.83,0,0,0,3.62-3.8c4-4.8,3.79-6.8-.94-10.3-1.91-1.5-3.65-3.46-5.75-4.42-8.88-4.07-17.78-3.28-26.59.56a47.66,47.66,0,0,1-6.74,2.58c-1.06.28-2.74.09-3.35-.68s-.32-2.57,0-3.76a13.27,13.27,0,0,1,2-3.94c2.65-3.7,5.41-7.29,8.13-10.93,7.48-6.88,16-6.48,24.73-4.46,10.8,2.5,20.89,7.18,30.52,13.12a4.2,4.2,0,0,0,5.06,0c10.66-6.53,21.81-11.6,33.87-13.81,7.74-1.41,15-.64,21.39,5.11,1.36,1.74,2.82,3.38,4.05,5.23a84.88,84.88,0,0,1,6.17,10c1.43,3,0,4.85-2.93,4.2a28.91,28.91,0,0,1-6.19-2.14c-5.52-2.64-11.24-4.14-17.21-3.67-6.47.5-12.67,2.14-17.39,7.78-3.19,2.89-3.61,4.71-.8,8a126.32,126.32,0,0,0,10.62,10.59c2.79,2.57,5.91,4.68,8.7,7.24,7.57,6.91,9.36,15.52,5.56,25.85-.74,1.24-1.44,2.52-2.24,3.72-3,4.45-5.55,9.36-9,13.22-11.62,12.82-25.8,17.51-41.9,16.18-17.89-1.48-31-11.3-40.56-28C194.07,234,192.94,231.75,191.78,229.57Zm70.51,4.08c.91-4.38.25-6.41-3.13-8.78a19.22,19.22,0,0,0-4.45-2.36,39.47,39.47,0,0,0-28.23.08,18.7,18.7,0,0,0-5.88,3.7,6,6,0,0,0-1.55,7.35c-.18,4.23,1.76,7.39,4.34,10,8,8.06,22.94,9.28,31.84,2.41C259,243.13,262.28,239.47,262.29,233.65Z"/><path class="cls-4" d="M191.78,229.57c1.16,2.18,2.29,4.39,3.51,6.53,9.52,16.71,22.67,26.53,40.56,28,16.1,1.33,30.28-3.36,41.9-16.18,3.49-3.86,6.07-8.77,9-13.22.8-1.2,1.5-2.48,2.24-3.72a55.59,55.59,0,0,1-2.63,7c-8.44,15.82-20.23,27.26-35.51,34a23.8,23.8,0,0,1-19.68.3c-16.29-7-28.74-19-37.2-36.26A51.88,51.88,0,0,1,191.78,229.57Z"/><path class="cls-4" d="M265,179.31c4.72-5.64,10.92-7.28,17.39-7.78,6-.47,11.69,1,17.21,3.67a28.91,28.91,0,0,0,6.19,2.14c2.91.65,4.36-1.24,2.93-4.2a84.88,84.88,0,0,0-6.17-10c-1.23-1.85-2.69-3.49-4.05-5.23,10.13,7,17.28,16.79,21.15,29.51.36,1.16.34,3.3-.28,3.81a3.85,3.85,0,0,1-3.65.27,81.06,81.06,0,0,1-8.51-5c-4.21-2.72-8.31-5.66-12.52-8.37-8-5.13-16.15-6-24.56-1.26C268.43,177.85,266.66,178.52,265,179.31Z"/><path class="cls-4" d="M182.88,158c-2.72,3.64-5.48,7.23-8.13,10.93a13.27,13.27,0,0,0-2,3.94c-.33,1.19-.57,3,0,3.76s2.29,1,3.35.68a47.66,47.66,0,0,0,6.74-2.58c8.81-3.84,17.71-4.63,26.59-.56,2.1,1,3.84,2.92,5.75,4.42-1.93-.81-3.89-1.51-5.76-2.46-6.78-3.46-13.51-3.09-20,.65-5.23,3-10.19,6.61-15.31,9.85a71,71,0,0,1-8.79,5.06c-3.17,1.42-4.88-.34-3.65-3.89a78.34,78.34,0,0,1,6.06-13.66A46.12,46.12,0,0,1,182.88,158Z"/><path class="cls-5" d="M219.05,233.64a6,6,0,0,1,1.55-7.35,18.7,18.7,0,0,1,5.88-3.7,39.47,39.47,0,0,1,28.23-.08,19.22,19.22,0,0,1,4.45,2.36c3.38,2.37,4,4.4,3.13,8.78C252.58,248.63,228.59,248.46,219.05,233.64Zm21.68-6.25c2.11-.42,4.14-.73,6.12-1.26.6-.16,1.08-.92,1.61-1.4-.48-.52-.87-1.3-1.44-1.51a17.74,17.74,0,0,0-12.67,0c-.58.21-1,1-1.48,1.48.52.49,1,1.27,1.57,1.42C236.52,226.66,238.65,227,240.73,227.39Z"/><path class="cls-4" d="M219.05,233.64c9.54,14.82,33.53,15,43.24,0,0,5.82-3.3,9.48-7.06,12.38-8.9,6.87-23.82,5.65-31.84-2.41C220.81,241,218.87,237.87,219.05,233.64Z"/><path class="cls-6" d="M240.73,227.39c-2.08-.4-4.21-.73-6.29-1.28-.59-.15-1.05-.93-1.57-1.42.49-.51.9-1.27,1.48-1.48a17.74,17.74,0,0,1,12.67,0c.57.21,1,1,1.44,1.51-.53.48-1,1.24-1.61,1.4C244.87,226.66,242.84,227,240.73,227.39Z"/><ellipse class="cls-7" cx="240.66" cy="224.72" rx="7.79" ry="2.67"/><circle class="cls-8" cx="199.63" cy="183.07" r="2.79"/><circle class="cls-8" cx="283.99" cy="183.07" r="2.79"/><path class="cls-9" d="M361.68,426.15a218,218,0,0,0,77.9-127.27l-9,3.38c-71.73,27.07-142.77,55.9-213.8,84.73q-48.46,19.67-97,39.16Z"/><text/><path class="cls-9" d="M383.1,56A217.29,217.29,0,0,0,239.49,2C120.44,2,23.68,97.37,21.41,215.87,35.67,208.92,357.42,65.77,383.1,56Z"/><path class="cls-9" d="M362.83,76c-75,29-330.59,145.47-358.51,158.41A4,4,0,0,0,2,238v0a217.23,217.23,0,0,0,20.57,92.56,4,4,0,0,0,5.1,2.07q20.74-8,41.43-16.07c77.23-30.16,154-61.55,230.61-93.12Q362,197.8,424.2,172.17a4,4,0,0,0,2.26-5A218.35,218.35,0,0,0,367,76.74,4,4,0,0,0,362.83,76Z"/><path class="cls-9" d="M114.75,416.14c8.68-3.44,17.33-6.93,26-10.4,71.1-28.49,141.9-57.72,213.1-85.95q50.94-20.21,102.23-39.51a219.28,219.28,0,0,0-6.14-107.1L420.2,185.4c-77.68,32-155.26,64.19-233.17,95.6q-58.75,23.69-117.82,46.62Q57.95,332,46.64,336.25A219.07,219.07,0,0,0,114.75,416.14Z"/><polygon class="cls-2" points="315.2 74.66 142.25 74.66 55.77 224.44 142.25 374.21 315.2 374.21 401.67 224.44 315.2 74.66"/><path class="cls-3" d="M141.88,267.63c-5.42-18.06-2.07-32,11.06-43.83,8.47-7.63,17.36-14.67,26-22.1a58.53,58.53,0,0,0,6.45-6.79c7.13-8.58,6.77-12.14-1.68-18.4-3.41-2.68-6.51-6.17-10.26-7.89-15.87-7.28-31.76-5.85-47.49,1a86.9,86.9,0,0,1-12,4.61c-1.9.5-4.89.16-6-1.22s-.58-4.59,0-6.72a23.06,23.06,0,0,1,3.53-7c4.73-6.61,9.67-13,14.52-19.53,13.36-12.29,28.58-11.58,44.17-8,19.29,4.47,37.3,12.83,54.51,23.43,3.29,2,5.71,2.06,9,0,19-11.66,38.95-20.71,60.49-24.65,13.82-2.53,26.83-1.14,38.21,9.13,2.42,3.1,5,6,7.23,9.33,3.86,5.79,8,11.48,11,17.8,2.55,5.3,0,8.68-5.22,7.51a52.2,52.2,0,0,1-11.07-3.82c-9.85-4.71-20.07-7.39-30.73-6.56-11.56.9-22.62,3.82-31.06,13.9-5.7,5.16-6.45,8.4-1.42,14.29,5.83,6.84,12.43,12.89,19,18.91,5,4.59,10.54,8.36,15.53,12.92,13.51,12.35,16.72,27.74,9.93,46.18-1.33,2.22-2.58,4.51-4,6.64-5.31,7.95-9.92,16.72-16.16,23.61-20.74,22.9-46.06,31.27-74.82,28.89-32-2.64-55.43-20.17-72.44-50C146,275.47,144,271.52,141.88,267.63Zm125.93,7.29c1.63-7.82.45-11.46-5.58-15.68a34.8,34.8,0,0,0-8-4.22c-16.8-6.11-33.68-6.18-50.41.15a33.13,33.13,0,0,0-10.5,6.6c-3.53,3.28-5.23,7.85-2.77,13.13-.32,7.55,3.13,13.19,7.75,17.83,14.32,14.38,41,16.56,56.87,4.3C261.92,291.84,267.79,285.32,267.81,274.92Z"/><path class="cls-4" d="M141.88,267.63c2.08,3.89,4.09,7.84,6.27,11.67,17,29.84,40.49,47.37,72.44,50,28.76,2.38,54.08-6,74.82-28.89,6.24-6.89,10.85-15.66,16.16-23.61,1.42-2.13,2.67-4.42,4-6.64-1.54,4.2-2.64,8.7-4.69,12.55-15.09,28.25-36.13,48.69-63.43,60.69-11.63,5.11-23.37,5.57-35.14.53-29.1-12.47-51.33-34-66.44-64.75C144.11,275.61,143.19,271.5,141.88,267.63Z"/><path class="cls-4" d="M272.56,177.87c8.44-10.08,19.5-13,31.06-13.9,10.66-.83,20.88,1.85,30.73,6.56a52.2,52.2,0,0,0,11.07,3.82c5.2,1.17,7.77-2.21,5.22-7.51-3.05-6.32-7.15-12-11-17.8-2.19-3.29-4.81-6.23-7.23-9.33,18.08,12.54,30.86,30,37.77,52.69.64,2.08.6,5.9-.5,6.82-1.51,1.26-4.66,1.38-6.52.48a145.58,145.58,0,0,1-15.2-8.9c-7.51-4.87-14.84-10.11-22.37-15-14.24-9.15-28.83-10.77-43.85-2.26C278.78,175.27,275.62,176.46,272.56,177.87Z"/><path class="cls-4" d="M126,139.74c-4.85,6.49-9.79,12.92-14.52,19.53a23.06,23.06,0,0,0-3.53,7c-.6,2.13-1,5.46,0,6.72s4.08,1.72,6,1.22a86.9,86.9,0,0,0,12-4.61c15.73-6.85,31.62-8.28,47.49-1,3.75,1.72,6.85,5.21,10.26,7.89-3.43-1.45-6.95-2.69-10.28-4.4-12.1-6.18-24.13-5.51-35.71,1.18-9.33,5.39-18.19,11.79-27.34,17.57-5.13,3.24-10.26,6.63-15.7,9C89,202.44,86,199.3,88.15,193A140,140,0,0,1,99,168.56C105.9,156.69,114.82,146.76,126,139.74Z"/><path class="cls-5" d="M190.59,274.9c-2.46-5.28-.76-9.85,2.77-13.13a33.13,33.13,0,0,1,10.5-6.6c16.73-6.33,33.61-6.26,50.41-.15a34.8,34.8,0,0,1,8,4.22c6,4.22,7.21,7.86,5.58,15.68C250.48,301.66,207.63,301.37,190.59,274.9Zm38.71-11.16c3.78-.74,7.4-1.3,10.94-2.25,1.07-.28,1.92-1.64,2.87-2.5-.85-.93-1.55-2.32-2.56-2.7a31.72,31.72,0,0,0-22.64,0c-1,.37-1.77,1.74-2.64,2.64.93.88,1.75,2.27,2.81,2.54C221.8,262.43,225.6,263,229.3,263.74Z"/><path class="cls-4" d="M190.59,274.9c17,26.47,59.89,26.76,77.22,0,0,10.4-5.89,16.92-12.6,22.11-15.9,12.26-42.55,10.08-56.87-4.3C193.72,288.09,190.27,282.45,190.59,274.9Z"/><path class="cls-6" d="M229.3,263.74c-3.7-.72-7.5-1.31-11.22-2.29-1.06-.27-1.88-1.66-2.81-2.54.87-.9,1.61-2.27,2.64-2.64a31.72,31.72,0,0,1,22.64,0c1,.38,1.71,1.77,2.56,2.7-1,.86-1.8,2.22-2.87,2.5C236.7,262.44,233.08,263,229.3,263.74Z"/><ellipse class="cls-7" cx="229.19" cy="258.96" rx="13.92" ry="4.77"/><circle class="cls-8" cx="155.91" cy="184.58" r="4.99"/><circle class="cls-8" cx="306.57" cy="184.58" r="4.99"/><path class="cls-9" d="M361.68,426.15a218,218,0,0,0,77.9-127.27l-9,3.38c-71.73,27.07-142.77,55.9-213.8,84.73q-48.46,19.67-97,39.16Z"/><text/><path class="cls-9" d="M383.1,56A217.29,217.29,0,0,0,239.49,2C120.44,2,23.68,97.37,21.41,215.87,35.67,208.92,357.42,65.77,383.1,56Z"/><path class="cls-9" d="M362.83,76c-75,29-330.59,145.47-358.51,158.41A4,4,0,0,0,2,238v0a217.23,217.23,0,0,0,20.57,92.56,4,4,0,0,0,5.1,2.07q20.74-8,41.43-16.07c77.23-30.16,154-61.55,230.61-93.12Q362,197.8,424.2,172.17a4,4,0,0,0,2.26-5A218.35,218.35,0,0,0,367,76.74,4,4,0,0,0,362.83,76Z"/><path class="cls-9" d="M114.75,416.14c8.68-3.44,17.33-6.93,26-10.4,71.1-28.49,141.9-57.72,213.1-85.95q50.94-20.21,102.23-39.51a219.28,219.28,0,0,0-6.14-107.1L420.2,185.4c-77.68,32-155.26,64.19-233.17,95.6q-58.75,23.69-117.82,46.62Q57.95,332,46.64,336.25A219.07,219.07,0,0,0,114.75,416.14Z"/><polygon class="cls-2" points="315.2 74.66 142.25 74.66 55.77 224.44 142.25 374.21 315.2 374.21 401.67 224.44 315.2 74.66"/><path class="cls-3" d="M141.88,267.63c-5.42-18.06-2.07-32,11.06-43.83,8.47-7.63,17.36-14.67,26-22.1a58.53,58.53,0,0,0,6.45-6.79c7.13-8.58,6.77-12.14-1.68-18.4-3.41-2.68-6.51-6.17-10.26-7.89-15.87-7.28-31.76-5.85-47.49,1a86.9,86.9,0,0,1-12,4.61c-1.9.5-4.89.16-6-1.22s-.58-4.59,0-6.72a23.06,23.06,0,0,1,3.53-7c4.73-6.61,9.67-13,14.52-19.53,13.36-12.29,28.58-11.58,44.17-8,19.29,4.47,37.3,12.83,54.51,23.43,3.29,2,5.71,2.06,9,0,19-11.66,38.95-20.71,60.49-24.65,13.82-2.53,26.83-1.14,38.21,9.13,2.42,3.1,5,6,7.23,9.33,3.86,5.79,8,11.48,11,17.8,2.55,5.3,0,8.68-5.22,7.51a52.2,52.2,0,0,1-11.07-3.82c-9.85-4.71-20.07-7.39-30.73-6.56-11.56.9-22.62,3.82-31.06,13.9-5.7,5.16-6.45,8.4-1.42,14.29,5.83,6.84,12.43,12.89,19,18.91,5,4.59,10.54,8.36,15.53,12.92,13.51,12.35,16.72,27.74,9.93,46.18-1.33,2.22-2.58,4.51-4,6.64-5.31,7.95-9.92,16.72-16.16,23.61-20.74,22.9-46.06,31.27-74.82,28.89-32-2.64-55.43-20.17-72.44-50C146,275.47,144,271.52,141.88,267.63Zm125.93,7.29c1.63-7.82.45-11.46-5.58-15.68a34.8,34.8,0,0,0-8-4.22c-16.8-6.11-33.68-6.18-50.41.15a33.13,33.13,0,0,0-10.5,6.6c-3.53,3.28-5.23,7.85-2.77,13.13-.32,7.55,3.13,13.19,7.75,17.83,14.32,14.38,41,16.56,56.87,4.3C261.92,291.84,267.79,285.32,267.81,274.92Z"/><path class="cls-4" d="M141.88,267.63c2.08,3.89,4.09,7.84,6.27,11.67,17,29.84,40.49,47.37,72.44,50,28.76,2.38,54.08-6,74.82-28.89,6.24-6.89,10.85-15.66,16.16-23.61,1.42-2.13,2.67-4.42,4-6.64-1.54,4.2-2.64,8.7-4.69,12.55-15.09,28.25-36.13,48.69-63.43,60.69-11.63,5.11-23.37,5.57-35.14.53-29.1-12.47-51.33-34-66.44-64.75C144.11,275.61,143.19,271.5,141.88,267.63Z"/><path class="cls-4" d="M272.56,177.87c8.44-10.08,19.5-13,31.06-13.9,10.66-.83,20.88,1.85,30.73,6.56a52.2,52.2,0,0,0,11.07,3.82c5.2,1.17,7.77-2.21,5.22-7.51-3.05-6.32-7.15-12-11-17.8-2.19-3.29-4.81-6.23-7.23-9.33,18.08,12.54,30.86,30,37.77,52.69.64,2.08.6,5.9-.5,6.82-1.51,1.26-4.66,1.38-6.52.48a145.58,145.58,0,0,1-15.2-8.9c-7.51-4.87-14.84-10.11-22.37-15-14.24-9.15-28.83-10.77-43.85-2.26C278.78,175.27,275.62,176.46,272.56,177.87Z"/><path class="cls-4" d="M126,139.74c-4.85,6.49-9.79,12.92-14.52,19.53a23.06,23.06,0,0,0-3.53,7c-.6,2.13-1,5.46,0,6.72s4.08,1.72,6,1.22a86.9,86.9,0,0,0,12-4.61c15.73-6.85,31.62-8.28,47.49-1,3.75,1.72,6.85,5.21,10.26,7.89-3.43-1.45-6.95-2.69-10.28-4.4-12.1-6.18-24.13-5.51-35.71,1.18-9.33,5.39-18.19,11.79-27.34,17.57-5.13,3.24-10.26,6.63-15.7,9C89,202.44,86,199.3,88.15,193A140,140,0,0,1,99,168.56C105.9,156.69,114.82,146.76,126,139.74Z"/><path class="cls-5" d="M190.59,274.9c-2.46-5.28-.76-9.85,2.77-13.13a33.13,33.13,0,0,1,10.5-6.6c16.73-6.33,33.61-6.26,50.41-.15a34.8,34.8,0,0,1,8,4.22c6,4.22,7.21,7.86,5.58,15.68C250.48,301.66,207.63,301.37,190.59,274.9Zm38.71-11.16c3.78-.74,7.4-1.3,10.94-2.25,1.07-.28,1.92-1.64,2.87-2.5-.85-.93-1.55-2.32-2.56-2.7a31.72,31.72,0,0,0-22.64,0c-1,.37-1.77,1.74-2.64,2.64.93.88,1.75,2.27,2.81,2.54C221.8,262.43,225.6,263,229.3,263.74Z"/><path class="cls-4" d="M190.59,274.9c17,26.47,59.89,26.76,77.22,0,0,10.4-5.89,16.92-12.6,22.11-15.9,12.26-42.55,10.08-56.87-4.3C193.72,288.09,190.27,282.45,190.59,274.9Z"/><path class="cls-6" d="M229.3,263.74c-3.7-.72-7.5-1.31-11.22-2.29-1.06-.27-1.88-1.66-2.81-2.54.87-.9,1.61-2.27,2.64-2.64a31.72,31.72,0,0,1,22.64,0c1,.38,1.71,1.77,2.56,2.7-1,.86-1.8,2.22-2.87,2.5C236.7,262.44,233.08,263,229.3,263.74Z"/><ellipse class="cls-7" cx="229.19" cy="258.96" rx="13.92" ry="4.77"/><circle class="cls-8" cx="155.91" cy="184.58" r="4.99"/><circle class="cls-8" cx="306.57" cy="184.58" r="4.99"/><path class="cls-9" d="M361.68,426.15a218,218,0,0,0,77.9-127.27l-9,3.38c-71.73,27.07-142.77,55.9-213.8,84.73q-48.46,19.67-97,39.16Z"/><text/><path class="cls-9" d="M383.1,56A217.29,217.29,0,0,0,239.49,2C120.44,2,23.68,97.37,21.41,215.87,35.67,208.92,357.42,65.77,383.1,56Z"/><path class="cls-9" d="M362.83,76c-75,29-330.59,145.47-358.51,158.41A4,4,0,0,0,2,238v0a217.23,217.23,0,0,0,20.57,92.56,4,4,0,0,0,5.1,2.07q20.74-8,41.43-16.07c77.23-30.16,154-61.55,230.61-93.12Q362,197.8,424.2,172.17a4,4,0,0,0,2.26-5A218.35,218.35,0,0,0,367,76.74,4,4,0,0,0,362.83,76Z"/><path class="cls-9" d="M114.75,416.14c8.68-3.44,17.33-6.93,26-10.4,71.1-28.49,141.9-57.72,213.1-85.95q50.94-20.21,102.23-39.51a219.28,219.28,0,0,0-6.14-107.1L420.2,185.4c-77.68,32-155.26,64.19-233.17,95.6q-58.75,23.69-117.82,46.62Q57.95,332,46.64,336.25A219.07,219.07,0,0,0,114.75,416.14Z"/><polygon class="cls-2" points="315.2 74.66 142.25 74.66 55.77 224.44 142.25 374.21 315.2 374.21 401.67 224.44 315.2 74.66"/><path class="cls-3" d="M141.88,267.63c-5.42-18.06-2.07-32,11.06-43.83,8.47-7.63,17.36-14.67,26-22.1a58.53,58.53,0,0,0,6.45-6.79c7.13-8.58,6.77-12.14-1.68-18.4-3.41-2.68-6.51-6.17-10.26-7.89-15.87-7.28-31.76-5.85-47.49,1a86.9,86.9,0,0,1-12,4.61c-1.9.5-4.89.16-6-1.22s-.58-4.59,0-6.72a23.06,23.06,0,0,1,3.53-7c4.73-6.61,9.67-13,14.52-19.53,13.36-12.29,28.58-11.58,44.17-8,19.29,4.47,37.3,12.83,54.51,23.43,3.29,2,5.71,2.06,9,0,19-11.66,38.95-20.71,60.49-24.65,13.82-2.53,26.83-1.14,38.21,9.13,2.42,3.1,5,6,7.23,9.33,3.86,5.79,8,11.48,11,17.8,2.55,5.3,0,8.68-5.22,7.51a52.2,52.2,0,0,1-11.07-3.82c-9.85-4.71-20.07-7.39-30.73-6.56-11.56.9-22.62,3.82-31.06,13.9-5.7,5.16-6.45,8.4-1.42,14.29,5.83,6.84,12.43,12.89,19,18.91,5,4.59,10.54,8.36,15.53,12.92,13.51,12.35,16.72,27.74,9.93,46.18-1.33,2.22-2.58,4.51-4,6.64-5.31,7.95-9.92,16.72-16.16,23.61-20.74,22.9-46.06,31.27-74.82,28.89-32-2.64-55.43-20.17-72.44-50C146,275.47,144,271.52,141.88,267.63Zm125.93,7.29c1.63-7.82.45-11.46-5.58-15.68a34.8,34.8,0,0,0-8-4.22c-16.8-6.11-33.68-6.18-50.41.15a33.13,33.13,0,0,0-10.5,6.6c-3.53,3.28-5.23,7.85-2.77,13.13-.32,7.55,3.13,13.19,7.75,17.83,14.32,14.38,41,16.56,56.87,4.3C261.92,291.84,267.79,285.32,267.81,274.92Z"/><path class="cls-4" d="M141.88,267.63c2.08,3.89,4.09,7.84,6.27,11.67,17,29.84,40.49,47.37,72.44,50,28.76,2.38,54.08-6,74.82-28.89,6.24-6.89,10.85-15.66,16.16-23.61,1.42-2.13,2.67-4.42,4-6.64-1.54,4.2-2.64,8.7-4.69,12.55-15.09,28.25-36.13,48.69-63.43,60.69-11.63,5.11-23.37,5.57-35.14.53-29.1-12.47-51.33-34-66.44-64.75C144.11,275.61,143.19,271.5,141.88,267.63Z"/><path class="cls-4" d="M272.56,177.87c8.44-10.08,19.5-13,31.06-13.9,10.66-.83,20.88,1.85,30.73,6.56a52.2,52.2,0,0,0,11.07,3.82c5.2,1.17,7.77-2.21,5.22-7.51-3.05-6.32-7.15-12-11-17.8-2.19-3.29-4.81-6.23-7.23-9.33,18.08,12.54,30.86,30,37.77,52.69.64,2.08.6,5.9-.5,6.82-1.51,1.26-4.66,1.38-6.52.48a145.58,145.58,0,0,1-15.2-8.9c-7.51-4.87-14.84-10.11-22.37-15-14.24-9.15-28.83-10.77-43.85-2.26C278.78,175.27,275.62,176.46,272.56,177.87Z"/><path class="cls-4" d="M126,139.74c-4.85,6.49-9.79,12.92-14.52,19.53a23.06,23.06,0,0,0-3.53,7c-.6,2.13-1,5.46,0,6.72s4.08,1.72,6,1.22a86.9,86.9,0,0,0,12-4.61c15.73-6.85,31.62-8.28,47.49-1,3.75,1.72,6.85,5.21,10.26,7.89-3.43-1.45-6.95-2.69-10.28-4.4-12.1-6.18-24.13-5.51-35.71,1.18-9.33,5.39-18.19,11.79-27.34,17.57-5.13,3.24-10.26,6.63-15.7,9C89,202.44,86,199.3,88.15,193A140,140,0,0,1,99,168.56C105.9,156.69,114.82,146.76,126,139.74Z"/><path class="cls-5" d="M190.59,274.9c-2.46-5.28-.76-9.85,2.77-13.13a33.13,33.13,0,0,1,10.5-6.6c16.73-6.33,33.61-6.26,50.41-.15a34.8,34.8,0,0,1,8,4.22c6,4.22,7.21,7.86,5.58,15.68C250.48,301.66,207.63,301.37,190.59,274.9Zm38.71-11.16c3.78-.74,7.4-1.3,10.94-2.25,1.07-.28,1.92-1.64,2.87-2.5-.85-.93-1.55-2.32-2.56-2.7a31.72,31.72,0,0,0-22.64,0c-1,.37-1.77,1.74-2.64,2.64.93.88,1.75,2.27,2.81,2.54C221.8,262.43,225.6,263,229.3,263.74Z"/><path class="cls-4" d="M190.59,274.9c17,26.47,59.89,26.76,77.22,0,0,10.4-5.89,16.92-12.6,22.11-15.9,12.26-42.55,10.08-56.87-4.3C193.72,288.09,190.27,282.45,190.59,274.9Z"/><path class="cls-6" d="M229.3,263.74c-3.7-.72-7.5-1.31-11.22-2.29-1.06-.27-1.88-1.66-2.81-2.54.87-.9,1.61-2.27,2.64-2.64a31.72,31.72,0,0,1,22.64,0c1,.38,1.71,1.77,2.56,2.7-1,.86-1.8,2.22-2.87,2.5C236.7,262.44,233.08,263,229.3,263.74Z"/><ellipse class="cls-7" cx="229.19" cy="258.96" rx="13.92" ry="4.77"/><circle class="cls-8" cx="155.91" cy="184.58" r="4.99"/><circle class="cls-8" cx="306.57" cy="184.58" r="4.99"/><path class="cls-10" d="M290,397.84c40-.4,79.68-1.11,79.68-1.11s6.31-.75,7.17-4.82a10.39,10.39,0,0,1,1.38-2.66c10.08-18.07,29.39-26.47,47.63-22.47a45.21,45.21,0,0,1,35.66,45.05c-.18,13.83-5.73,25.5-16.38,34.16-14.37,11.7-30.27,13.81-47.1,6-10.28-4.77-17.39-12.94-21.92-23.4a2.89,2.89,0,0,0-3.26-2c-7.05.16,6.58.45-.47.52-52.3.55-85,.86-137.29,1.28-3.47,0-5.62.68-6.31,4.4a10.85,10.85,0,0,1-1.65,3.13c-8.71,15.06-21.7,23.18-38.84,23.3-13.24.1-24.55-5.27-33.29-15.61-9.53-11.27-13.08-24.26-10.1-38.87,4.73-23.24,26.49-38.28,47.89-35.81,15.48,1.78,26.63,10,34.39,23.34,3.28,5.66,3.11,5.76,9.46,4.07.34-.09.71-.09,1.06-.18A41.71,41.71,0,0,0,262.94,379a78.59,78.59,0,0,0,11.6-24.68c4.5-16.74,8.54-33.62,12.54-50.5,4-16.7,8.7-33.07,17.42-48A80.18,80.18,0,0,1,325.4,232a83.12,83.12,0,0,1,40-16.05,4.65,4.65,0,0,0,4.33-3.29c6.38-17.36,25.23-30.52,44.91-28.26a44.78,44.78,0,0,1,28.46,14.27,45.79,45.79,0,0,1,7,51.59c-8,15.49-25.51,26.2-43.3,24.26-16.16-1.76-27.6-10.28-35.28-24.49-2.47-4.57-2.38-4.75-7.37-3.93-10,1.62-18.79,5.67-25.9,13.14-6.77,7.11-11.32,15.58-14.74,24.74-4.88,13-8,26.58-11,40.14-2.6,11.68-5,23.42-8.15,35-3.72,13.73-9,26.86-18.28,38.84Zm126.32-2c-8.25.12-14.62,6.95-14.48,15.54a15,15,0,0,0,15.47,15.14c8.49-.11,14.85-6.83,14.72-15.57C431.86,401.9,425.39,395.68,416.29,395.82ZM188.47,429.26c8.92-.1,15.23-6.7,15.1-15.77a15,15,0,0,0-15.13-14.93c-8.87.08-15.16,6.69-15.06,15.81A14.73,14.73,0,0,0,188.47,429.26ZM395.29,229.55c.06,8.56,6.29,15.42,13.94,15.26s13.26-6.66,13.29-15.6c0-8.55-6.19-15.17-13.78-15.09S395.23,221,395.29,229.55Z"/></g></g></svg>