<svg id="Ebene_1" data-name="Ebene 1" xmlns="http://www.w3.org/2000/svg" viewBox="0 0 630.52 822.48"><defs><style>.cls-1,.cls-9{fill:#b600d0;}.cls-1,.cls-10,.cls-11{stroke:#333;}.cls-1,.cls-10,.cls-11,.cls-2{stroke-miterlimit:10;}.cls-1,.cls-10{stroke-width:4px;}.cls-2,.cls-5{fill:#333;}.cls-2{stroke:#fff;stroke-width:2px;}.cls-3{fill:#fefefe;}.cls-4{fill:#bebebe;}.cls-6{fill:#f8f8f8;}.cls-7{fill:#f3f3f3;}.cls-10,.cls-8{fill:#fff;}.cls-11{fill:none;}</style></defs><title>v1</title><path class="cls-1" d="M1116.56,771A300.63,300.63,0,0,0,1224,595.51l-12.42,4.66c-98.9,37.32-196.86,77.07-294.8,116.83Q849.91,744.12,783,771Z" transform="translate(-623.61 -184.14)"/><path class="cls-1" d="M1151.09,260.55a299.57,299.57,0,0,0-198-74.41c-164.14,0-297.56,131.5-300.69,294.9C672,471.45,1115.68,274.07,1151.09,260.55Z" transform="translate(-623.61 -184.14)"/><path class="cls-1" d="M1123.14,288.13c-103.46,40.05-455.83,200.59-494.33,218.43a5.49,5.49,0,0,0-3.2,5v0A299.69,299.69,0,0,0,654,639.2a5.58,5.58,0,0,0,7,2.85q28.61-11,57.13-22.16c106.48-41.58,212.28-84.87,318-128.4q85.82-35.36,171.64-70.7a5.56,5.56,0,0,0,3.13-7,301.08,301.08,0,0,0-82-124.63A5.54,5.54,0,0,0,1123.14,288.13Z" transform="translate(-623.61 -184.14)"/><path class="cls-1" d="M776.08,757.2c12-4.75,23.89-9.56,35.83-14.34,98-39.29,195.65-79.59,293.82-118.52q70.24-27.86,141-54.48a302.37,302.37,0,0,0-8.47-147.67q-20.49,8.4-41,16.84c-107.12,44.08-214.09,88.51-321.51,131.83q-81,32.65-162.45,64.28-15.54,6-31.12,11.9A302.15,302.15,0,0,0,776.08,757.2Z" transform="translate(-623.61 -184.14)"/><polygon class="cls-2" points="433.86 102.18 195.38 102.18 76.15 308.71 195.38 515.23 433.86 515.23 553.09 308.71 433.86 102.18"/><path class="cls-3" d="M818.48,552.41C811,527.5,815.63,508.27,833.73,492c11.69-10.53,23.94-20.23,35.82-30.49a78.18,78.18,0,0,0,8.9-9.35c9.84-11.83,9.34-16.75-2.32-25.37-4.69-3.69-9-8.51-14.15-10.88-21.87-10-43.78-8.07-65.48,1.37-5.45,2.38-10.94,4.86-16.6,6.36-2.61.69-6.73.22-8.25-1.68-1.38-1.74-.79-6.33,0-9.26a32,32,0,0,1,4.86-9.69c6.53-9.11,13.33-18,20-26.93,18.42-16.94,39.4-16,60.9-11,26.59,6.16,51.43,17.68,75.16,32.3,4.53,2.8,7.88,2.85,12.45.05,26.26-16.08,53.7-28.56,83.41-34,19.06-3.48,37-1.57,52.68,12.59,3.35,4.28,7,8.33,10,12.87,5.31,8,11,15.83,15.18,24.55,3.52,7.3,0,12-7.2,10.35a71.26,71.26,0,0,1-15.26-5.27c-13.58-6.5-27.67-10.19-42.37-9-15.94,1.24-31.2,5.27-42.84,19.17-7.85,7.1-8.89,11.58-2,19.7,8,9.42,17.15,17.76,26.16,26.07,6.86,6.33,14.54,11.53,21.42,17.82,18.63,17,23,38.24,13.69,63.67-1.83,3.06-3.55,6.21-5.51,9.16-7.32,11-13.68,23.06-22.28,32.55-28.6,31.58-63.52,43.12-103.17,39.84-44-3.65-76.44-27.81-99.89-69C824.13,563.22,821.36,557.77,818.48,552.41Zm173.64,10.05c2.25-10.78.63-15.8-7.69-21.62a47.61,47.61,0,0,0-11-5.82c-23.16-8.42-46.44-8.52-69.51.21a45.79,45.79,0,0,0-14.48,9.1c-4.87,4.52-7.21,10.82-3.82,18.1-.44,10.41,4.32,18.19,10.69,24.59,19.74,19.83,56.49,22.83,78.41,5.92C984,585.8,992.09,576.8,992.12,562.46Z" transform="translate(-623.61 -184.14)"/><path class="cls-4" d="M818.48,552.41c2.88,5.36,5.65,10.81,8.65,16.08,23.45,41.16,55.84,65.32,99.89,69,39.65,3.28,74.57-8.26,103.17-39.84,8.6-9.49,15-21.59,22.28-32.55,2-3,3.68-6.1,5.51-9.16-2.13,5.79-3.64,12-6.47,17.31-20.8,38.95-49.81,67.13-87.46,83.67-16,7.05-32.22,7.7-48.45.74-40.13-17.19-70.77-46.88-91.61-89.28C821.56,563.41,820.29,557.74,818.48,552.41Z" transform="translate(-623.61 -184.14)"/><path class="cls-4" d="M998.67,428.65c11.64-13.9,26.9-17.93,42.84-19.17,14.7-1.15,28.79,2.54,42.37,9a71.26,71.26,0,0,0,15.26,5.27c7.16,1.61,10.72-3.05,7.2-10.35-4.21-8.72-9.87-16.57-15.18-24.55-3-4.54-6.63-8.59-10-12.87,24.94,17.3,42.56,41.35,52.09,72.66.88,2.87.82,8.13-.69,9.4-2.08,1.74-6.42,1.91-9,.66a201.23,201.23,0,0,1-20.95-12.27c-10.36-6.71-20.47-13.94-30.85-20.61-19.63-12.63-39.75-14.85-60.46-3.11C1007.25,425.05,1002.9,426.7,998.67,428.65Z" transform="translate(-623.61 -184.14)"/><path class="cls-4" d="M796.58,376.06c-6.7,9-13.5,17.82-20,26.93a32,32,0,0,0-4.86,9.69c-.83,2.93-1.42,7.52,0,9.26,1.52,1.9,5.64,2.37,8.25,1.68,5.66-1.5,11.15-4,16.6-6.36,21.7-9.44,43.61-11.41,65.48-1.37,5.17,2.37,9.46,7.19,14.15,10.88-4.73-2-9.58-3.72-14.17-6.07-16.69-8.52-33.27-7.6-49.24,1.62-12.86,7.43-25.08,16.26-37.7,24.24C768,451,760.88,455.69,753.37,459c-7.8,3.48-12-.85-9-9.59,4.05-11.64,8.83-23.23,14.91-33.64C768.88,399.44,781.18,385.75,796.58,376.06Z" transform="translate(-623.61 -184.14)"/><path class="cls-5" d="M885.65,562.43c-3.39-7.28-1-13.58,3.82-18.1a45.79,45.79,0,0,1,14.48-9.1c23.07-8.73,46.35-8.63,69.51-.21a47.61,47.61,0,0,1,11,5.82c8.32,5.82,9.94,10.84,7.69,21.62C968.22,599.34,909.15,598.93,885.65,562.43ZM939,547c5.2-1,10.2-1.79,15.08-3.09,1.48-.4,2.65-2.27,4-3.46-1.17-1.27-2.15-3.2-3.53-3.72a43.74,43.74,0,0,0-31.22,0c-1.42.52-2.44,2.4-3.64,3.65,1.28,1.21,2.42,3.13,3.87,3.5C928.68,545.23,933.92,546.05,939,547Z" transform="translate(-623.61 -184.14)"/><path class="cls-4" d="M885.65,562.43c23.5,36.5,82.57,36.91,106.47,0,0,14.34-8.11,23.34-17.37,30.48-21.92,16.91-58.67,13.91-78.41-5.92C890,580.62,885.21,572.84,885.65,562.43Z" transform="translate(-623.61 -184.14)"/><path class="cls-6" d="M939,547c-5.11-1-10.35-1.81-15.48-3.15-1.45-.37-2.59-2.29-3.87-3.5,1.2-1.25,2.22-3.13,3.64-3.65a43.74,43.74,0,0,1,31.22,0c1.38.52,2.36,2.45,3.53,3.72-1.31,1.19-2.48,3.06-4,3.46C949.23,545.25,944.23,546,939,547Z" transform="translate(-623.61 -184.14)"/><ellipse class="cls-7" cx="315.26" cy="356.32" rx="19.2" ry="6.58"/><circle class="cls-8" cx="214.22" cy="253.76" r="6.88"/><circle class="cls-8" cx="421.97" cy="253.76" r="6.88"/><text x="-623.61" y="-184.14"/><path class="cls-9" d="M688.42,990Q700.6,924.89,709,870.19q-5.19,2-10.38,4.17,2.14-18.39,6.09-43.2Q751,814.24,810.23,802.4a431.4,431.4,0,0,0-7.89,42.86,409.11,409.11,0,0,0-59,13.08L740,882.71q20.64-7,38.8-11.51-4.39,18.94-7.22,31.24a285.63,285.63,0,0,0-35.75,8.46q-2.7,17.15-5.07,31.47,28.31-8.68,59.66-15.23-5.07,22.11-7.56,39.14Q738.49,972.82,688.42,990Z" transform="translate(-623.61 -184.14)"/><path class="cls-9" d="M858.38,887a287.33,287.33,0,0,0-58.89,15.77q1.92-14.64,4.91-34,39.69-11,93.24-17.27-2.71,15.07-4.64,30.41-29.62,38-51.88,61.61,26.64-7,49.34-10.78-3.42,16.92-5.17,29.54-42.51,6.13-97.37,18.84a141.31,141.31,0,0,1,4.3-25.5A693.34,693.34,0,0,0,858.38,887Z" transform="translate(-623.61 -184.14)"/><path class="cls-5" d="M977,935.46q-7.46,28.49-26.16,46.8t-35.37,16q-16.65-2.37-21.47-24-4.63-21,3.86-51.79L927,911.71q-14.81,54.94-1.49,56,6,.43,15.25-12,6.13-8.24,9.12-28.65,3.95-25.15,6-68l34.87-13.76Q984.23,908.46,977,935.46Z" transform="translate(-623.61 -184.14)"/><path class="cls-5" d="M974.59,1005.31Q985.9,951,992.12,906.19a124.92,124.92,0,0,1,28-7.8q-8.5,65.11-15.25,100.26A198.43,198.43,0,0,0,974.59,1005.31ZM990.36,884q-.08-6.75,5.7-12.54A25.31,25.31,0,0,1,1010,864.3q8.14-1.41,13.89,1.71t5.74,9.94q0,6.75-5.79,13.19a23.71,23.71,0,0,1-13.93,7.85q-8.24,1.39-13.94-2.37A11.82,11.82,0,0,1,990.36,884Z" transform="translate(-623.61 -184.14)"/><path class="cls-5" d="M1053.11,956.23q-3.15,21.74-6,38.3-17.18,3.68-28.48,8.76,9.12-50.74,15.6-95.09c-1.93,1.17-3.94,2.37-6,3.6q2.9-20.87,4.21-36.64,78.87-44.07,87.81-2.19,3.77,37.6-42.33,68.8a132.81,132.81,0,0,0,13.85,28.92q1.76-2.62,4.65-7.45a91.85,91.85,0,0,1,8.58,16.83q-13.41,13-29.62,26.55a496.36,496.36,0,0,1-19.8-51.62Zm3.07-21.38q31.46-14.91,32.86-39.7-.09-12.89-27.34-1.06Q1058.8,916.1,1056.18,934.85Z" transform="translate(-623.61 -184.14)"/><path class="cls-5" d="M1137.86,974.19q-4.29,11.58-9.12,23.84a102.83,102.83,0,0,0-23.75-14.9q26.73-57.66,47.24-136.1a233.28,233.28,0,0,0,34.09-7.45q-1.48,81.33,7.8,143.47-18.31,8-30.06,16-.87-15.08-1.49-30.14Zm24-26.37q-.61-23.67-.35-47.33-5.87,22.88-15.42,50.66Z" transform="translate(-623.61 -184.14)"/><path class="cls-10" d="M1084.49,608.06,970,722.57l114.5,114.5L1199,722.57Zm-34.8,114.51,34.8-34.81,34.81,34.81-34.81,34.8Z" transform="translate(-623.61 -184.14)"/><path class="cls-11" d="M1084.85,687.61c-39.24-40,0-80.61,0-80.61" transform="translate(-623.61 -184.14)"/><path class="cls-11" d="M1084.53,837.42c39.24-39.95,0-80.61,0-80.61" transform="translate(-623.61 -184.14)"/></svg>