<svg xmlns="http://www.w3.org/2000/svg" viewBox="0 0 1235.56 864.99"><defs><style>.cls-1,.cls-9{fill:#fff517;}.cls-1,.cls-10{stroke:#333;stroke-width:4px;}.cls-1,.cls-10,.cls-2{stroke-miterlimit:10;}.cls-2,.cls-5{fill:#333;}.cls-2{stroke:#fff;stroke-width:2px;}.cls-3{fill:#fefefe;}.cls-4{fill:#bebebe;}.cls-6{fill:#f8f8f8;}.cls-7{fill:#f3f3f3;}.cls-10,.cls-8{fill:#fff;}</style></defs><title>ezmonitoring</title><g id="Ebene_2" data-name="Ebene 2"><g id="Ebene_1-2" data-name="Ebene 1"><path class="cls-1" d="M795.47,586.86A300.63,300.63,0,0,0,902.88,411.37L890.46,416c-98.9,37.32-196.86,77.07-294.81,116.83q-66.82,27.12-133.76,54Z"/><text/><path class="cls-1" d="M830,76.41A299.54,299.54,0,0,0,632,2C467.83,2,334.42,133.5,331.28,296.9,351,287.31,794.59,89.93,830,76.41Z"/><path class="cls-1" d="M802.05,104C698.59,144,346.22,304.58,307.72,322.42a5.49,5.49,0,0,0-3.2,5v0a299.54,299.54,0,0,0,28.36,127.63,5.57,5.57,0,0,0,7,2.85q28.62-11,57.14-22.16c106.47-41.59,212.28-84.87,318-128.41Q800.85,272,886.67,236.65a5.56,5.56,0,0,0,3.12-7,301.15,301.15,0,0,0-82-124.63A5.53,5.53,0,0,0,802.05,104Z"/><path class="cls-1" d="M455,573.06c12-4.75,23.89-9.56,35.82-14.34,98-39.29,195.66-79.59,293.83-118.52q70.25-27.85,141-54.48a302.16,302.16,0,0,0-8.46-147.67q-20.49,8.4-41,16.84C769,299,662.07,343.4,554.65,386.71q-81,32.67-162.46,64.29-15.53,6-31.12,11.9A302.36,302.36,0,0,0,455,573.06Z"/><polygon class="cls-2" points="736.37 102.18 497.9 102.18 378.67 308.71 497.9 515.23 736.37 515.23 855.61 308.71 736.37 102.18"/><path class="cls-3" d="M497.39,368.27c-7.47-24.91-2.85-44.14,15.25-60.44,11.68-10.52,23.94-20.22,35.82-30.48a78.27,78.27,0,0,0,8.9-9.36c9.83-11.82,9.34-16.74-2.32-25.36-4.69-3.7-9-8.51-14.15-10.89-21.87-10-43.78-8.06-65.48,1.38-5.46,2.38-10.94,4.86-16.6,6.36-2.61.69-6.73.22-8.25-1.68-1.39-1.74-.79-6.33,0-9.27a32.28,32.28,0,0,1,4.87-9.68c6.53-9.11,13.33-18,20-26.93,18.42-16.94,39.4-16,60.9-11,26.59,6.15,51.43,17.68,75.16,32.3,4.53,2.8,7.87,2.85,12.45,0,26.25-16.08,53.7-28.56,83.41-34,19.06-3.48,37-1.57,52.68,12.59,3.34,4.28,6.95,8.33,10,12.87,5.31,8,11,15.83,15.17,24.54,3.53,7.3,0,12-7.2,10.36a71.92,71.92,0,0,1-15.25-5.27c-13.59-6.5-27.68-10.19-42.37-9-15.94,1.24-31.2,5.27-42.84,19.17-7.85,7.1-8.89,11.58-2,19.69,8,9.43,17.15,17.77,26.16,26.08,6.86,6.33,14.53,11.52,21.42,17.82,18.63,17,23,38.24,13.68,63.67-1.83,3.06-3.54,6.21-5.51,9.15-7.31,11-13.67,23.06-22.27,32.56-28.61,31.58-63.52,43.12-103.17,39.84-44.06-3.65-76.44-27.81-99.89-69C503,379.08,500.27,373.63,497.39,368.27ZM671,378.32c2.25-10.78.62-15.8-7.69-21.63a48.16,48.16,0,0,0-11-5.81c-23.16-8.42-46.44-8.53-69.52.21a45.74,45.74,0,0,0-14.47,9.1c-4.88,4.52-7.21,10.82-3.82,18.1-.44,10.41,4.32,18.19,10.69,24.59,19.74,19.83,56.49,22.83,78.4,5.92C662.92,401.65,671,392.66,671,378.32Z"/><path class="cls-4" d="M497.39,368.27c2.88,5.36,5.65,10.81,8.65,16.08,23.45,41.16,55.83,65.32,99.89,69,39.65,3.28,74.56-8.26,103.17-39.84,8.6-9.5,15-21.59,22.27-32.56,2-2.94,3.68-6.09,5.51-9.15-2.12,5.79-3.63,12-6.46,17.3C709.62,428,680.6,456.21,643,472.75c-16,7.05-32.23,7.69-48.45.74-40.13-17.19-70.78-46.89-91.62-89.28C500.47,379.27,499.2,373.6,497.39,368.27Z"/><path class="cls-4" d="M677.58,244.51c11.64-13.9,26.9-17.93,42.84-19.17,14.69-1.15,28.78,2.54,42.37,9A71.92,71.92,0,0,0,778,239.65c7.17,1.61,10.73-3.06,7.2-10.36-4.2-8.71-9.86-16.56-15.17-24.54-3-4.54-6.64-8.59-10-12.87,24.93,17.3,42.56,41.35,52.09,72.65.87,2.87.82,8.14-.69,9.41-2.08,1.74-6.43,1.91-9,.66a199.57,199.57,0,0,1-21-12.28c-10.37-6.7-20.47-13.93-30.85-20.6-19.63-12.63-39.76-14.85-60.46-3.11C686.16,240.91,681.8,242.56,677.58,244.51Z"/><path class="cls-4" d="M475.49,191.92c-6.7,9-13.5,17.82-20,26.93a32.28,32.28,0,0,0-4.87,9.68c-.82,2.94-1.42,7.53,0,9.27,1.52,1.9,5.64,2.37,8.25,1.68,5.66-1.5,11.14-4,16.6-6.36,21.7-9.44,43.61-11.41,65.48-1.38,5.17,2.38,9.46,7.19,14.15,10.89-4.73-2-9.58-3.72-14.18-6.07-16.68-8.52-33.26-7.61-49.23,1.62-12.86,7.43-25.08,16.26-37.7,24.23-7.07,4.47-14.15,9.14-21.65,12.49-7.8,3.48-12-.85-9-9.59,4.06-11.64,8.84-23.23,14.92-33.64C447.79,215.3,460.09,201.61,475.49,191.92Z"/><path class="cls-5" d="M564.56,378.29c-3.39-7.28-1.06-13.58,3.82-18.1a45.74,45.74,0,0,1,14.47-9.1c23.08-8.74,46.36-8.63,69.52-.21a48.16,48.16,0,0,1,11,5.81c8.31,5.83,9.94,10.85,7.69,21.63C647.13,415.2,588.05,414.79,564.56,378.29Zm53.38-15.39c5.2-1,10.2-1.79,15.08-3.1,1.48-.39,2.64-2.26,4-3.45-1.16-1.28-2.14-3.2-3.53-3.72a43.66,43.66,0,0,0-31.21,0c-1.42.52-2.44,2.4-3.65,3.65,1.29,1.21,2.42,3.12,3.88,3.5C607.59,361.09,612.83,361.91,617.94,362.9Z"/><path class="cls-4" d="M564.56,378.29c23.49,36.5,82.57,36.91,106.47,0,0,14.34-8.11,23.33-17.38,30.48-21.91,16.91-58.66,13.91-78.4-5.92C568.88,396.48,564.12,388.7,564.56,378.29Z"/><path class="cls-6" d="M617.94,362.9c-5.11-1-10.35-1.81-15.48-3.15-1.46-.38-2.59-2.29-3.88-3.5,1.21-1.25,2.23-3.13,3.65-3.65a43.66,43.66,0,0,1,31.21,0c1.39.52,2.37,2.44,3.53,3.72-1.31,1.19-2.47,3.06-4,3.45C628.14,361.11,623.14,361.88,617.94,362.9Z"/><ellipse class="cls-7" cx="617.78" cy="356.32" rx="19.2" ry="6.58"/><circle class="cls-8" cx="516.74" cy="253.76" r="6.88"/><circle class="cls-8" cx="724.48" cy="253.76" r="6.88"/><path class="cls-9" d="M0,844.53q15-80,25.22-147.19-6.37,2.49-12.75,5.13,2.64-22.59,7.49-53.09,57-20.79,129.73-35.34a529.73,529.73,0,0,0-9.7,52.67A502,502,0,0,0,67.5,682.78l-4.16,29.94q25.36-8.6,47.68-14.13-5.42,23.28-8.87,38.39-18,2.78-43.94,10.39Q54.88,768.45,52,786q34.8-10.66,73.32-18.71-6.23,27.17-9.28,48.09Q61.53,823.46,0,844.53Z"/><path class="cls-9" d="M208.86,718q-34.68,5.18-72.37,19.39,2.37-18,6-41.79,48.78-13.46,114.59-21.21-3.35,18.52-5.71,37.37-36.4,46.62-63.76,75.7,32.75-8.61,60.63-13.24-4.2,20.79-6.35,36.29Q189.69,818,122.27,833.66a173.4,173.4,0,0,1,5.28-31.34A851.81,851.81,0,0,0,208.86,718Z"/><path class="cls-5" d="M263.78,678.68q43.08-11.83,58.91-17.23,2.16,36.94,4.52,62.14,7.44-19.27,16.48-43.83,18.42-1.5,42.32-9.15-14.2,100.47-23.58,171.88-14.22,3.76-34,9.8,4.2-46.53,11.31-89.5-7,15.19-25.31,53.1-5.07-39.63-7.43-79.7-7.11,50.73-15.73,102.74-21.32,6.8-42.21,13.14,10-76,21.11-143.56-3.67,1.08-9.16,3.34A329.28,329.28,0,0,0,263.78,678.68Z"/><path class="cls-5" d="M481.27,707.11q7.92,26.82-1.45,61.93-9.17,35-32.15,57.51t-43.46,19.6q-20.46-2.91-26.38-29.51t3.45-61.6q9.15-35,30.2-57.72T453,677.5Q473.36,680.31,481.27,707.11Zm-35.59,20.68a8.39,8.39,0,0,0-5.5-.86q-20.67,6.26-29.5,39.09-8.52,43.51,7.75,44.8,14.86-1.07,26.17-16.37,8.83-13.12,11.2-35.21Q457,735.66,445.68,727.79Z"/><path class="cls-5" d="M493.17,670.07q35.64-9.59,51.26-14.76,8.4,33.08,14.43,76.9,4-34.58,9.59-65.26,18.09-1.51,41.57-8.84-14.76,102.75-23.7,171.35-14,3.64-33.49,9.47-21.21-73.12-25.09-104.14-5.49,41.25-13.68,91.33-20.89,6.45-36.08,10.77,9.7-73.23,18.74-132.36a64.38,64.38,0,0,0-9,3.23Q489.83,687.41,493.17,670.07Z"/><path class="cls-5" d="M586.43,863.38q13.89-66.76,21.54-121.8A153.74,153.74,0,0,1,642.43,732Q632,812,623.7,855.19,601.19,858.64,586.43,863.38Zm19.39-149q-.11-8.3,7-15.4a31.08,31.08,0,0,1,17.12-8.83q10-1.73,17.07,2.1t7,12.22q0,8.3-7.1,16.21a29.15,29.15,0,0,1-17.13,9.64q-10.12,1.72-17.12-2.91A14.5,14.5,0,0,1,605.82,714.33Z"/><path class="cls-5" d="M714.7,737Q705,805.44,698,841.84,676.15,854,662.14,860.79,674,799.31,682.06,746.21q-15.93,5.28-31.77,11.84,2.06-17.55,5.82-41.24,44.26-16.15,100.8-27.46a415.82,415.82,0,0,0-7.54,40.92Q732,732.85,714.7,737Z"/><path class="cls-5" d="M848.83,707.11q7.9,26.82-1.46,61.93-9.15,35-32.14,57.51t-43.46,19.6q-20.46-2.91-26.38-29.51t3.44-61.6Q758,720,779,697.32t41.52-19.82Q840.92,680.31,848.83,707.11Zm-35.6,20.68a8.35,8.35,0,0,0-5.49-.86q-20.67,6.26-29.51,39.09-8.51,43.51,7.76,44.8,14.87-1.07,26.17-16.37,8.82-13.12,11.2-35.21Q824.55,735.66,813.23,727.79Z"/><path class="cls-5" d="M888.62,803.07q-3.87,26.71-7.32,47.06-21.1,4.53-35,10.77,11.19-62.35,19.17-116.85-3.56,2.16-7.43,4.42,3.56-25.63,5.17-45,96.91-54.16,107.9-2.69,4.64,46.2-52,84.54a162.56,162.56,0,0,0,17,35.54q2.16-3.23,5.71-9.15a113.27,113.27,0,0,1,10.56,20.67Q935.9,848.31,916,865a608,608,0,0,1-24.34-63.43Zm3.77-26.28Q931,758.49,932.78,728q-.12-15.84-33.61-1.29Q895.63,753.75,892.39,776.79Z"/><path class="cls-5" d="M955.82,863.38q13.89-66.76,21.54-121.8a153.59,153.59,0,0,1,34.46-9.59q-10.44,80-18.74,123.2Q970.58,858.64,955.82,863.38Zm19.39-149q-.12-8.3,7-15.4a31.08,31.08,0,0,1,17.12-8.83q10-1.73,17.07,2.1t7.05,12.22q0,8.3-7.1,16.21a29.15,29.15,0,0,1-17.13,9.64Q989.1,732,982.1,727.36A14.48,14.48,0,0,1,975.21,714.33Z"/><path class="cls-5" d="M1032.5,670.07q35.64-9.59,51.26-14.76,8.4,33.08,14.43,76.9,4-34.58,9.59-65.26,18.09-1.51,41.57-8.84-14.76,102.75-23.7,171.35-14,3.64-33.49,9.47-21.21-73.12-25.09-104.14-5.49,41.25-13.68,91.33-20.9,6.45-36.08,10.77,9.7-73.23,18.74-132.36a64.38,64.38,0,0,0-9,3.23Q1029.16,687.41,1032.5,670.07Z"/><path class="cls-5" d="M1163.56,847.66q-19.82-.76-25.14-28.38t4-62.63q9.16-35,32.21-57.5t43.4-19.6q15.6,3.12,17.23,23T1228.83,743l-34.9,16.47q3-31.87-3.55-31.66t-17.13,17.13q-8.38,14.64-11.2,39.09-1.71,26.06,8.19,34.89,2,1.41,6.68.43t10.87-39l43.73-20.9q-9.58,56.12-14.22,81-12.6,4.41-43.83,16.8,1.62-7.32,4.63-22.62Q1175,847.34,1163.56,847.66Z"/><polygon class="cls-10" points="808.21 710.86 756.93 534.86 727.78 658.38 682.42 586.86 587.33 588.46 587.33 554.53 695.83 554.53 715.33 573.26 755.52 398.86 810.53 586.86 843.9 477.04 876.49 555.54 924.13 555.66 921.73 583.66 868.53 584.86 849.73 560.46 808.21 710.86"/></g></g></svg>