<svg xmlns="http://www.w3.org/2000/svg" viewBox="0 0 790.55 820.48"><defs><style>.cls-1,.cls-9{fill:#fff517;}.cls-1,.cls-10{stroke:#333;stroke-width:4px;}.cls-1,.cls-10,.cls-2{stroke-miterlimit:10;}.cls-2,.cls-5{fill:#333;}.cls-2{stroke:#fff;stroke-width:2px;}.cls-3{fill:#fefefe;}.cls-4{fill:#bebebe;}.cls-6{fill:#f8f8f8;}.cls-7{fill:#f3f3f3;}.cls-10,.cls-8{fill:#fff;}</style></defs><title>ezmonitor</title><g id="Ebene_2" data-name="Ebene 2"><g id="Ebene_1-2" data-name="Ebene 1"><path class="cls-1" d="M573,586.86a300.62,300.62,0,0,0,107.4-175.49L668,416c-98.91,37.32-196.87,77.07-294.81,116.83q-66.84,27.12-133.76,54Z"/><path class="cls-1" d="M607.49,76.41A299.51,299.51,0,0,0,409.48,2C245.33,2,111.91,133.5,108.78,296.9,128.45,287.31,572.08,89.93,607.49,76.41Z"/><path class="cls-1" d="M579.54,104C476.08,144,123.72,304.58,85.22,322.42a5.5,5.5,0,0,0-3.21,5v0a299.55,299.55,0,0,0,28.37,127.63,5.57,5.57,0,0,0,7,2.85q28.6-11,57.13-22.16c106.48-41.59,212.29-84.87,318-128.41Q578.34,272,664.16,236.65a5.57,5.57,0,0,0,3.13-7,301.15,301.15,0,0,0-82-124.63A5.54,5.54,0,0,0,579.54,104Z"/><path class="cls-1" d="M232.48,573.06c12-4.75,23.89-9.56,35.83-14.34,98-39.29,195.65-79.59,293.83-118.52q70.23-27.85,141-54.48a302.5,302.5,0,0,0-8.46-147.67q-20.5,8.4-41,16.84C546.54,299,439.57,343.4,332.14,386.71q-81,32.67-162.45,64.29-15.54,6-31.12,11.9A302.24,302.24,0,0,0,232.48,573.06Z"/><polygon class="cls-2" points="513.87 102.18 275.4 102.18 156.16 308.71 275.4 515.23 513.87 515.23 633.1 308.71 513.87 102.18"/><path class="cls-3" d="M274.89,368.27c-7.48-24.91-2.85-44.14,15.24-60.44,11.69-10.52,23.95-20.22,35.83-30.48a79,79,0,0,0,8.89-9.36c9.84-11.82,9.34-16.74-2.31-25.36-4.7-3.7-9-8.51-14.15-10.89-21.88-10-43.79-8.06-65.49,1.38-5.45,2.38-10.93,4.86-16.6,6.36-2.61.69-6.73.22-8.24-1.68-1.39-1.74-.8-6.33,0-9.27a31.82,31.82,0,0,1,4.87-9.68c6.53-9.11,13.33-18,20-26.93,18.42-16.94,39.41-16,60.9-11,26.6,6.15,51.44,17.68,75.16,32.3,4.54,2.8,7.88,2.85,12.45,0,26.26-16.08,53.71-28.56,83.41-34,19.06-3.48,37-1.57,52.69,12.59,3.34,4.28,6.94,8.33,10,12.87,5.32,8,11,15.83,15.18,24.54,3.52,7.3,0,12-7.2,10.36a72,72,0,0,1-15.26-5.27c-13.58-6.5-27.67-10.19-42.37-9-15.94,1.24-31.2,5.27-42.83,19.17-7.86,7.1-8.89,11.58-2,19.69,8.05,9.43,17.15,17.77,26.15,26.08,6.87,6.33,14.54,11.52,21.43,17.82,18.62,17,23.05,38.24,13.68,63.67-1.83,3.06-3.55,6.21-5.51,9.15-7.32,11-13.68,23.06-22.28,32.56-28.6,31.58-63.51,43.12-103.16,39.84-44.06-3.65-76.44-27.81-99.89-69C280.53,379.08,277.76,373.63,274.89,368.27Zm173.63,10.05c2.26-10.78.63-15.8-7.69-21.63a48,48,0,0,0-11-5.81c-23.16-8.42-46.44-8.53-69.51.21a45.63,45.63,0,0,0-14.47,9.1c-4.88,4.52-7.22,10.82-3.82,18.1-.45,10.41,4.31,18.19,10.68,24.59,19.74,19.83,56.49,22.83,78.41,5.92C440.41,401.65,448.5,392.66,448.52,378.32Z"/><path class="cls-4" d="M274.89,368.27c2.87,5.36,5.64,10.81,8.65,16.08,23.45,41.16,55.83,65.32,99.89,69,39.65,3.28,74.56-8.26,103.16-39.84,8.6-9.5,15-21.59,22.28-32.56,2-2.94,3.68-6.09,5.51-9.15-2.12,5.79-3.64,12-6.47,17.3-20.8,38.95-49.81,67.14-87.45,83.68-16,7.05-32.23,7.69-48.45.74q-60.21-25.78-91.62-89.28C278,379.27,276.69,373.6,274.89,368.27Z"/><path class="cls-4" d="M455.08,244.51c11.63-13.9,26.89-17.93,42.83-19.17,14.7-1.15,28.79,2.54,42.37,9a72,72,0,0,0,15.26,5.27c7.17,1.61,10.72-3.06,7.2-10.36-4.2-8.71-9.86-16.56-15.18-24.54-3-4.54-6.63-8.59-10-12.87,24.93,17.3,42.55,41.35,52.08,72.65.88,2.87.83,8.14-.69,9.41-2.08,1.74-6.42,1.91-9,.66a199.57,199.57,0,0,1-21-12.28c-10.36-6.7-20.46-13.93-30.84-20.6-19.64-12.63-39.76-14.85-60.47-3.11C463.66,240.91,459.3,242.56,455.08,244.51Z"/><path class="cls-4" d="M253,191.92c-6.69,9-13.49,17.82-20,26.93a31.82,31.82,0,0,0-4.87,9.68c-.83,2.94-1.42,7.53,0,9.27,1.51,1.9,5.63,2.37,8.24,1.68,5.67-1.5,11.15-4,16.6-6.36,21.7-9.44,43.61-11.41,65.49-1.38,5.17,2.38,9.45,7.19,14.15,10.89-4.74-2-9.59-3.72-14.18-6.07-16.69-8.52-33.27-7.61-49.23,1.62-12.86,7.43-25.08,16.26-37.7,24.23-7.08,4.47-14.15,9.14-21.66,12.49-7.79,3.48-12-.85-9-9.59,4.05-11.64,8.83-23.23,14.91-33.64C225.28,215.3,237.58,201.61,253,191.92Z"/><path class="cls-5" d="M342.06,378.29c-3.4-7.28-1.06-13.58,3.82-18.1a45.63,45.63,0,0,1,14.47-9.1c23.07-8.74,46.35-8.63,69.51-.21a48,48,0,0,1,11,5.81c8.32,5.83,9.95,10.85,7.69,21.63C424.63,415.2,365.55,414.79,342.06,378.29Zm53.37-15.39c5.21-1,10.2-1.79,15.09-3.1,1.47-.39,2.64-2.26,4-3.45-1.17-1.28-2.14-3.2-3.53-3.72a43.69,43.69,0,0,0-31.22,0c-1.41.52-2.44,2.4-3.64,3.65,1.28,1.21,2.42,3.12,3.87,3.5C385.08,361.09,390.32,361.91,395.43,362.9Z"/><path class="cls-4" d="M342.06,378.29c23.49,36.5,82.57,36.91,106.46,0,0,14.34-8.11,23.33-17.37,30.48-21.92,16.91-58.67,13.91-78.41-5.92C346.37,396.48,341.61,388.7,342.06,378.29Z"/><path class="cls-6" d="M395.43,362.9c-5.11-1-10.35-1.81-15.48-3.15-1.45-.38-2.59-2.29-3.87-3.5,1.2-1.25,2.23-3.13,3.64-3.65a43.69,43.69,0,0,1,31.22,0c1.39.52,2.36,2.44,3.53,3.72-1.31,1.19-2.48,3.06-4,3.45C405.63,361.11,400.64,361.88,395.43,362.9Z"/><ellipse class="cls-7" cx="395.27" cy="356.32" rx="19.2" ry="6.58"/><circle class="cls-8" cx="294.23" cy="253.76" r="6.88"/><circle class="cls-8" cx="501.98" cy="253.76" r="6.88"/><path class="cls-9" d="M0,803.83q12.18-65.08,20.53-119.78-5.19,2-10.38,4.17,2.14-18.39,6.09-43.2,46.37-16.92,105.57-28.76a431.4,431.4,0,0,0-7.89,42.86,409.11,409.11,0,0,0-59,13.08l-3.39,24.36q20.64-7,38.8-11.5Q85.95,704,83.13,716.3a285.32,285.32,0,0,0-35.76,8.46q-2.7,17.15-5.07,31.47Q70.61,747.55,102,741q-5.07,22.11-7.56,39.14Q50.07,786.68,0,803.83Z"/><path class="cls-9" d="M170,700.85a288,288,0,0,0-58.89,15.78Q113,702,116,682.63q39.7-11,93.24-17.27-2.72,15.07-4.64,30.41-29.62,38-51.88,61.61,26.64-7,49.34-10.78-3.42,16.92-5.17,29.54Q154.36,782.26,99.5,795a141.56,141.56,0,0,1,4.3-25.51A691.15,691.15,0,0,0,170,700.85Z"/><path class="cls-5" d="M214.66,668.87q35.06-9.64,47.94-14,1.74,30.06,3.68,50.57,6-15.69,13.41-35.67,15-1.22,34.44-7.45-11.56,81.76-19.2,139.87-11.56,3.08-27.69,8,3.42-37.86,9.2-72.83-5.7,12.36-20.59,43.21-4.12-32.25-6-64.86Q244,756.94,237,799.27q-17.35,5.52-34.36,10.69,8.15-61.86,17.18-116.82a79.24,79.24,0,0,0-7.45,2.72A267,267,0,0,0,214.66,668.87Z"/><path class="cls-5" d="M391.64,692q6.45,21.82-1.18,50.39-7.45,28.49-26.16,46.8t-35.36,15.95q-16.65-2.37-21.47-24t2.8-50.13q7.46-28.49,24.58-47t33.79-16.13Q385.2,670.18,391.64,692Zm-29,16.83a6.79,6.79,0,0,0-4.47-.7q-16.83,5.08-24,31.81-6.93,35.41,6.31,36.46,12.09-.89,21.29-13.32,7.18-10.7,9.12-28.66Q371.88,715.22,362.68,708.83Z"/><path class="cls-5" d="M401.33,661.85q29-7.79,41.71-12a576.39,576.39,0,0,1,11.75,62.57q3.24-28.12,7.79-53.11,14.73-1.21,33.83-7.18-12,83.6-19.28,139.43-11.38,3-27.25,7.71-17.26-59.5-20.42-84.74-4.47,33.56-11.13,74.31-17,5.26-29.36,8.77,7.89-59.6,15.25-107.71a52.26,52.26,0,0,0-7.36,2.63Q398.6,676,401.33,661.85Z"/><path class="cls-5" d="M477.22,819.16q11.31-54.33,17.53-99.11a124.39,124.39,0,0,1,28-7.8q-8.5,65.12-15.25,100.25A200.86,200.86,0,0,0,477.22,819.16ZM493,697.87q-.09-6.74,5.69-12.53a25.31,25.31,0,0,1,13.94-7.18q8.14-1.41,13.89,1.7a10.52,10.52,0,0,1,5.74,9.95q0,6.75-5.79,13.19a23.71,23.71,0,0,1-13.93,7.85q-8.23,1.39-13.94-2.37A11.82,11.82,0,0,1,493,697.87Z"/><path class="cls-5" d="M581.6,716.28Q573.71,772,568,801.64q-17.79,9.9-29.18,15.42,9.64-50,16.21-93.25-13,4.31-25.85,9.65,1.66-14.3,4.73-33.57,36-13.14,82-22.35a334.91,334.91,0,0,0-6.13,33.31Q595.7,713,581.6,716.28Z"/><path class="cls-5" d="M690.75,692q6.43,21.82-1.18,50.39-7.46,28.49-26.16,46.8T628,805.14q-16.65-2.37-21.47-24T609.38,731q7.44-28.49,24.58-47t33.78-16.13Q684.32,670.18,690.75,692Zm-29,16.83a6.79,6.79,0,0,0-4.47-.7q-16.83,5.08-24,31.81-6.91,35.41,6.31,36.46,12.1-.89,21.3-13.32,7.19-10.7,9.11-28.66Q671,715.22,661.79,708.83Z"/><path class="cls-5" d="M723.13,770.09q-3.15,21.74-6,38.3-17.17,3.68-28.48,8.76,9.12-50.74,15.6-95.09c-1.93,1.17-3.94,2.37-6,3.6q2.89-20.86,4.21-36.64,78.87-44.07,87.81-2.19,3.76,37.6-42.33,68.8a132.35,132.35,0,0,0,13.85,28.92q1.76-2.62,4.64-7.45A91.34,91.34,0,0,1,775,793.93q-13.41,13-29.62,26.55a497.22,497.22,0,0,1-19.8-51.62Zm3.07-21.39q31.45-14.9,32.86-39.7-.09-12.87-27.34-1Q728.83,730,726.2,748.7Z"/><polygon class="cls-10" points="585.7 710.86 534.43 534.86 505.28 658.38 459.92 586.86 364.83 588.46 364.83 554.53 473.33 554.53 492.83 573.26 533.01 398.86 588.03 586.86 621.39 477.04 653.98 555.54 701.63 555.66 699.23 583.66 646.03 584.86 627.23 560.46 585.7 710.86"/></g></g></svg>