<svg xmlns="http://www.w3.org/2000/svg" viewBox="0 0 633.52 866.86"><defs><style>.cls-1,.cls-9{fill:#01a0c6;}.cls-1{stroke:#333;}.cls-1,.cls-2{stroke-miterlimit:10;stroke-width:2px;}.cls-2,.cls-5{fill:#333;}.cls-2{stroke:#fff;}.cls-3{fill:#fefefe;}.cls-4{fill:#bebebe;}.cls-6{fill:#f8f8f8;}.cls-7{fill:#f3f3f3;}.cls-8{fill:#fff;}</style></defs><title>Element 1</title><g id="Ebene_2" data-name="Ebene 2"><g id="Ebene_1-2" data-name="Ebene 1"><path class="cls-1" d="M497,585.85A300.63,300.63,0,0,0,604.36,410.36L591.94,415C493,452.34,395.08,492.09,297.13,531.85q-66.82,27.12-133.76,54Z"/><text/><path class="cls-1" d="M526.48,75.41A299.52,299.52,0,0,0,328.46,1C164.32,1,30.9,132.5,27.77,295.9,47.43,286.31,491.07,88.93,526.48,75.41Z"/><path class="cls-1" d="M498.53,103C395.07,143,42.7,303.58,4.2,321.42a5.49,5.49,0,0,0-3.2,5v0A299.69,299.69,0,0,0,29.36,454.06a5.58,5.58,0,0,0,7,2.85q28.6-11,57.13-22.16c106.48-41.59,212.28-84.87,318-128.41Q497.33,271,583.15,235.65a5.58,5.58,0,0,0,3.13-7,301.17,301.17,0,0,0-82-124.63A5.52,5.52,0,0,0,498.53,103Z"/><path class="cls-1" d="M156.47,572.05c12-4.75,23.89-9.56,35.83-14.34,98-39.29,195.65-79.59,293.82-118.52q70.25-27.85,141-54.48A302.37,302.37,0,0,0,618.62,237q-20.49,8.4-41,16.84C470.52,298,363.55,342.39,256.13,385.71q-81,32.66-162.45,64.28-15.54,6-31.12,11.9A302.24,302.24,0,0,0,156.47,572.05Z"/><polygon class="cls-2" points="432.86 101.18 194.38 101.18 75.15 307.71 194.38 514.23 432.86 514.23 552.09 307.71 432.86 101.18"/><path class="cls-3" d="M193.87,367.27c-7.47-24.91-2.85-44.14,15.25-60.44,11.68-10.52,23.94-20.22,35.82-30.48a78.27,78.27,0,0,0,8.9-9.36c9.84-11.82,9.34-16.74-2.32-25.36-4.69-3.7-9-8.51-14.15-10.89-21.87-10-43.78-8.06-65.48,1.38-5.45,2.38-10.94,4.86-16.6,6.36-2.61.69-6.73.22-8.25-1.68-1.38-1.74-.79-6.33,0-9.27a32,32,0,0,1,4.86-9.68c6.53-9.11,13.33-18,20-26.93,18.42-16.94,39.4-16,60.9-11,26.59,6.15,51.43,17.68,75.16,32.3,4.53,2.8,7.88,2.85,12.45,0,26.26-16.08,53.7-28.56,83.41-34,19.06-3.48,37-1.57,52.68,12.59,3.35,4.28,6.95,8.33,10,12.87,5.31,8,11,15.83,15.18,24.54,3.52,7.3,0,12-7.2,10.36a71.81,71.81,0,0,1-15.26-5.27c-13.58-6.5-27.67-10.19-42.37-9-15.94,1.24-31.2,5.27-42.84,19.17-7.85,7.1-8.89,11.58-2,19.69,8,9.43,17.15,17.77,26.16,26.08,6.86,6.33,14.54,11.52,21.42,17.82,18.63,17,23.05,38.24,13.69,63.67-1.83,3.06-3.55,6.21-5.51,9.15-7.32,11-13.68,23.06-22.28,32.56-28.6,31.58-63.52,43.12-103.17,39.84-44.05-3.65-76.44-27.81-99.89-69C199.52,378.08,196.75,372.63,193.87,367.27Zm173.64,10.05c2.25-10.78.63-15.8-7.69-21.63a48,48,0,0,0-11-5.81c-23.16-8.42-46.44-8.53-69.51.21a45.79,45.79,0,0,0-14.48,9.1c-4.87,4.52-7.21,10.82-3.82,18.1-.44,10.41,4.32,18.19,10.69,24.59,19.74,19.83,56.49,22.83,78.41,5.92C359.4,400.65,367.48,391.66,367.51,377.32Z"/><path class="cls-4" d="M193.87,367.27c2.88,5.36,5.65,10.81,8.65,16.08,23.45,41.16,55.84,65.32,99.89,69,39.65,3.28,74.57-8.26,103.17-39.84,8.6-9.5,15-21.59,22.28-32.56,2-2.94,3.68-6.09,5.51-9.15-2.13,5.79-3.64,12-6.47,17.3-20.8,38.95-49.81,67.14-87.46,83.68-16,7.05-32.22,7.69-48.45.74-40.13-17.19-70.77-46.89-91.61-89.28C197,378.27,195.68,372.6,193.87,367.27Z"/><path class="cls-4" d="M374.06,243.51c11.64-13.9,26.9-17.93,42.84-19.17,14.7-1.15,28.79,2.54,42.37,9a71.81,71.81,0,0,0,15.26,5.27c7.16,1.61,10.72-3.06,7.2-10.36-4.21-8.71-9.87-16.56-15.18-24.54-3-4.54-6.63-8.59-10-12.87,24.94,17.3,42.56,41.35,52.09,72.65.88,2.87.82,8.14-.69,9.41-2.08,1.74-6.42,1.91-9,.66a199.57,199.57,0,0,1-21-12.28c-10.36-6.7-20.47-13.93-30.85-20.6-19.63-12.63-39.75-14.85-60.46-3.11C382.64,239.91,378.29,241.56,374.06,243.51Z"/><path class="cls-4" d="M172,190.92c-6.7,9-13.5,17.82-20,26.93a32,32,0,0,0-4.86,9.68c-.83,2.94-1.42,7.53,0,9.27,1.52,1.9,5.64,2.37,8.25,1.68,5.66-1.5,11.15-4,16.6-6.36,21.7-9.44,43.61-11.41,65.48-1.38,5.17,2.38,9.46,7.19,14.15,10.89-4.73-2-9.58-3.72-14.17-6.07-16.69-8.52-33.27-7.61-49.24,1.62-12.86,7.43-25.08,16.26-37.7,24.23-7.07,4.47-14.14,9.14-21.65,12.49-7.8,3.48-12-.85-9-9.59,4.06-11.64,8.84-23.23,14.92-33.64C144.27,214.3,156.57,200.61,172,190.92Z"/><path class="cls-5" d="M261,377.29c-3.39-7.28-1.05-13.58,3.82-18.1a45.79,45.79,0,0,1,14.48-9.1c23.07-8.74,46.35-8.63,69.51-.21a48,48,0,0,1,11,5.81c8.32,5.83,9.94,10.85,7.69,21.63C343.61,414.2,284.54,413.79,261,377.29Zm53.38-15.39c5.2-1,10.2-1.79,15.08-3.1,1.48-.39,2.65-2.26,4-3.45-1.17-1.28-2.15-3.2-3.53-3.72a43.69,43.69,0,0,0-31.22,0c-1.42.52-2.44,2.4-3.64,3.65,1.28,1.21,2.42,3.12,3.87,3.5C304.07,360.09,309.31,360.91,314.42,361.9Z"/><path class="cls-4" d="M261,377.29c23.5,36.5,82.57,36.91,106.47,0,0,14.34-8.11,23.33-17.37,30.48-21.92,16.91-58.67,13.91-78.41-5.92C265.36,395.48,260.6,387.7,261,377.29Z"/><path class="cls-6" d="M314.42,361.9c-5.11-1-10.35-1.81-15.48-3.15-1.45-.38-2.59-2.29-3.87-3.5,1.2-1.25,2.22-3.13,3.64-3.65a43.69,43.69,0,0,1,31.22,0c1.38.52,2.36,2.44,3.53,3.72-1.31,1.19-2.48,3.06-4,3.45C324.62,360.11,319.62,360.88,314.42,361.9Z"/><ellipse class="cls-7" cx="314.26" cy="355.32" rx="19.2" ry="6.58"/><circle class="cls-8" cx="213.22" cy="252.76" r="6.88"/><circle class="cls-8" cx="420.97" cy="252.76" r="6.88"/><path class="cls-9" d="M12.47,848.41Q27.2,769.68,37.3,703.5q-6.28,2.44-12.55,5,2.58-22.24,7.37-52.27,56.07-20.46,127.71-34.79a527.2,527.2,0,0,0-9.55,51.85,495,495,0,0,0-71.36,15.83l-4.1,29.47q25-8.46,46.94-13.91-5.33,22.92-8.73,37.79-17.75,2.73-43.26,10.24-3.27,20.75-6.13,38.07,34.24-10.51,72.18-18.42-6.15,26.75-9.15,47.34Q73.06,827.67,12.47,848.41Z"/><path class="cls-9" d="M218.09,723.83q-34.14,5.08-71.25,19.09,2.32-17.71,5.94-41.14,48-13.24,112.81-20.89-3.3,18.24-5.62,36.79-35.85,45.92-62.77,74.54,32.24-8.49,59.69-13-4.12,20.46-6.25,35.73-51.43,7.43-117.8,22.79a170.63,170.63,0,0,1,5.2-30.85A838.81,838.81,0,0,0,218.09,723.83Z"/><path class="cls-8" d="M247.88,858.17q17-90.76,27.35-165.61a112.82,112.82,0,0,1,32.24-13q-11,82.38-19.3,131.89Q312,802.61,327.08,799a283.53,283.53,0,0,0-7.42,40.29Q295.06,841.95,247.88,858.17Z"/><path class="cls-8" d="M324.85,850.11q13.68-65.73,21.21-119.92A151.49,151.49,0,0,1,380,720.76q-10.28,78.78-18.44,121.29Q339.37,845.44,324.85,850.11Zm19.09-146.74q-.1-8.16,6.89-15.16a30.54,30.54,0,0,1,16.86-8.69q9.85-1.69,16.8,2.06t6.95,12q0,8.16-7,16a28.69,28.69,0,0,1-16.86,9.49q-10,1.7-16.86-2.86A14.3,14.3,0,0,1,343.94,703.37Z"/><path class="cls-8" d="M395.78,743.55l-8.16,3.39q2-17.27,5.72-40.6A618.46,618.46,0,0,1,487,680.68,408.86,408.86,0,0,0,479.54,721,339.82,339.82,0,0,0,428,732.32l-3.71,26.5q20.79-7.2,36.47-11.13-4.44,19.08-7.31,31.38-12,1.7-33.29,8.06-5.94,39.43-10.71,63.93-21.31,10.19-34.88,15.8Q387.41,800.28,395.78,743.55Z"/><path class="cls-8" d="M473.69,848.41q14.73-78.74,24.83-144.91-6.28,2.44-12.55,5,2.58-22.24,7.37-52.27,56.07-20.46,127.71-34.79a527.2,527.2,0,0,0-9.55,51.85,495,495,0,0,0-71.36,15.83l-4.09,29.47q25-8.46,46.93-13.91-5.33,22.92-8.73,37.79Q556.5,745.25,531,752.76q-3.27,20.75-6.13,38.07,34.25-10.51,72.18-18.42-6.15,26.75-9.15,47.34Q534.28,827.67,473.69,848.41Z"/><text/></g></g></svg>