<svg id="a39f6782-b363-4d23-9c4f-e8ef580e2119" data-name="Ebene 1" xmlns="http://www.w3.org/2000/svg" viewBox="0 0 425.11 393.84"><defs><style>.a8415157-037b-43b8-b829-02118db6cfc9{fill:#01a0c6;}.a8415157-037b-43b8-b829-02118db6cfc9,.f486166c-a8df-43fb-9869-5c1c13f8cf82{stroke:#fff;stroke-miterlimit:10;stroke-width:2px;}.a58c484b-c3c7-4aca-9d66-9b70dd26e47f,.f486166c-a8df-43fb-9869-5c1c13f8cf82{fill:#333;}.fac19630-ad00-4e4a-980e-20b8f590f1ad{fill:#fefefe;}.afcd7ad4-8f48-473f-9219-3b8b3a7ac909{fill:#bebebe;}.ab95260e-7c1e-444d-8cc6-dda76a38a982{fill:#f8f8f8;}.a185f926-336c-46a1-a1c2-62fdaf859f34{fill:#f3f3f3;}.bdd9364e-29f4-43a7-ba5b-17dee8850dad{fill:#fff;}</style></defs><title>Unbenannt-2</title><path class="a8415157-037b-43b8-b829-02118db6cfc9" d="M478.22,463.75a201.5,201.5,0,0,0,72-117.58l-8.32,3.12c-66.27,25-131.9,51.64-197.52,78.28q-44.77,18.17-89.62,36.18Z" transform="translate(-144.93 -70.9)"/><text x="-144.93" y="-70.9"/><path class="a8415157-037b-43b8-b829-02118db6cfc9" d="M498,121.76A200.69,200.69,0,0,0,365.33,71.9C255.35,71.9,166,160,163.87,269.48,177,263.06,474.27,130.82,498,121.76Z" transform="translate(-144.93 -70.9)"/><path class="a8415157-037b-43b8-b829-02118db6cfc9" d="M479.27,140.24C410,167.07,173.87,274.63,148.08,286.58a3.68,3.68,0,0,0-2.15,3.33v0a200.65,200.65,0,0,0,19,85.51,3.73,3.73,0,0,0,4.71,1.91q19.17-7.35,38.28-14.85c71.34-27.86,142.22-56.86,213-86q57.5-23.69,115-47.37a3.73,3.73,0,0,0,2.09-4.67A201.74,201.74,0,0,0,483.11,141,3.7,3.7,0,0,0,479.27,140.24Z" transform="translate(-144.93 -70.9)"/><path class="a8415157-037b-43b8-b829-02118db6cfc9" d="M250.1,454.5q12-4.77,24-9.61c65.68-26.32,131.08-53.32,196.86-79.4Q518,346.83,565.4,329a202.34,202.34,0,0,0-5.66-98.93q-13.74,5.63-27.46,11.28c-71.77,29.53-143.44,59.3-215.41,88.32Q262.59,351.54,208,372.72c-6.94,2.69-13.9,5.33-20.85,8A202.3,202.3,0,0,0,250.1,454.5Z" transform="translate(-144.93 -70.9)"/><polygon class="f486166c-a8df-43fb-9869-5c1c13f8cf82" points="290.34 68.12 130.56 68.12 50.68 206.49 130.56 344.86 290.34 344.86 370.23 206.49 290.34 68.12"/><path class="fac19630-ad00-4e4a-980e-20b8f590f1ad" d="M275.16,317.3c-5-16.69-1.91-29.57,10.21-40.49,7.83-7.05,16-13.55,24-20.42a52.9,52.9,0,0,0,6-6.27c6.59-7.93,6.26-11.22-1.55-17-3.14-2.47-6-5.7-9.48-7.29-14.65-6.72-29.33-5.41-43.87.92A78,78,0,0,1,249.31,231c-1.75.47-4.51.15-5.53-1.12s-.53-4.24,0-6.21a21.63,21.63,0,0,1,3.26-6.49c4.38-6.1,8.94-12,13.42-18,12.34-11.35,26.4-10.69,40.8-7.36,17.82,4.13,34.46,11.85,50.36,21.65,3,1.87,5.28,1.9,8.34,0,17.59-10.77,36-19.13,55.89-22.77,12.77-2.34,24.78-1.06,35.29,8.43,2.24,2.87,4.66,5.58,6.69,8.62,3.56,5.35,7.35,10.61,10.17,16.45,2.36,4.89,0,8-4.83,6.94A48.51,48.51,0,0,1,453,227.6c-9.1-4.36-18.54-6.83-28.39-6.06-10.68.83-20.9,3.53-28.7,12.84-5.26,4.76-5.95,7.76-1.31,13.2a209.27,209.27,0,0,0,17.52,17.47c4.6,4.24,9.74,7.72,14.36,11.94,12.48,11.4,15.44,25.62,9.16,42.66-1.22,2.05-2.37,4.16-3.69,6.13-4.9,7.34-9.16,15.45-14.92,21.81-19.17,21.16-42.56,28.89-69.12,26.69-29.52-2.44-51.22-18.63-66.93-46.2C278.94,324.54,277.08,320.89,275.16,317.3ZM391.49,324c1.51-7.23.42-10.59-5.15-14.49a31.87,31.87,0,0,0-7.35-3.9,65.07,65.07,0,0,0-46.57.14,30.35,30.35,0,0,0-9.7,6.1c-3.27,3-4.83,7.25-2.56,12.13-.3,7,2.89,12.18,7.16,16.47,13.22,13.29,37.85,15.3,52.53,4C386.06,339.67,391.47,333.64,391.49,324Z" transform="translate(-144.93 -70.9)"/><path class="afcd7ad4-8f48-473f-9219-3b8b3a7ac909" d="M275.16,317.3c1.92,3.59,3.78,7.24,5.79,10.78,15.71,27.57,37.41,43.76,66.93,46.2,26.56,2.2,49.95-5.53,69.12-26.69,5.76-6.36,10-14.47,14.92-21.81,1.32-2,2.47-4.08,3.69-6.13-1.42,3.88-2.43,8-4.33,11.59-13.93,26.1-33.37,45-58.59,56.06-10.74,4.72-21.6,5.16-32.46.5Q299.9,370.52,278.84,328C277.22,324.67,276.37,320.87,275.16,317.3Z" transform="translate(-144.93 -70.9)"/><path class="afcd7ad4-8f48-473f-9219-3b8b3a7ac909" d="M395.88,234.38c7.8-9.31,18-12,28.7-12.84,9.85-.77,19.29,1.7,28.39,6.06a48.51,48.51,0,0,0,10.22,3.53c4.8,1.07,7.19-2,4.83-6.94-2.82-5.84-6.61-11.1-10.17-16.45-2-3-4.45-5.75-6.69-8.62,16.71,11.59,28.52,27.7,34.9,48.68.59,1.92.55,5.45-.46,6.3-1.4,1.17-4.31,1.28-6,.44a133.53,133.53,0,0,1-14-8.22c-6.94-4.49-13.71-9.34-20.66-13.81-13.16-8.46-26.64-9.95-40.52-2.08C401.63,232,398.71,233.07,395.88,234.38Z" transform="translate(-144.93 -70.9)"/><path class="afcd7ad4-8f48-473f-9219-3b8b3a7ac909" d="M260.48,199.15c-4.48,6-9,11.94-13.42,18a21.63,21.63,0,0,0-3.26,6.49c-.55,2-1,5,0,6.21s3.78,1.59,5.53,1.12a78,78,0,0,0,11.12-4.26c14.54-6.33,29.22-7.64,43.87-.92,3.46,1.59,6.34,4.82,9.48,7.29-3.17-1.34-6.42-2.49-9.5-4.06-11.18-5.71-22.28-5.1-33,1.08-8.62,5-16.81,10.9-25.26,16.24-4.74,3-9.48,6.12-14.51,8.36-5.22,2.33-8-.56-6-6.42a128.92,128.92,0,0,1,10-22.54C241.92,214.81,250.16,205.64,260.48,199.15Z" transform="translate(-144.93 -70.9)"/><path class="a58c484b-c3c7-4aca-9d66-9b70dd26e47f" d="M320.16,324c-2.27-4.88-.71-9.1,2.56-12.13a30.35,30.35,0,0,1,9.7-6.1,65.07,65.07,0,0,1,46.57-.14,31.87,31.87,0,0,1,7.35,3.9c5.57,3.9,6.66,7.26,5.15,14.49C375.48,348.74,335.9,348.47,320.16,324Zm35.76-10.32c3.49-.68,6.83-1.2,10.11-2.07,1-.26,1.77-1.52,2.65-2.32-.79-.85-1.44-2.14-2.37-2.49a29.32,29.32,0,0,0-20.91,0c-.95.35-1.64,1.61-2.45,2.45.86.81,1.63,2.09,2.6,2.34C349,312.49,352.5,313,355.92,313.7Z" transform="translate(-144.93 -70.9)"/><path class="afcd7ad4-8f48-473f-9219-3b8b3a7ac909" d="M320.16,324c15.74,24.45,55.32,24.72,71.33,0,0,9.6-5.43,15.63-11.64,20.42-14.68,11.33-39.31,9.32-52.53-4C323.05,336.2,319.86,331,320.16,324Z" transform="translate(-144.93 -70.9)"/><path class="ab95260e-7c1e-444d-8cc6-dda76a38a982" d="M355.92,313.7c-3.42-.66-6.93-1.21-10.37-2.11-1-.25-1.74-1.53-2.6-2.34.81-.84,1.5-2.1,2.45-2.45a29.32,29.32,0,0,1,20.91,0c.93.35,1.58,1.64,2.37,2.49-.88.8-1.66,2.06-2.65,2.32C362.75,312.5,359.41,313,355.92,313.7Z" transform="translate(-144.93 -70.9)"/><ellipse class="a185f926-336c-46a1-a1c2-62fdaf859f34" cx="210.88" cy="238.39" rx="12.86" ry="4.41"/><circle class="bdd9364e-29f4-43a7-ba5b-17dee8850dad" cx="143.18" cy="169.68" r="4.61"/><circle class="bdd9364e-29f4-43a7-ba5b-17dee8850dad" cx="282.37" cy="169.68" r="4.61"/></svg>