<svg id="Ebene_1" data-name="Ebene 1" xmlns="http://www.w3.org/2000/svg" viewBox="0 0 678.88 862.2"><defs><style>.cls-1{font-size:265.56px;font-family:ShakaPow, Shaka Pow;}.cls-1,.cls-16{fill:#01a0c6;}.cls-12,.cls-2{stroke:#333;}.cls-11,.cls-12,.cls-2,.cls-6,.cls-9{stroke-miterlimit:10;}.cls-2{stroke-width:4px;}.cls-3,.cls-8{fill:#333;}.cls-3{letter-spacing:0em;}.cls-4{fill:#835c3f;}.cls-12,.cls-5,.cls-9{fill:#fffefa;}.cls-11,.cls-6{fill:none;stroke-linecap:round;stroke-width:2px;}.cls-6{stroke:#835c3f;}.cls-7{fill:#fff;}.cls-9{stroke:#fff;}.cls-10{fill:#00711f;}.cls-11{stroke:#00711f;}.cls-13{fill:#fefefe;}.cls-14{fill:#bebebe;}.cls-15{fill:#f3f3f3;}</style></defs><title>ezlifehängend</title><text class="cls-1" transform="translate(2 227.76)"><tspan class="cls-2">EZ</tspan><tspan class="cls-3" x="265.31" y="0">LIFE</tspan></text><path class="cls-4" d="M790.63,358.33c-.27-5.68-.56-16.5-5.75-18.86-4.73-2.15-10.9-.82-13.37,3.75s-2.81,16-2.78,21.16l.86,149.71c.13,22,2.58,45.63-10,63.72-25.9,4.55-56.38,1.05-72.17-20-12.08-16.09-2-34.52-1.63-54.64.66-41.23-5.38-82.63-4.72-123.86.22-13.68,4.13-39.47-8.94-43.53-9.38-2.92-12.13,14.55-13.18,24.33-8.95,83.16,1.33,129.75,1.79,213.4.35,62.53,3.39,285.51,30.37,286,22.13.43-5.37-135.57,35.75-138.37C763.25,718.71,746.62,865,767,862c20.24-3,17-135.82,20.5-152.68C791.91,688.35,795.19,454.94,790.63,358.33Z" transform="translate(-386.6 -22.21)"/><ellipse class="cls-5" cx="338.22" cy="646.73" rx="31.54" ry="43.06"/><ellipse class="cls-4" cx="726.83" cy="573.53" rx="70.3" ry="73.85" transform="translate(-295.39 1224.52) rotate(-84.92)"/><path class="cls-5" d="M787.33,586.75c-2.86,32.17-32.58,55.81-66.37,52.81S662.09,608,665,575.87s39-63.67,64.81-35.29C762.79,517.77,790.19,554.58,787.33,586.75Z" transform="translate(-386.6 -22.21)"/><path class="cls-4" d="M712.25,596.33c-8,4-26.79,2.81-38.85,13.17-3.1,2.65-6-.32-5.65,3.75-.23-9.59.87-13,5.41-21.4,5.54-10.31,17.56-16.94,21.42-18.51,6.59-2.69,13.24-2.23,15.71-1.48C719.78,574.72,722.62,591.19,712.25,596.33Z" transform="translate(-386.6 -22.21)"/><path class="cls-4" d="M746.6,610.81c-.54,6-11.47,12.82-24.12,11.7s-22.23-9.74-21.69-15.77,11.23-10,23.88-8.89S747.14,604.77,746.6,610.81Z" transform="translate(-386.6 -22.21)"/><path class="cls-4" d="M736.6,598.49c7.2,5.33,25.88,7.49,35.93,19.82,2.57,3.16,4.38,1.37,3.31,5.3,1.91-9.4,3-13.51,0-22.63-3.64-11.13-14.31-19.77-17.83-22-6-3.81-12.64-4.53-15.2-4.23C733,575.9,727.3,591.61,736.6,598.49Z" transform="translate(-386.6 -22.21)"/><path class="cls-6" d="M703.13,622.2s15.64,14,37.82,3.37" transform="translate(-386.6 -22.21)"/><path class="cls-7" d="M738.93,589s6.63,8.81,24.4,8.64Z" transform="translate(-386.6 -22.21)"/><path class="cls-7" d="M711.29,586.55s-8.08,7.51-25.53,4.2Z" transform="translate(-386.6 -22.21)"/><polygon class="cls-4" points="335.44 486.42 332.99 464.63 341.56 478.2 350.04 447.27 352.26 479.15 369.76 460.49 354.5 488.11 335.44 486.42"/><path class="cls-8" d="M626.61,364.43c37,13.19,75.75,14.55,114,13.22,33.73-1.17,67.79-4.46,100-18a166,166,0,0,0,82.7-75.21c-17.52-5.86-34.92,7.86-50.93,19.16-86.21,60.88-194.2,60.85-280.39-.05-6.91-4.88-12.57-14.32-20.66-20.51-11.75-3.32-28.74,2.36-40.67.89C547.63,323.87,595.08,353.2,626.61,364.43Z" transform="translate(-386.6 -22.21)"/><path class="cls-5" d="M774.06,355.57c1.45,7.5,2.59,15.36,1.58,23,1.41-2,2-4.76,2.43-7.5a57.46,57.46,0,0,0-.32-17.9c-.41-2.28-1-4.65-2.36-6.1s-3.91-1.66-3.88,1.31C771.53,350,773.69,353.61,774.06,355.57Z" transform="translate(-386.6 -22.21)"/><path class="cls-5" d="M780.32,354.3c1.45,7.5,2.59,15.36,1.58,23,1.41-2,2.05-4.76,2.43-7.5a57.16,57.16,0,0,0-.32-17.9c-.41-2.29-1-4.66-2.35-6.1s-3.92-1.66-3.89,1.31C777.79,348.68,780,352.34,780.32,354.3Z" transform="translate(-386.6 -22.21)"/><path class="cls-5" d="M786.19,352.8c1.44,7.5,2.59,15.36,1.57,23,1.41-2,2-4.76,2.44-7.5a57.16,57.16,0,0,0-.33-17.9c-.4-2.29-1-4.66-2.35-6.1s-3.92-1.66-3.89,1.31C783.65,347.18,785.81,350.84,786.19,352.8Z" transform="translate(-386.6 -22.21)"/><path class="cls-5" d="M674.87,350.32c-1.44,7.5-2.59,15.36-1.57,23-1.42-2-2-4.76-2.44-7.5a57.46,57.46,0,0,1,.32-17.9c.41-2.28,1-4.65,2.36-6.1s3.92-1.66,3.88,1.31C677.41,344.71,675.24,348.36,674.87,350.32Z" transform="translate(-386.6 -22.21)"/><path class="cls-5" d="M668.61,349.05c-1.44,7.5-2.59,15.36-1.57,23-1.42-2-2-4.76-2.44-7.5a57.46,57.46,0,0,1,.32-17.9c.41-2.29,1-4.66,2.36-6.1s3.92-1.66,3.88,1.31C671.15,343.43,669,347.09,668.61,349.05Z" transform="translate(-386.6 -22.21)"/><path class="cls-5" d="M662.74,347.55c-1.44,7.5-2.59,15.36-1.57,23-1.41-2-2-4.76-2.43-7.5a56.86,56.86,0,0,1,.32-17.9c.41-2.29,1-4.66,2.35-6.1s3.92-1.66,3.89,1.31C665.28,341.93,663.12,345.59,662.74,347.55Z" transform="translate(-386.6 -22.21)"/><path class="cls-5" d="M696.18,858.12c-1.44,7.5-2.59,15.35-1.57,23-1.41-2-2.05-4.77-2.44-7.5a57.45,57.45,0,0,1,.32-17.9c.41-2.29,1-4.66,2.36-6.1s3.92-1.66,3.89,1.31C698.72,852.5,696.56,856.16,696.18,858.12Z" transform="translate(-386.6 -22.21)"/><path class="cls-5" d="M689.92,856.85c-1.44,7.5-2.59,15.35-1.57,23-1.41-2-2.05-4.77-2.44-7.5a57.52,57.52,0,0,1,.32-17.91c.41-2.28,1-4.65,2.36-6.1s3.92-1.65,3.89,1.32C692.46,851.23,690.3,854.89,689.92,856.85Z" transform="translate(-386.6 -22.21)"/><path class="cls-5" d="M684.06,855.35c-1.45,7.49-2.59,15.35-1.58,23-1.41-2-2.05-4.77-2.43-7.5a57.22,57.22,0,0,1,.32-17.91c.41-2.28,1-4.65,2.35-6.1s3.92-1.65,3.89,1.32C686.59,849.73,684.43,853.39,684.06,855.35Z" transform="translate(-386.6 -22.21)"/><path class="cls-9" d="M761.43,859.5c1.44,7.5,2.58,15.36,1.57,23,1.41-2,2-4.76,2.43-7.5a56.86,56.86,0,0,0-.32-17.9c-.41-2.28-1-4.65-2.35-6.1s-3.92-1.66-3.89,1.31C758.89,853.89,761.05,857.55,761.43,859.5Z" transform="translate(-386.6 -22.21)"/><path class="cls-9" d="M767.69,858.23c1.44,7.5,2.58,15.36,1.57,23,1.41-2,2-4.76,2.43-7.5a56.86,56.86,0,0,0-.32-17.9c-.41-2.28-1-4.65-2.35-6.1s-3.92-1.66-3.89,1.31C765.15,852.62,767.31,856.27,767.69,858.23Z" transform="translate(-386.6 -22.21)"/><path class="cls-9" d="M773.55,856.73c1.44,7.5,2.59,15.36,1.57,23,1.41-2,2-4.76,2.44-7.5a57.46,57.46,0,0,0-.32-17.9c-.41-2.29-1-4.65-2.36-6.1s-3.92-1.66-3.89,1.31C771,851.12,773.17,854.77,773.55,856.73Z" transform="translate(-386.6 -22.21)"/><ellipse class="cls-10" cx="619.2" cy="360.62" rx="17.58" ry="8.67" transform="translate(-426.9 618.61) rotate(-53.23)"/><line class="cls-11" x1="240.25" y1="328.33" x2="249.16" y2="315.28"/><path class="cls-8" d="M790.63,358.33c-.27-5.68-.56-16.5-5.75-18.86-4.73-2.15-10.9-.82-13.37,3.75s-2.81,16-2.78,21.16l.86,149.71c.13,22,2.58,45.63-10,63.72-25.9,4.55-56.38,1.05-72.17-20-12.08-16.09-2-34.52-1.63-54.64.66-41.23-5.38-82.63-4.72-123.86.22-13.68,4.13-39.47-8.94-43.53-9.38-2.92-12.13,14.55-13.18,24.33-8.95,83.16,1.33,129.75,1.79,213.4.35,62.53,3.39,285.51,30.37,286,22.13.43-5.37-135.57,35.75-138.37C763.25,718.71,746.62,865,767,862c20.24-3,17-135.82,20.5-152.68C791.91,688.35,795.19,454.94,790.63,358.33Z" transform="translate(-386.6 -22.21)"/><ellipse class="cls-5" cx="338.22" cy="646.73" rx="31.54" ry="43.06"/><ellipse class="cls-8" cx="726.83" cy="573.53" rx="70.3" ry="73.85" transform="translate(-295.39 1224.52) rotate(-84.92)"/><path class="cls-8" d="M787.33,586.75c-2.86,32.17-32.58,55.81-66.37,52.81S662.09,608,665,575.87s39-63.67,64.81-35.29C762.79,517.77,790.19,554.58,787.33,586.75Z" transform="translate(-386.6 -22.21)"/><polygon class="cls-8" points="335.44 486.42 332.99 464.63 341.56 478.2 350.04 447.27 352.26 479.15 369.76 460.49 354.5 488.11 335.44 486.42"/><path class="cls-5" d="M774.06,355.57c1.45,7.5,2.59,15.36,1.58,23,1.41-2,2-4.76,2.43-7.5a57.46,57.46,0,0,0-.32-17.9c-.41-2.28-1-4.65-2.36-6.1s-3.91-1.66-3.88,1.31C771.53,350,773.69,353.61,774.06,355.57Z" transform="translate(-386.6 -22.21)"/><path class="cls-5" d="M780.32,354.3c1.45,7.5,2.59,15.36,1.58,23,1.41-2,2.05-4.76,2.43-7.5a57.16,57.16,0,0,0-.32-17.9c-.41-2.29-1-4.66-2.35-6.1s-3.92-1.66-3.89,1.31C777.79,348.68,780,352.34,780.32,354.3Z" transform="translate(-386.6 -22.21)"/><path class="cls-5" d="M786.19,352.8c1.44,7.5,2.59,15.36,1.57,23,1.41-2,2-4.76,2.44-7.5a57.16,57.16,0,0,0-.33-17.9c-.4-2.29-1-4.66-2.35-6.1s-3.92-1.66-3.89,1.31C783.65,347.18,785.81,350.84,786.19,352.8Z" transform="translate(-386.6 -22.21)"/><path class="cls-5" d="M674.87,350.32c-1.44,7.5-2.59,15.36-1.57,23-1.42-2-2-4.76-2.44-7.5a57.46,57.46,0,0,1,.32-17.9c.41-2.28,1-4.65,2.36-6.1s3.92-1.66,3.88,1.31C677.41,344.71,675.24,348.36,674.87,350.32Z" transform="translate(-386.6 -22.21)"/><path class="cls-5" d="M668.61,349.05c-1.44,7.5-2.59,15.36-1.57,23-1.42-2-2-4.76-2.44-7.5a57.46,57.46,0,0,1,.32-17.9c.41-2.29,1-4.66,2.36-6.1s3.92-1.66,3.88,1.31C671.15,343.43,669,347.09,668.61,349.05Z" transform="translate(-386.6 -22.21)"/><path class="cls-5" d="M662.74,347.55c-1.44,7.5-2.59,15.36-1.57,23-1.41-2-2-4.76-2.43-7.5a56.86,56.86,0,0,1,.32-17.9c.41-2.29,1-4.66,2.35-6.1s3.92-1.66,3.89,1.31C665.28,341.93,663.12,345.59,662.74,347.55Z" transform="translate(-386.6 -22.21)"/><path class="cls-12" d="M696.18,858.12c-1.44,7.5-2.59,15.35-1.57,23-1.41-2-2.05-4.77-2.44-7.5a57.45,57.45,0,0,1,.32-17.9c.41-2.29,1-4.66,2.36-6.1s3.92-1.66,3.89,1.31C698.72,852.5,696.56,856.16,696.18,858.12Z" transform="translate(-386.6 -22.21)"/><path class="cls-12" d="M689.92,856.85c-1.44,7.5-2.59,15.35-1.57,23-1.41-2-2.05-4.77-2.44-7.5a57.52,57.52,0,0,1,.32-17.91c.41-2.28,1-4.65,2.36-6.1s3.92-1.65,3.89,1.32C692.46,851.23,690.3,854.89,689.92,856.85Z" transform="translate(-386.6 -22.21)"/><path class="cls-12" d="M684.06,855.35c-1.45,7.49-2.59,15.35-1.58,23-1.41-2-2.05-4.77-2.43-7.5a57.22,57.22,0,0,1,.32-17.91c.41-2.28,1-4.65,2.35-6.1s3.92-1.65,3.89,1.32C686.59,849.73,684.43,853.39,684.06,855.35Z" transform="translate(-386.6 -22.21)"/><path class="cls-12" d="M761.43,859.5c1.44,7.5,2.58,15.36,1.57,23,1.41-2,2-4.76,2.43-7.5a56.86,56.86,0,0,0-.32-17.9c-.41-2.28-1-4.65-2.35-6.1s-3.92-1.66-3.89,1.31C758.89,853.89,761.05,857.55,761.43,859.5Z" transform="translate(-386.6 -22.21)"/><path class="cls-12" d="M767.69,858.23c1.44,7.5,2.58,15.36,1.57,23,1.41-2,2-4.76,2.43-7.5a56.86,56.86,0,0,0-.32-17.9c-.41-2.28-1-4.65-2.35-6.1s-3.92-1.66-3.89,1.31C765.15,852.62,767.31,856.27,767.69,858.23Z" transform="translate(-386.6 -22.21)"/><path class="cls-12" d="M773.55,856.73c1.44,7.5,2.59,15.36,1.57,23,1.41-2,2-4.76,2.44-7.5a57.46,57.46,0,0,0-.32-17.9c-.41-2.29-1-4.65-2.36-6.1s-3.92-1.66-3.89,1.31C771,851.12,773.17,854.77,773.55,856.73Z" transform="translate(-386.6 -22.21)"/><ellipse class="cls-10" cx="619.2" cy="360.62" rx="17.58" ry="8.67" transform="translate(-426.9 618.61) rotate(-53.23)"/><line class="cls-11" x1="240.25" y1="328.33" x2="249.16" y2="315.28"/><path class="cls-13" d="M695,599.93c-2-6.66-.76-11.8,4.07-16.16,3.13-2.81,6.41-5.4,9.58-8.15a20.9,20.9,0,0,0,2.38-2.5c2.63-3.16,2.5-4.47-.62-6.78a21.33,21.33,0,0,0-3.78-2.91c-5.85-2.68-11.71-2.16-17.51.37a30.73,30.73,0,0,1-4.44,1.7,2.42,2.42,0,0,1-2.2-.45c-.37-.46-.21-1.69,0-2.48a8.64,8.64,0,0,1,1.3-2.59c1.74-2.43,3.56-4.8,5.35-7.19,4.93-4.53,10.54-4.27,16.28-2.94a67.58,67.58,0,0,1,20.1,8.64,2.75,2.75,0,0,0,3.32,0c7-4.3,14.36-7.64,22.3-9.09,5.1-.93,9.89-.42,14.09,3.37.89,1.14,1.85,2.22,2.66,3.44a53.86,53.86,0,0,1,4.06,6.56c.94,2,0,3.19-1.92,2.77a19.91,19.91,0,0,1-4.08-1.41,22,22,0,0,0-11.33-2.42c-4.26.33-8.34,1.41-11.45,5.12-2.1,1.9-2.38,3.1-.52,5.27a82.09,82.09,0,0,0,7,7c1.83,1.69,3.88,3.08,5.73,4.76,5,4.55,6.16,10.23,3.65,17-.49.81-1,1.66-1.47,2.44-2,2.93-3.66,6.17-6,8.71-7.64,8.44-17,11.52-27.58,10.64-11.77-1-20.43-7.43-26.7-18.43C696.47,602.82,695.73,601.36,695,599.93Zm46.42,2.69c.6-2.89.16-4.23-2.06-5.79a13.07,13.07,0,0,0-2.93-1.55,25.93,25.93,0,0,0-18.58.06,12,12,0,0,0-3.87,2.43,3.94,3.94,0,0,0-1,4.84,8.55,8.55,0,0,0,2.85,6.57c5.28,5.3,15.1,6.11,21,1.58C739.21,608.85,741.37,606.45,741.38,602.62Z" transform="translate(-386.6 -22.21)"/><path class="cls-14" d="M695,599.93c.77,1.43,1.51,2.89,2.31,4.3,6.27,11,14.93,17.46,26.7,18.43,10.6.88,19.94-2.2,27.58-10.64,2.3-2.54,4-5.78,6-8.71.52-.78,1-1.63,1.47-2.44a35.41,35.41,0,0,1-1.73,4.62c-5.56,10.41-13.31,18-23.38,22.37a15.65,15.65,0,0,1-13,.2q-16.09-6.9-24.49-23.87A35.05,35.05,0,0,1,695,599.93Z" transform="translate(-386.6 -22.21)"/><path class="cls-14" d="M743.13,566.84c3.11-3.71,7.19-4.79,11.45-5.12a22,22,0,0,1,11.33,2.42,19.91,19.91,0,0,0,4.08,1.41c1.91.42,2.86-.82,1.92-2.77a53.86,53.86,0,0,0-4.06-6.56c-.81-1.22-1.77-2.3-2.66-3.44a35.46,35.46,0,0,1,13.92,19.42c.24.76.22,2.17-.18,2.51a2.56,2.56,0,0,1-2.41.18,54.54,54.54,0,0,1-5.6-3.28c-2.77-1.8-5.47-3.73-8.25-5.51-5.24-3.38-10.62-4-16.16-.83C745.42,565.88,744.26,566.32,743.13,566.84Z" transform="translate(-386.6 -22.21)"/><path class="cls-14" d="M689.1,552.79c-1.79,2.39-3.61,4.76-5.35,7.19a8.64,8.64,0,0,0-1.3,2.59c-.22.79-.38,2,0,2.48a2.42,2.42,0,0,0,2.2.45,30.73,30.73,0,0,0,4.44-1.7c5.8-2.53,11.66-3,17.51-.37a21.33,21.33,0,0,1,3.78,2.91c-1.26-.54-2.56-1-3.79-1.62a13.07,13.07,0,0,0-13.16.43c-3.44,2-6.71,4.35-10.08,6.48a46.63,46.63,0,0,1-5.79,3.34c-2.08.93-3.21-.23-2.39-2.56a51.57,51.57,0,0,1,4-9A30.36,30.36,0,0,1,689.1,552.79Z" transform="translate(-386.6 -22.21)"/><path class="cls-8" d="M712.92,602.61a3.94,3.94,0,0,1,1-4.84,12,12,0,0,1,3.87-2.43,25.93,25.93,0,0,1,18.58-.06,13.07,13.07,0,0,1,2.93,1.55c2.22,1.56,2.66,2.9,2.06,5.79C735,612.47,719.2,612.37,712.92,602.61Zm14.26-4.12c1.4-.27,2.73-.48,4-.82.39-.11.7-.61,1-.93-.31-.34-.57-.85-.94-1a11.67,11.67,0,0,0-8.35,0c-.37.14-.65.64-1,1,.34.32.65.83,1,.93C724.42,598,725.82,598.23,727.18,598.49Z" transform="translate(-386.6 -22.21)"/><path class="cls-14" d="M712.92,602.61c6.28,9.76,22.07,9.86,28.46,0,0,3.83-2.17,6.23-4.65,8.14-5.86,4.53-15.68,3.72-21-1.58A8.55,8.55,0,0,1,712.92,602.61Z" transform="translate(-386.6 -22.21)"/><ellipse class="cls-15" cx="340.54" cy="574.53" rx="5.13" ry="1.76"/><circle class="cls-16" cx="313.11" cy="546.79" r="2"/><circle class="cls-16" cx="369.11" cy="547.79" r="2"/></svg>